<svg version="1.1" id="Ebene_1" xmlns="http://www.w3.org/2000/svg" x="0" y="0" viewBox="0 0 149.81 151.22" xml:space="preserve"><style>.st1{fill:#fff}</style><circle cx="73.72" cy="73.12" r="55.61" fill="none" stroke="#000" stroke-width="2" stroke-miterlimit="10"/><g id="tQYWTq_11_"><path d="M98.14 62.2c.41 1.71.86 3.41 1.18 5.13.07.37-.3.91-.61 1.21-.15.14-.66-.07-1-.14-.14-.03-.27-.12-.41-.18-.07.17-.22.35-.2.52.2 1.65.49 3.29.62 4.94.05.65-.25 1.33-.38 2-.56-.29-1.16-.52-1.67-.89-.38-.27-.64-.71-.96-1.08-.06.52-.09 1.04-.2 1.55-.16.76-.28 1.56-.6 2.24-.12.25-.83.41-1.19.32-.51-.13-.94-.56-1.42-.82-.09-.05-.36.04-.39.13-.96 2.31-1 4.68-.29 7.06.62 2.09 1.27 4.16 1.93 6.24.22.7.72 1.37.71 2.06 0 .52-.6 1.03-.94 1.54-.1.15-.32.29-.31.41.39 2.76.8 5.53 1.21 8.29.1.68.23 1.37.29 2.05.02.2-.12.56-.25.6-1.25.33-.45 1.06-.32 1.61.51 2.18 1 4.36 1.62 6.51.28.96.71 1.77-.84 1.79-.04 0-.13.25-.1.33.82 2 1.66 3.99 2.5 5.99.07.18.23.41.17.54-.38.84-.79 1.67-1.24 2.48-.06.11-.57.12-.57.11-.2-.86-.37-1.73-.52-2.6-.01-.07.1-.25.17-.25 1.26-.05.33-.81.24-1.04-.71-1.84-1.51-3.65-2.29-5.47-.33-.77-.54-1.46.74-1.42.11 0 .37-.36.33-.5-.65-2.67-1.38-5.32-1.96-8-.1-.48.52-1.07.56-1.63.05-.7-.18-1.41-.25-2.12-.26-2.68-.51-5.37-.76-8.06-.01-.09-.01-.22.04-.26 1.92-1.45.15-2.77-.15-4.13-.6-2.69-1.13-5.39-1.89-8.04-.28-.97-1.13-1.77-1.71-2.65-.32-.48-.63-.96-.95-1.45-.08.56-.16 1.12-.26 1.68-.04.25-.08.5-.18.73-.2.49-.43.96-.65 1.44-.57-.36-1.28-.61-1.67-1.12-.49-.62-.71-.77-1.13-.01-.44.77-.91 1.53-1.44 2.24-.13.17-.65.26-.83.14-.5-.32-.93-.75-1.34-1.18-.11-.11-.04-.38-.09-.57-.06-.22-.16-.42-.24-.63-.08.2-.19.39-.25.59-.41 1.36-.77 2.73-1.29 4.05-.06.15-1.21.16-1.45-.11-.51-.6-.76-1.42-1.11-2.15-.06-.13-.13-.25-.19-.38-.12.09-.32.16-.35.28-.18.67-.32 1.36-.49 2.04-.07.29-.19.57-.29.86-.4-.18-.92-.25-1.16-.56-.37-.47-.48-.98-1.08-.17-.46.62-1.86-.35-2.25-1.5-.15-.44-.32-.97-.65-1.24-1.31-1.05-2.6-.36-2.91 1.5-.04.23 0 .51-.12.67-.28.36-.64.65-.96.97-.29-.36-.65-.68-.84-1.09-.24-.53-.34-1.13-.5-1.7-.35.4-.67.83-1.05 1.2-1.53 1.49-1.85 3.37-1.92 5.4-.03 1.01-.4 2-.61 3-.03.14.03.43.04.43 1.23-.01.92.82.8 1.5-.58 3.02-1.18 6.04-1.75 9.07-.03.14.08.44.15.45 1.34.11.93.98.75 1.72-.5 2.09-1.02 4.17-1.51 6.26-.02.09.17.32.3.35.28.08.76-.02.84.13.15.27.15.69.07 1-.41 1.56-.97 3.09-1.28 4.67-.55 2.75-.95 5.54-1.45 8.3-.05.3-.39.54-.59.81-.21-.21-.55-.4-.6-.65-.13-.59-.26-1.23-.16-1.81.54-3.18 1.15-6.34 1.71-9.51.06-.34-.02-.95-.2-1.04-1.31-.57-.97-1.46-.64-2.43.63-1.86 1.21-3.73 1.78-5.61.04-.13-.17-.46-.33-.52-1.11-.38-1.22-1.1-.91-2.11.74-2.4 1.36-4.84 2.14-7.22.32-1 .19-1.53-.72-2.16-.36-.25-.35-1.43-.12-2.04 1.32-3.45 1.31-7.02 1.1-10.61 0-.08-.06-.15-.09-.23-.08.07-.18.12-.23.2-.21.43-.34.92-.61 1.3-.2.29-.58.46-.88.69-.24-.34-.57-.64-.71-1.01-.24-.64-.39-1.32-.53-2-.2-1-.57-.7-1.24-.35-.55.28-1.5.39-1.96.09-.38-.24-.35-1.19-.42-1.83-.04-.3.09-.63.17-.94.18-.68.39-1.27-.79-1.02-.18.04-.87-1.03-.86-1.58.01-1.06.36-2.11.53-3.17.02-.14-.12-.43-.24-.47-1.87-.53-1.19-1.85-.89-2.98.18-.66.39-1.01-.61-.9-1.08.11-.99-.71-.8-1.39.42-1.49.9-2.96 1.35-4.43.05-.15.15-.34.11-.46-1.14-3.12 1.43-5.41 1.81-8.17.25-1.81.25-3.65.31-5.47 0-.1-.51-.27-.79-.31-.9-.12-2.43.07-2.6-.33-.35-.84 0-1.97.09-2.98.01-.11.21-.2.28-.32.2-.35.38-.72.56-1.08-.3.05-.62.18-.9.12-.45-.1-1.15-.23-1.26-.53-.19-.54-.23-1.31.02-1.8.38-.73 1.01-1.37 1.64-1.92.64-.57.62-.84-.08-1.35-.65-.47-1.69-1.3-1.58-1.74.2-.85 1.08-1.54 1.68-2.3.29-.37.9-.86.81-1.09-.21-.54-.73-.98-1.16-1.42-.13-.14-.44-.1-.58-.23-.38-.36-.71-.76-1.06-1.15.58-.25 1.21-.79 1.72-.69 1.63.31 1.32-.84 1.1-1.51-.48-1.51-1.21-2.94-1.79-4.42-.33-.83-.75-1.69-.8-2.56-.15-2.45-.22-4.91-.15-7.36.04-1.41.32-2.84.63-4.23.3-1.36 1.4-1.65 2.64-1.61.1 0 .23.03.3.1C51.5 6.76 52.64 7.9 53.82 9c.17.16.49.15.74.23.5.17 1.16.2 1.46.54.52.59.63 1.55 1.86 1.14.25-.08.85.71 1.2 1.16.61.8 1.15 1.65 1.74 2.45.02.02.36-.16.52-.29.19-.15.34-.35.51-.53.15.2.33.39.44.61.13.25.16.56.29.8.22.38.5.73.75 1.09.05-.33.01-.72.17-.99.21-.36.54-.76.91-.88.18-.06.63.43.83.74.52.84.97 1.72 1.47 2.57.07.12.24.19.36.28.08-.12.17-.22.22-.35.41-1.07.77-2.16 1.23-3.21.09-.2.63-.41.79-.32.24.13.35.53.47.83.08.21.01.48.11.68.13.28.35.52.53.78.19-.23.39-.46.56-.7.65-.89 1.24-1.84 1.97-2.65.11-.13 1.03.18 1.27.51.63.89 1.1 1.9 1.65 2.85.02.03.33-.05.42-.15.72-.82 1.31-1.8 2.15-2.44.97-.74 1.51-.1 1.67.95.07.45.23.88.35 1.32.41-.23.83-.42 1.21-.68.43-.29.82-.62 1.22-.95.91-.74 1.13-.09 1.33.64.16.6.33 1.19.5 1.79.45-.53.92-1.05 1.36-1.6.48-.61.87-1.31 1.44-1.83.2-.19.8.06 1.22.1.13.01.34.06.39-.01.67-.89 1.3-1.82 1.98-2.7.48-.62 1-1.21 1.78-.28.07.08.51-.03.68-.17.66-.54 1.21-1.24 1.93-1.67.52-.31 1.25-.24 1.87-.42.36-.1.65-.41 1.01-.5.68-.18 1.39-.28 2.08-.41.18-.03.38.01.55-.05.37-.12.73-.42 1.09-.4.54.03 1.13.17 1.58.46.16.1-.01.77-.08 1.17-.29 1.71-.57 3.43-.89 5.14-.24 1.28-.39 2.59-.83 3.8-.63 1.74-1.42 3.44-2.28 5.09-.65 1.25-1.7 2.3-2.26 3.58-.65 1.49-1.03 3.11-1.35 4.71-.08.38.51 1.23.9 1.31 1.81.35 1.46 1.21.67 2.24-.39.5-.85.95-1.25 1.45-.1.12-.14.39-.07.51.44.71.99 1.35 1.35 2.08.52 1.06.11 1.73-1.05 1.97-.17.03-.43.19-.45.32-.04.22 0 .54.14.69 1.01 1.04.9 1.5-.42 2.33-.33.21-.62.8-.6 1.2.19 3.73 1.15 7.3 2.61 10.73.52 1.23 1.33 2.34 1.93 3.55.09.19-.27.87-.37.86-1.38-.15-.89.84-.95 1.49-.02.18 0 .36 0 .53-.14.07-.21.09-.29.11zM80.88 19.41l.51.24c-.19.84-.35 1.69-.58 2.52-.04.15-.34.33-.52.33-.15 0-.39-.22-.43-.38-.32-1.5-.59-3.02-.91-4.52-.1-.49-.31-.96-.48-1.43-.34.37-.64.79-1.03 1.11-.57.47-1.41 1.36-1.74 1.21-.7-.32-1.15-1.2-1.71-1.84-.36-.41-.73-.81-1.09-1.22-.23.75-.48 1.49-.69 2.24-.08.27.06.69-.1.84-.19.18-.66.28-.88.17-.64-.33-1.21-.81-1.84-1.17-.14-.08-.56.04-.65.19-1.01 1.66.48 3.16.34 4.77-.03.38-.18.76-.27 1.14-.22-.32-.45-.62-.64-.95-.89-1.57-1.77-3.16-2.66-4.73-.05-.09-.23-.11-.35-.16-.04.12-.11.25-.12.37-.07.82-.2 1.65-.15 2.46.04.6.29 1.19.5 1.77.11.29.35.53.54.79-.37 0-.76.08-1.1-.01-2.5-.74-4.19-2.4-5.27-4.73-.06-.12-.16-.22-.24-.32-.02.11-.09.23-.07.34.48 2.23.97 4.47 1.45 6.7.04.2.1.4.1.6 0 .05-.24.16-.35.14-2.22-.42-4.04-1.41-5.04-3.55-.04-.08-.09-.14-.14-.21-.03.04-.1.08-.09.11.41 1.24.78 2.5 1.25 3.71.17.43.65.72.9 1.14.07.12-.26.64-.33.63-.43-.09-.82-.35-1.25-.43-.36-.07-.78-.07-1.13.04-1.41.47-2.81.99-4.21 1.49-.14.05-.27.1-.4.16.15.15.27.37.46.44.98.36 2.02.62 2.96 1.06.43.2.7.75 1.05 1.14-.43.17-.85.44-1.3.48-.43.03-.88-.21-1.33-.26-.23-.03-.55.02-.72.16-.67.6-1.31 1.24-1.92 1.9-.11.12-.08.6-.01.63 1.07.41 1.75 1.94 3.27 1.12.15-.08.54.27.8.46.03.02-.05.32-.15.39-1.12.83-2.26 1.63-3.37 2.46-.2.15-.31.41-.46.62.22.06.46.09.67.18.64.3 1.35.55 1.86 1 .12.11-.41.97-.67 1.47-.14.26-.37.48-.49.75-.1.21-.09.46-.13.69.3.01.68.15.87.02 1-.67 1.94-1.42 2.91-2.14.17-.13.39-.2.58-.29.02.22.11.47.03.64-.42.98-.88 1.94-1.33 2.9-.03.06-.03.12-.04.18.05-.01.11 0 .15-.03.69-.4 1.6-.65 2.01-1.24.89-1.27 1.52-2.73 2.29-4.09.11-.19.43-.26.65-.38.03.24.16.51.08.7-.88 2.09-.39 4.02.64 5.88.34.61.81.88 1.2.06.72-1.55 1.37-3.14 2.09-4.69.14-.31.49-.53.74-.79.14.31.33.62.4.94.2.99.33 1.99.54 2.97.04.2.32.35.49.53.3-.37.85-.74.84-1.1-.02-1.12-.3-2.24-.39-3.37-.02-.26.3-.56.46-.84.21.28.54.53.63.85.49 1.81.92 3.64 1.4 5.46.06.21.28.38.42.56.19-.2.44-.38.56-.62.54-1.02 1.03-2.06 1.57-3.07.11-.2.36-.32.55-.48.12.2.28.38.36.59.4 1.15.76 2.32 1.17 3.47.05.14.29.23.45.31.03.01.17-.13.19-.21.18-.59.31-1.2.51-1.79.29-.83.61-1.65.98-2.45.07-.15.42-.17.64-.25l.09.58c.13 1.13.24 2.26.4 3.38.01.07.6.17.65.09.6-.95 1.14-1.94 1.73-2.9.22-.36.66-.97.79-.92.53.2 1.04.56 1.45.97.24.24.26.69.41 1.03.15.33.33.64.5.95.11-.32.21-.64.32-.96.13-.37.28-.73.43-1.09.33.32.71.61.99.98.56.73 1.05 1.51 1.59 2.25.08.11.25.16.39.24.05-.16.14-.31.15-.47.08-1.33.14-2.65.23-3.98.01-.08.26-.22.27-.2.39.38.87.73 1.1 1.19.61 1.19 3.68 3.06 5 2.87.36-.05.67-.39 1.01-.6-.19-.26-.39-.52-.59-.77-.74-.93-1.49-1.86-2.22-2.81-.03-.03.22-.38.3-.37.85.14 1.68.36 2.53.48.51.08 1.04.04 1.57.05 0-.11.05-.29 0-.33-.47-.39-.95-.75-1.44-1.11-.07-.05-.24.03-.31-.02-.48-.37-.95-.74-1.4-1.14-.05-.05.06-.4.09-.4.51 0 1.02.02 1.53.07.15.02.29.23.41.22.87-.13 1.74-.3 2.61-.45-.37-.47-.68-1.04-1.15-1.37-.27-.19-.83.07-1.24 0-.43-.07-.85-.28-1.27-.43.24-.3.44-.65.73-.9.89-.77 1.82-1.49 2.71-2.25.1-.09.18-.39.12-.44-.44-.41-1.03-1.18-1.35-1.09-1.43.41-2.78 1.13-4.19 1.63-.38.13-.88-.1-1.33-.17.03-.17.01-.44.1-.49.99-.52 2.12-.87 2.97-1.56.77-.62 1.48-1.53 1.76-2.45.23-.77-.18-1.75-.34-2.63-.02-.11-.25-.26-.39-.27-1.25-.08-1.56 1.04-2.24 1.72-.26.26-.8.26-1.21.38 0-.41-.09-.83.01-1.21.41-1.66.88-3.32 1.32-4.97 0 0-.12-.06-.15-.04-1.46.81-2.91 1.63-4.39 2.41-.17.09-.47-.04-.71-.07.05-.25.01-.66.16-.74 2.1-1.14 1.65-3.34 2.13-5.14.02-.09-.17-.23-.26-.35-.71.8-1.42 1.6-2.12 2.4-.41.47-.8.96-1.19 1.44-.16-.58-.36-1.14-.47-1.73-.13-.64-.15-1.29-.28-1.93-.11-.56-.32-1.11-.48-1.66-.04-.15-.08-.29-.11-.44-.12.07-.29.11-.35.21-.56.93-1.11 1.88-1.66 2.83zm3.75 50.49c-.12-1.32.26-1.98 1.71-1.33.06.03.4-.28.38-.38-.23-1.2-.57-2.39-.72-3.6-.04-.3.51-.7.85-.98.05-.04.49.3.67.52.49.62.92 1.29 1.4 1.91.07.09.28.07.43.11-.01-.14 0-.28-.04-.41-.46-1.63-.94-3.26-1.39-4.9-.05-.17.05-.39.12-.57.01-.03.29-.03.36.04.75.74 1.49 1.51 2.23 2.26.11.11.27.18.41.27-.03-.17-.02-.35-.09-.5-.65-1.32-1.41-2.59-1.92-3.96-.18-.47.27-1.18.43-1.78.43.26.91.47 1.27.8.52.49.95 1.09 1.44 1.62.09.09.29.07.44.11-.03-.15-.03-.31-.09-.44-.61-1.29-1.25-2.57-1.84-3.87-.09-.19.02-.48.04-.72.21.13.4.3.63.38.25.1.52.13.79.17.01 0 .1-.19.07-.25-.53-1-1.11-1.93-2.4-2.04-.15-.01-.38-.21-.4-.35-.02-.12.24-.42.32-.4.83.2 1.64.47 2.47.67.46.11.94.14 1.41.21-.14-.28-.27-.57-.42-.85-.17-.33-.48-.65-.5-.99-.03-.44.02-1.07.3-1.32.81-.71.87-.68-.04-1.76-.01-.01-.02-.04-.03-.04-.69.05-1.95-.01-1.97.16-.42 2.45-2.29 3.03-4.25 3.41-2.31.44-4.94-1.43-5.25-3.6-.01-.1-.15-.17-.22-.26-.68-1-1.36-2.01-2.04-3.01-.06-.09-.14-.17-.21-.26-.11.11-.26.21-.31.34-.32.88-.66 1.77-.89 2.67-.05.21.24.7.45.76 2.92.76 3.85 3.12 4.56 5.64.06.23-.34.59-.53.89-.23-.19-.56-.34-.66-.59-.36-.85-.6-1.75-.98-2.59-.79-1.79-3.75-2.41-5.35-1.28-1.23.86-2.62 1.25-4.11.42-2.19-1.22-4.05-.6-5.21 1.66-.33.65-.73 1.28-1.18 1.86-.12.15-.62.18-.82.06-.29-.18-.73-.72-.67-.8.95-1.35 1.83-2.78 3.01-3.91.78-.74 1.58-.93.39-2.09-.82-.81-.84-.84-1.12.23-.13.49-.68.85-.96 1.32-.24.38-.26.93-.55 1.24-1.89 2.05-4.26 2.37-6.8 1.65-.69-.2-1.53-.7-1.79-1.29-.31-.71-.07-1.67-.1-2.51-.01-.28-.11-.57-.17-.85-.29.28-.77.51-.85.84-.22.99-.21 2.04-.42 3.03-.34 1.55-.8 3.08-1.19 4.62-.07.29-.02.61-.02.92.15-.01.36.03.43-.05.65-.74 1.25-1.51 1.91-2.25.15-.17.43-.24.64-.35.1.23.33.5.27.67-.28.8-.67 1.55-.96 2.34-.58 1.58-1.13 3.18-1.69 4.77-.04.11-.12.21-.18.31.12-.04.29-.05.37-.13.96-1.03 1.9-2.09 2.87-3.12.21-.22.52-.33.78-.5.15.37.51.82.41 1.1-.51 1.39-1.96 2.29-1.94 4.01.01.73-.42 1.47-.64 2.21-.04.13-.04.28-.05.42.16-.08.34-.13.46-.25.56-.57 1.07-1.19 1.68-1.71.3-.26.77-.32 1.16-.47-.06.44-.08.9-.19 1.33-.26 1.09-.56 2.16-.83 3.25-.02.07.09.25.14.25 1.17.07 1 .93 1 1.69 0 .45.01.89.01 1.34.26-.48.52-.98.8-1.45.11-.18.28-.33.43-.49.11.2.27.38.32.59.24 1.01-.65 2.61 1.42 2.65.05 0 .1.11.16.13.56.23 1.3.79 1.64.6.59-.32.94-1.09 1.38-1.69.19-.26.33-.56.49-.84.12.28.21.58.37.84.26.43.56.83.84 1.25.21-.17.43-.33.63-.51.16-.14.28-.44.43-.45.2-.01.51.14.61.31.39.64.74 1.07 1.32.16.05-.07.37.03.56.04.46.02.92.09 1.37.04.73-.07 1.45-.27 2.17-.3.42-.02 1.03.4 1.26.23 1.48-1.1 3.34.55 4.75-.74.02-.02.1.03.15.04.91.24 1.82.49 2.73.73.1.03.2.02.3.04-.03-.1-.07-.2-.08-.3-.04-.4-.21-1.08-.09-1.14.41-.18 1.06-.37 1.37-.17 1.15.76.99-.02.94-.74zm11.89-9.03c.11-.04.22-.07.34-.11.09-.58.15-1.16.28-1.73.03-.14.29-.28.47-.32.14-.03.32.09.49.15-.06-.2-.09-.41-.18-.58-.69-1.3-1.38-2.59-2.08-3.88-.2-.36-.41-.72-.61-1.08-.37.61-2.04.43-1.11 1.85.22.33.3.76.38 1.16.06.28.02.59.03.88-.31-.04-.61-.07-.92-.11l-.5-.06c.06.14.1.3.18.43.53.88 1.09 1.74 1.6 2.63.11.19.14.56.02.71-.12.15-.49.24-.69.18-.81-.25-1.6-.57-2.39-.86-.08-.03-.16-.04-.24-.05.02.08.02.17.06.24.5 1 1.01 1.99 1.52 2.99.17.34.36.68.54 1.01-.51.1-1.01.29-1.52.29-.47 0-.93-.2-1.4-.31-.11-.03-.23-.05-.34-.07.02.12.04.24.07.36.26.91.55 1.8.76 2.72.06.28.02.74-.16.89-.21.17-.67.2-.94.09-.39-.16-.7-.5-1.06-.75-.39-.27-.8-.51-1.2-.76.05.4.09.81.14 1.21.05.35.13.7.14 1.06.01.32-.05.91-.12.91-.45.03-.91-.03-1.37-.11-.33-.06-.65-.18-.98-.28.01.3-.03.62.04.91.17.75.55 1.61-.68 1.72-.6.05-1.09-.06-1.14.77-.01.16-.5.39-.79.43-1.67.21-3.43-.59-5.05.53-.29.2-.91-.05-1.38-.1-.64-.06-1.28-.14-1.92-.19-.39-.03-.89.14-1.15-.05-.97-.68-1.84-.39-2.75.08-.51.26-1.04.51-1.59.68-.21.07-.53-.01-.73-.13-.42-.25-.79-.59-1.21-.86-.07-.05-.34.04-.36.1-.22 1.07-1 1.36-1.93.74-.16-.11-.48.03-.73.05-.87.09-1.75.2-2.62.27-.46.03-1-.19-1.37-.01-.89.42-1.87 0-2.01-.97-.02-.15-.36-.25-.54-.39-.49-.37-1.29-.68-1.41-1.15-.3-1.18-.25-2.43-.4-3.65-.14-1.09-.56-1.73-1.83-1.11-.19.09-1.01-.48-.98-.64.13-.68.52-1.3.73-1.97.2-.65.29-1.33.44-2-.51.1-1.02.2-1.53.29-.28.05-.6.18-.83.1-.21-.08-.5-.46-.46-.6.43-1.28.93-2.53 1.38-3.81.05-.15-.14-.38-.21-.58-.21.14-.52.23-.6.42-.55 1.27-1.09 2.54-1.57 3.84-.27.75-.42 1.55-.62 2.32.75-.27 1.5-.53 2.25-.8.08-.03.18-.1.25-.08.28.06.55.16.82.24-.09.27-.12.59-.29.81-.61.79-1.39 1.48-1.84 2.34-.27.51-.04 1.27-.03 1.92.31-.42.61-.85.93-1.26.14-.18.32-.33.48-.5.12.17.37.36.35.52-.17 1.6-.39 3.19-.59 4.79-.04.28-.1.56-.15.84.22-.19.48-.35.66-.58.33-.42.58-.9.91-1.31.1-.13.36-.16.55-.19.04-.01.17.15.16.22-.28 1.59-.58 3.19-.86 4.78-.04.24.03.49.04.73.28-.15.72-.23.8-.45.3-.78.47-1.62.73-2.42.09-.26.3-.49.45-.73.13.32.34.62.39.95.25 1.53.45 3.06.69 4.59.01.07.28.17.28.16.52-.74.99-1.51 1.55-2.21.2-.26.6-.41.94-.48.12-.03.47.32.47.5.07 1.63.09 3.26.13 4.89 0 .11.05.22.08.34.09-.04.23-.05.25-.12.18-.43.42-.86.5-1.32.24-1.35.39-2.72.62-4.08.03-.17.28-.39.46-.43.11-.02.38.23.42.39.39 1.5.74 3.02 1.11 4.52.04.17.12.32.18.48.16-.1.39-.16.45-.3.65-1.45 1.26-2.92 1.92-4.37.1-.21.35-.36.53-.54.21.29.61.6.59.88-.11 1.45.06 2.73 1.53 3.46.15.08.25.3.4.34.17.05.51.04.56-.06.83-1.77 1.6-3.56 2.44-5.33.1-.22.45-.33.68-.5.02.35.15.73.06 1.05-.4 1.34-.93 2.65-1.28 4.01-.09.35.31.82.48 1.23.07-.07.17-.13.21-.22.55-1.3 1.03-2.64 1.68-3.89.22-.43.85-.65 1.29-.97.07.47.15.95.2 1.42.01.15-.05.32-.11.47-.36.99-.53 1.97.09 2.93.04.06.05.13.08.2.03-.03.08-.05.1-.09.36-.79.65-1.61 1.07-2.37.65-1.17 1.32-2.3.69-3.72-.03-.07.36-.32.56-.49.28.4.68.77.81 1.21.43 1.51.75 3.06 1.13 4.58.04.18.15.35.23.52.1-.05.27-.08.3-.16.55-1.84 2.97-3.17 1.55-5.57-.11-.19.15-.59.24-.89.32.2.81.32.93.6.46 1.11.81 2.27 1.21 3.41.03.09.1.17.14.25.03-.08.08-.16.09-.25.21-1.61.38-3.22.63-4.83.06-.38.37-.72.57-1.08.24.14.61.22.69.42.6 1.53 1.12 3.1 1.73 4.63.18.47.56.86.85 1.28.18-.45.36-.91.55-1.36.05-.13.16-.25.19-.38.17-.83.5-1.68.43-2.49-.08-.87-.6-1.68-.82-2.55-.09-.37.09-.81.15-1.21.41.31.99.53 1.2.94.57 1.11.97 2.31 1.46 3.47.11.25.29.47.45.7.11-.26.27-.52.33-.79.23-1.12.45-2.25.62-3.39.07-.49.12-1.03 0-1.49-.2-.74-.58-1.43-.8-2.16-.05-.16.22-.42.34-.63.23.17.58.29.67.52.57 1.33 1.08 2.7 1.64 4.04.08.18.34.29.51.43.05-.23.16-.46.13-.68-.16-1.1-.35-2.19-.54-3.28-.25-1.45-.54-2.9-.77-4.36-.07-.43-.01-.88.04-1.31.01-.13.17-.25.26-.38.09.12.18.24.26.37.63 1.09 1.23 2.2 1.89 3.28.12.2.45.27.68.4.02-.11.08-.23.06-.33-.47-1.79-.91-3.6-1.35-5.41zm-47.31-42.9l-.37.09c.37 1.29.61 2.63 1.14 3.85.51 1.17 1.34 2.19 2 3.29.26.43.47.89.7 1.34.3-.51.6-1.02.89-1.54.06-.1.08-.24.08-.36.01-1.94 0-3.88.05-5.83.01-.25.31-.49.47-.73.22.17.51.3.66.53.9 1.41 1.75 2.85 2.64 4.26.12.19.39.28.6.39.03.01.19-.12.19-.18.03-2.3.1-4.8-1.66-6.42-2.65-2.43-5.24-4.82-7.02-7.98-.05-.09-.15-.14-.23-.21-.06.12-.17.23-.19.35-.17 1.58-.44 3.16-.44 4.74.01 1.47.32 2.94.49 4.41zm42.71 6.62c.44.08.64.19.79.14.59-.2 1.15-.48 1.74-.64.13-.04.54.32.53.48-.06.83-.22 1.66-.31 2.49-.02.17.11.35.17.52.09-.13.23-.25.27-.4.34-1.18.48-2.47 1.03-3.54.79-1.5 2.19-2.73 2.78-4.28 1-2.6 1.56-5.36 2.3-8.05.02-.09-.03-.2-.04-.3-.1.05-.21.08-.29.15-.36.34-.68.72-1.07 1.02-1.39 1.06-2.82 2.08-4.21 3.14-1.66 1.28-3.3 2.59-4.94 3.89-.57.45-1.15.9-1.69 1.38-.11.09-.09.33-.13.5.16-.02.33 0 .46-.07.6-.32 1.16-.71 1.78-.97.28-.12.78-.12.98.06.27.23.5.71.47 1.05-.12 1.06-.37 2.11-.62 3.43zm-2.83-7.64c.18.5.29.82.41 1.15.29-.23.59-.44.87-.68 1.6-1.37 3.17-2.78 4.8-4.12 1.52-1.25 3.09-2.43 4.63-3.65.06-.05.09-.14.13-.22-.06.01-.14 0-.19.02-1.31.6-2.68 1.09-3.91 1.82-1.67.99-3.29 2.09-4.8 3.3-.79.64-1.33 1.61-1.94 2.38zM72.75 49.11c.77-.35 1.66-.76 2.55-1.19.05-.02.06-.24.01-.3-.32-.35-.66-.67-.99-1.01-.07.15-.16.3-.19.46-.21 1.04-.54 2.07-1.89 1.4-.56-.28-.88-1.04-1.33-1.57-.12-.14-.38-.37-.43-.34-.38.25-.73.54-1.06.86-.07.07-.03.4.03.42 1.04.41 2.07.8 3.3 1.27zM53.59 11.25c-.03.01-.06.01-.09.02.04.07.07.16.12.22 1.44 1.38 2.86 2.77 4.33 4.11.21.19.65.13.98.18-.11-.28-.15-.66-.36-.82-1.61-1.24-3.26-2.44-4.9-3.65-.02-.02-.05-.04-.08-.06zm9.11 8.97c-.99-1.35-1.78-2.42-2.57-3.49-.04.04-.11.1-.1.11.7 1.06 1.41 2.12 2.12 3.17.02.06.13.06.55.21zm-5.28 26.84c-.21.33-.43.53-.4.67.05.22.28.4.43.6.21-.18.42-.35.62-.53-.18-.19-.35-.4-.65-.74zm30.75-.45c-.36-.24-.53-.44-.73-.47-.12-.02-.37.23-.37.37 0 .14.21.37.36.4.16.03.36-.13.74-.3zm-25.44-1.26c-.19.29-.28.43-.38.58.2.11.39.23.6.32.04.02.19-.11.18-.12-.1-.22-.22-.43-.4-.78zm31.5 5.08c.26.43.44.73.61 1.03.02-.05.08-.11.07-.14-.15-.32-.31-.63-.47-.93-.01-.01-.13.03-.21.04zm-1.56-7.17c-.14.07-.28.14-.42.2.09.05.19.16.27.15.2-.03.38-.11.57-.17-.12-.06-.25-.11-.42-.18z"/><path class="st1" d="M80.88 19.41c.55-.95 1.1-1.9 1.67-2.84.06-.1.23-.14.35-.21.04.15.07.29.11.44.16.55.36 1.1.48 1.66.13.64.15 1.29.28 1.93.12.58.31 1.15.47 1.73.4-.48.78-.97 1.19-1.44.7-.81 1.41-1.6 2.12-2.4.09.12.29.26.26.35-.49 1.8-.03 3.99-2.13 5.14-.14.08-.11.48-.16.74.24.03.53.16.71.07 1.47-.78 2.93-1.61 4.39-2.41.03-.02.15.04.15.04-.44 1.66-.91 3.31-1.32 4.97-.09.38-.01.81-.01 1.21.41-.12.94-.11 1.21-.38.68-.68.99-1.8 2.24-1.72.14.01.37.16.39.27.16.88.58 1.86.34 2.63-.28.92-1 1.83-1.76 2.45-.85.69-1.98 1.03-2.97 1.56-.09.05-.07.32-.1.49.45.07.95.3 1.33.17 1.41-.5 2.76-1.21 4.19-1.63.32-.09.91.68 1.35 1.09.05.05-.02.36-.12.44-.89.76-1.82 1.48-2.71 2.25-.29.25-.49.6-.73.9.42.15.83.36 1.27.43.41.06.96-.19 1.24 0 .47.33.77.9 1.15 1.37-.87.15-1.74.32-2.61.45-.12.02-.27-.2-.41-.22-.51-.05-1.02-.07-1.53-.07-.03 0-.14.35-.09.4.45.4.92.78 1.4 1.14.07.05.24-.03.31.02.49.36.97.73 1.44 1.11.05.05 0 .22 0 .33-.52-.01-1.05.03-1.57-.05-.85-.13-1.69-.34-2.53-.48-.08-.01-.33.34-.3.37.73.95 1.48 1.88 2.22 2.81.2.25.39.51.59.77-.33.21-.65.55-1.01.6-1.32.19-4.39-1.68-5-2.87-.24-.47-.72-.81-1.1-1.19-.01-.01-.27.13-.27.2-.09 1.33-.15 2.65-.23 3.98-.01.16-.1.32-.15.47-.13-.08-.3-.12-.39-.24-.54-.75-1.04-1.52-1.59-2.25-.28-.36-.65-.65-.99-.98-.14.36-.29.72-.43 1.09-.12.32-.21.64-.32.96-.17-.32-.36-.63-.5-.95-.15-.34-.17-.79-.41-1.03-.41-.41-.92-.77-1.45-.97-.13-.05-.57.57-.79.92-.59.96-1.13 1.95-1.73 2.9-.05.08-.64-.02-.65-.09-.17-1.12-.28-2.25-.4-3.38-.02-.2-.06-.39-.09-.58-.22.08-.57.1-.64.25-.37.8-.69 1.62-.98 2.45-.21.58-.34 1.19-.51 1.79-.03.09-.17.22-.19.21-.17-.08-.4-.17-.45-.31-.41-1.15-.77-2.31-1.17-3.47-.07-.21-.23-.4-.36-.59-.19.16-.45.28-.55.48-.54 1.02-1.03 2.06-1.57 3.07-.13.24-.37.41-.56.62-.14-.19-.37-.35-.42-.56-.48-1.82-.91-3.65-1.4-5.46-.09-.32-.41-.57-.63-.85-.16.28-.49.57-.46.84.09 1.13.36 2.24.39 3.37.01.36-.54.73-.84 1.1-.17-.18-.44-.33-.49-.53-.21-.99-.34-1.99-.54-2.97-.07-.33-.26-.63-.4-.94-.25.26-.6.48-.74.79-.72 1.55-1.36 3.14-2.09 4.69-.38.82-.86.55-1.2-.06-1.04-1.86-1.52-3.8-.64-5.88.08-.19-.05-.46-.08-.7-.22.12-.54.19-.65.38-.77 1.36-1.4 2.82-2.29 4.09-.42.59-1.33.84-2.01 1.24-.04.02-.1.02-.15.03.01-.06.02-.13.04-.18.44-.97.91-1.93 1.33-2.9.08-.18-.02-.43-.03-.64-.19.1-.41.17-.58.29-.97.71-1.92 1.46-2.91 2.14-.2.13-.58 0-.87-.02.04-.23.03-.49.13-.69.12-.27.36-.49.49-.75.26-.5.79-1.36.67-1.47-.51-.46-1.22-.7-1.86-1-.21-.1-.44-.12-.67-.18.15-.21.26-.47.46-.62 1.11-.83 2.25-1.63 3.37-2.46.1-.07.18-.36.15-.39-.25-.19-.65-.54-.8-.46-1.52.82-2.2-.71-3.27-1.12-.07-.03-.1-.51.01-.63.61-.66 1.25-1.3 1.92-1.9.16-.15.48-.19.72-.16.45.05.9.3 1.33.26.44-.04.87-.31 1.3-.48-.34-.39-.62-.94-1.05-1.14-.94-.44-1.98-.7-2.96-1.06-.18-.07-.31-.29-.46-.44.13-.05.27-.11.4-.16 1.4-.5 2.8-1.02 4.21-1.49.35-.11.77-.12 1.13-.04.43.08.82.34 1.25.43.07.02.4-.51.33-.63-.24-.41-.73-.71-.9-1.14-.48-1.21-.85-2.47-1.25-3.71-.01-.02.06-.07.09-.11.05.07.1.14.14.21 1 2.14 2.82 3.13 5.04 3.55.11.02.35-.08.35-.14.01-.2-.05-.4-.1-.6-.49-2.23-.97-4.46-1.45-6.7-.02-.1.04-.22.07-.34.08.11.19.2.24.32 1.08 2.33 2.78 3.99 5.27 4.73.34.1.73.01 1.1.01-.18-.26-.43-.5-.54-.79-.22-.57-.47-1.17-.5-1.77-.05-.81.09-1.64.15-2.46.01-.13.08-.25.12-.37.12.05.3.07.35.16.9 1.57 1.77 3.15 2.66 4.73.19.33.43.64.64.95.09-.38.24-.75.27-1.14.14-1.61-1.35-3.11-.34-4.77.09-.15.5-.27.65-.19.63.36 1.2.84 1.84 1.17.22.11.69.01.88-.17.16-.15.02-.56.1-.84.21-.75.46-1.49.69-2.24.36.41.74.81 1.09 1.22.56.64 1.01 1.52 1.71 1.84.34.15 1.18-.74 1.74-1.21.38-.32.69-.74 1.03-1.11.16.48.37.94.48 1.43.32 1.5.59 3.02.91 4.52.03.16.28.38.43.38.18 0 .48-.17.52-.33.23-.83.39-1.68.58-2.52-.19-.07-.36-.15-.52-.23zm-8.02 1.35c-.73.95-1.29 1.37-1.43 1.9-.44 1.76-.74 3.57-1.06 5.36-.04.21.12.44.19.67.18-.13.47-.23.52-.41.42-1.35.79-2.71 1.19-4.07.11-.36.26-.69.4-1.04.1.32.2.64.31.95.14.4.28.8.45 1.18.04.08.25.09.38.13.09-.66.36-1.35.24-1.97-.15-.77-.62-1.47-1.19-2.7zm12.78 4.54c-.11-.09-.26-.3-.47-.38-.93-.36-3.82.65-4.34 1.53-.08.13-.08.43 0 .5.13.11.41.18.56.11.71-.32 1.4-.7 2.1-1.04.13-.06.3-.07.45-.06.03 0 .11.18.09.21-.88 1.23.57 1.04.91 1.52.18.26.36.65.29.92-.11.45-.44.85-.64 1.28-.05.11.04.29.07.44.68-.4 1.43-.71 1.99-1.24.18-.17.02-1.12-.26-1.31-.86-.59-1.75-1.03-.77-2.22.03-.01.01-.05.02-.26zm1.79 12.41c-.16-.2-.49-.63-.83-1.07-.19.35-.33.75-.58 1.04-.14.16-.65.26-.71.18-.45-.63-.77-1.34-1.25-1.94-.19-.24-.68-.24-1.03-.34-.05.33-.19.68-.13.99.29 1.38 1.05 2.3 2.48 2.76 1.13.37 2.06-.07 2.05-1.62zM56.1 31.6c-.37.56-.9 1-.91 1.46-.02 1.04 2.96 3.78 4 3.81.24.01.48-.23.73-.35-.13-.24-.21-.55-.41-.72-1.02-.83-2.07-1.62-3.1-2.44-.1-.08-.11-.28-.15-.42.16-.04.34-.15.47-.11.58.2 1.15.47 1.73.67.16.05.36-.05.55-.08-.07-.16-.1-.42-.22-.48-.79-.43-1.6-.81-2.69-1.34z"/><path class="st1" d="M84.63 69.9c.05.72.21 1.5-.97.76-.32-.2-.96-.02-1.37.17-.12.05.05.74.09 1.14.01.1.05.2.08.3-.1-.01-.2-.01-.3-.04-.91-.24-1.82-.48-2.73-.73-.05-.01-.13-.06-.15-.04-1.4 1.29-3.27-.36-4.75.74-.23.17-.84-.25-1.26-.23-.73.03-1.45.23-2.17.3-.45.04-.92-.02-1.37-.04-.19-.01-.51-.11-.56-.04-.58.91-.93.48-1.32-.16-.11-.17-.41-.32-.61-.31-.15.01-.27.3-.43.45-.2.18-.42.34-.63.51-.28-.41-.58-.82-.84-1.25-.16-.26-.25-.56-.37-.84-.16.28-.3.58-.49.84-.43.6-.79 1.37-1.38 1.69-.34.18-1.08-.37-1.64-.6-.06-.03-.11-.13-.16-.13-2.07-.04-1.18-1.64-1.42-2.65-.05-.21-.21-.39-.32-.59-.14.16-.32.31-.43.49-.28.47-.53.96-.8 1.45 0-.45-.01-.89-.01-1.34 0-.76.17-1.61-1-1.69-.06 0-.16-.18-.14-.25.27-1.08.57-2.16.83-3.25.1-.43.13-.88.19-1.33-.39.15-.86.21-1.16.47-.61.52-1.11 1.14-1.68 1.71-.12.12-.31.17-.46.25.02-.14.01-.28.05-.42.22-.74.65-1.47.64-2.21-.02-1.71 1.43-2.62 1.94-4.01.1-.28-.26-.73-.41-1.1-.26.16-.58.28-.78.5-.97 1.03-1.91 2.08-2.87 3.12-.08.08-.24.09-.37.13.06-.1.14-.2.18-.31.57-1.59 1.11-3.19 1.69-4.77.29-.79.68-1.55.96-2.34.06-.17-.17-.44-.27-.67-.22.11-.49.18-.64.35-.65.74-1.26 1.51-1.91 2.25-.07.08-.28.03-.43.05 0-.31-.05-.63.02-.92.38-1.54.85-3.07 1.19-4.62.22-.99.2-2.04.42-3.03.07-.33.55-.56.85-.84.06.28.16.56.17.85.03.85-.22 1.8.1 2.51.26.59 1.11 1.09 1.79 1.29 2.54.73 4.92.4 6.8-1.65.29-.31.32-.86.55-1.24.29-.47.84-.83.96-1.32.28-1.06.3-1.04 1.12-.23 1.18 1.17.39 1.35-.39 2.09-1.18 1.13-2.06 2.56-3.01 3.91-.06.08.37.62.67.8.2.12.7.09.82-.06.45-.58.85-1.21 1.18-1.86 1.16-2.26 3.01-2.88 5.21-1.66 1.49.83 2.88.44 4.11-.42 1.6-1.12 4.56-.51 5.35 1.28.37.84.61 1.75.98 2.59.11.25.43.39.66.59.19-.3.59-.66.53-.89-.7-2.52-1.63-4.88-4.56-5.64-.21-.05-.5-.55-.45-.76.23-.91.57-1.79.89-2.67.05-.13.2-.23.31-.34.07.09.15.17.21.26.68 1 1.36 2.01 2.04 3.01.06.09.2.17.22.26.31 2.17 2.94 4.04 5.25 3.6 1.97-.38 3.83-.96 4.25-3.41.03-.16 1.29-.11 1.97-.16.01 0 .02.03.03.04.91 1.08.86 1.05.04 1.76-.28.24-.33.87-.3 1.32.02.34.32.66.5.99.14.28.28.57.42.85-.47-.07-.95-.09-1.41-.21-.83-.2-1.64-.47-2.47-.67-.08-.02-.34.28-.32.4.02.14.25.34.4.35 1.3.11 1.88 1.04 2.4 2.04.03.06-.06.25-.07.25-.27-.04-.54-.07-.79-.17-.22-.09-.42-.25-.63-.38-.02.24-.13.53-.04.72.59 1.3 1.23 2.58 1.84 3.87.06.13.06.29.09.44-.15-.03-.36-.02-.44-.11-.49-.53-.92-1.13-1.44-1.62-.36-.34-.84-.54-1.27-.8-.16.6-.61 1.3-.43 1.78.51 1.37 1.27 2.64 1.92 3.96.07.15.06.33.09.5-.14-.09-.3-.16-.41-.27-.75-.75-1.48-1.51-2.23-2.26-.07-.07-.35-.07-.36-.04-.07.18-.17.4-.12.57.45 1.64.93 3.27 1.39 4.9.04.13.03.27.04.41-.15-.03-.36-.02-.43-.11-.48-.63-.91-1.29-1.4-1.91-.18-.23-.62-.56-.67-.52-.34.28-.89.68-.85.98.14 1.21.49 2.39.72 3.6.02.1-.32.41-.38.38-1.41-.67-1.8-.01-1.68 1.31zM69.12 52.56c-3.61.16-6.77 3.55-5.75 7.17.04.16-.11.38-.18.57-.08.22-.29.57-.23.62 1.31 1.14 1.3 2.66 1.5 4.23.27 2.09.74 4.39 3.16 5.07 3.61 1.02 7.3 1.28 11.06.7 1.88-.29 3.52-.75 3.82-2.84.26-1.76.17-3.56.23-5.35.03-.74-.09-1.51.09-2.2.28-1.02 1.72-1.72.19-3.09-1.33-1.2-2.14-2.96-3.23-4.43-.88-1.19-2.41-1.37-3.59-.46-.74.57-1.4 1.26-2.16 1.82-.7.51-1.49.9-2.13-.11-.73-1.19-1.7-1.82-2.78-1.7zm-8.56 3.93c-.34.3-.88.54-.92.85-.15 1.04-.13 2.1-.18 3.15l1.45.06c-.14-.26-.29-.52-.41-.79-.05-.11-.09-.28-.04-.38.25-.6.53-1.19.77-1.8.08-.2.19-.49.11-.62-.11-.18-.39-.25-.78-.47zm-.01 10.93c.15.55.14.87.29.97.55.4 1.16.74 1.74 1.1l-.09-1.44c-.01-.09 0-.18-.04-.26-.2-.4-.41-.79-.62-1.18-.45.28-.89.56-1.28.81zm-1.39-13c.59-.34 1.34-.74 2.05-1.2.23-.15.36-.44.54-.67-.38-.05-.8-.24-1.13-.12-.63.22-1.21.59-1.79.93-.38.22-.73.48-1.1.73.38.07.74.16 1.43.33zm27.47-.88c-.14.42-.4.84-.3.96.48.57 1.04 1.09 1.64 1.54.06.05.55-.47.84-.73-.58-.46-1.15-.93-2.18-1.77zm.41 7.9c-.09-.28-.19-.57-.28-.85-.77-.11-1.53-.23-2.3-.33-.14-.02-.29.05-.43.07.11.23.15.58.33.68.56.31 1.16.6 1.78.76.25.07.6-.21.9-.33z"/><path class="st1" d="M96.52 60.87c.44 1.81.88 3.62 1.31 5.43.02.1-.04.22-.06.33-.23-.13-.56-.21-.68-.4-.66-1.07-1.26-2.18-1.89-3.28-.07-.13-.17-.25-.26-.37-.09.13-.25.25-.26.38-.04.44-.1.89-.04 1.31.23 1.46.52 2.91.77 4.36.19 1.09.38 2.18.54 3.28.03.22-.08.45-.13.68-.17-.14-.43-.25-.51-.43-.56-1.34-1.07-2.7-1.64-4.04-.1-.23-.44-.35-.67-.52-.12.21-.39.47-.34.63.23.73.61 1.42.8 2.16.12.47.07 1 0 1.49-.17 1.13-.39 2.26-.62 3.39-.06.27-.21.53-.33.79-.15-.23-.34-.45-.45-.7-.49-1.16-.89-2.35-1.46-3.47-.21-.41-.79-.63-1.2-.94-.06.41-.24.85-.15 1.21.22.87.74 1.68.82 2.55.07.81-.26 1.66-.43 2.49-.03.13-.13.25-.19.38-.19.45-.37.91-.55 1.36-.29-.42-.67-.81-.85-1.28-.61-1.53-1.13-3.1-1.73-4.63-.08-.2-.45-.28-.69-.42-.2.36-.51.7-.57 1.08-.25 1.6-.42 3.22-.63 4.83-.01.08-.06.16-.09.25-.05-.08-.11-.16-.14-.25-.39-1.14-.74-2.3-1.21-3.41-.12-.28-.61-.4-.93-.6-.09.3-.35.7-.24.89 1.42 2.41-1 3.73-1.55 5.57-.02.08-.19.11-.3.16-.08-.17-.19-.34-.23-.52-.37-1.53-.7-3.07-1.13-4.58-.13-.44-.53-.81-.81-1.21-.19.17-.59.42-.56.49.63 1.41-.04 2.55-.69 3.72-.42.75-.72 1.58-1.07 2.37-.02.04-.07.06-.1.09a.698.698 0 00-.08-.2c-.62-.96-.45-1.94-.09-2.93.05-.15.12-.31.11-.47-.05-.48-.13-.95-.2-1.42-.44.32-1.07.54-1.29.97-.64 1.25-1.13 2.59-1.68 3.89-.04.09-.14.15-.21.22-.17-.41-.57-.89-.48-1.23.35-1.35.88-2.66 1.28-4.01.09-.32-.03-.7-.06-1.05-.23.16-.58.27-.68.5-.83 1.77-1.61 3.56-2.44 5.33-.04.09-.38.11-.56.06-.15-.04-.25-.26-.4-.34-1.48-.73-1.64-2.01-1.53-3.46.02-.28-.38-.59-.59-.88-.18.18-.43.32-.53.54-.65 1.45-1.26 2.92-1.92 4.37-.06.14-.3.2-.45.3-.06-.16-.14-.32-.18-.48-.37-1.51-.72-3.02-1.11-4.52-.04-.17-.31-.42-.42-.39-.18.04-.43.26-.46.43-.23 1.35-.39 2.72-.62 4.08-.08.46-.32.89-.5 1.32-.03.06-.17.08-.25.12-.03-.11-.08-.22-.08-.34-.04-1.63-.05-3.26-.13-4.89-.01-.19-.35-.53-.47-.5-.34.07-.74.23-.94.48-.56.7-1.03 1.48-1.55 2.21-.01.01-.27-.09-.28-.16-.24-1.53-.44-3.06-.69-4.59-.05-.33-.26-.64-.39-.95-.15.24-.37.47-.45.73-.26.8-.42 1.64-.73 2.42-.09.22-.53.31-.8.45-.02-.24-.08-.5-.04-.73.28-1.6.58-3.19.86-4.78.01-.06-.12-.22-.16-.22-.19.04-.45.06-.55.19-.33.41-.59.89-.91 1.31-.18.23-.43.39-.66.58.05-.28.11-.56.15-.84.21-1.59.42-3.19.59-4.79.02-.16-.23-.35-.35-.52-.16.17-.34.32-.48.5-.32.41-.62.84-.93 1.26-.01-.65-.23-1.42.03-1.92.45-.86 1.23-1.55 1.84-2.34.17-.22.2-.53.29-.81-.27-.08-.54-.18-.82-.24-.07-.02-.16.05-.25.08-.75.27-1.5.53-2.25.8.2-.78.34-1.57.62-2.32.47-1.3 1.01-2.58 1.57-3.84.08-.19.39-.29.6-.42.08.19.27.43.21.58-.44 1.27-.95 2.53-1.38 3.81-.05.15.25.53.46.6.24.09.55-.04.83-.1.51-.09 1.02-.19 1.53-.29-.14.67-.24 1.35-.44 2-.21.67-.59 1.3-.73 1.97-.03.16.78.74.98.64 1.27-.62 1.7.01 1.83 1.11.15 1.22.1 2.47.4 3.65.12.47.92.77 1.41 1.15.18.14.51.23.54.39.14.96 1.12 1.39 2.01.97.37-.18.91.05 1.37.01.88-.06 1.75-.17 2.62-.27.25-.03.57-.16.73-.05.93.62 1.72.33 1.93-.74.01-.06.28-.14.36-.1.41.27.78.61 1.21.86.2.12.52.2.73.13.55-.18 1.07-.42 1.59-.68.91-.46 1.77-.76 2.75-.08.26.19.76.02 1.15.05.64.05 1.28.13 1.92.19.47.05 1.08.3 1.38.1 1.62-1.12 3.38-.32 5.05-.53.29-.04.78-.26.79-.43.05-.84.54-.72 1.14-.77 1.24-.1.85-.97.68-1.72-.07-.29-.03-.61-.04-.91.33.09.65.22.98.28.45.08.92.14 1.37.11.06 0 .12-.59.12-.91-.01-.35-.09-.7-.14-1.06-.05-.4-.1-.81-.14-1.21.4.25.81.49 1.2.76.36.24.67.59 1.06.75.27.11.74.08.94-.09.18-.15.23-.61.16-.89-.21-.92-.5-1.81-.76-2.72a4.57 4.57 0 01-.07-.36c.11.02.23.05.34.07.47.11.93.31 1.4.31.51 0 1.01-.18 1.52-.29-.18-.34-.37-.67-.54-1.01-.51-.99-1.02-1.99-1.52-2.99-.04-.07-.04-.16-.06-.24.08.02.16.03.24.05.8.29 1.58.61 2.39.86.2.06.58-.02.69-.18.11-.15.09-.52-.02-.71-.51-.89-1.06-1.75-1.6-2.63-.08-.13-.12-.29-.18-.43l.5.06c.31.04.61.07.92.11-.01-.29.03-.6-.03-.88-.09-.4-.16-.83-.38-1.16-.93-1.42.74-1.24 1.11-1.85.2.36.41.72.61 1.08.7 1.29 1.4 2.58 2.08 3.88.09.18.12.39.18.58-.16-.06-.34-.18-.49-.15-.18.04-.44.18-.47.32-.13.57-.19 1.15-.28 1.73-.07.02-.19.05-.3.09zM49.21 17.97c-.17-1.47-.48-2.94-.48-4.42 0-1.58.27-3.16.44-4.74.01-.12.12-.23.19-.35.08.07.18.12.23.21 1.78 3.16 4.37 5.56 7.02 7.98 1.76 1.62 1.69 4.12 1.66 6.42 0 .06-.16.19-.19.18-.21-.11-.48-.21-.6-.39-.89-1.41-1.75-2.85-2.64-4.26-.14-.22-.43-.35-.66-.53-.17.24-.47.48-.47.73-.05 1.94-.04 3.88-.05 5.83 0 .12-.02.26-.08.36-.29.52-.59 1.03-.89 1.54-.23-.45-.44-.91-.7-1.34-.67-1.1-1.49-2.12-2-3.29-.53-1.22-.77-2.56-1.14-3.85.11-.02.23-.05.36-.08zm.2-3.62c.06 3.5.53 5.26 2.65 9.53.18.37.6.62.91.93.11-.51.43-1.1.28-1.53-.58-1.65-1.44-3.2-1.94-4.87-.54-1.8-.8-3.69-1.21-5.54-.05-.21-.26-.39-.4-.58-.1.2-.26.4-.28.61-.04.48-.01.97-.01 1.45zM91.92 24.59c.25-1.32.5-2.37.62-3.43.04-.34-.2-.81-.47-1.05-.2-.18-.7-.18-.98-.06-.62.26-1.18.65-1.78.97-.13.07-.31.05-.46.07.04-.17.03-.41.13-.5.55-.48 1.12-.93 1.69-1.38 1.64-1.3 3.28-2.61 4.94-3.89 1.39-1.07 2.82-2.08 4.21-3.14.39-.3.71-.68 1.07-1.02.08-.07.19-.1.29-.15.02.1.07.21.04.3-.74 2.69-1.31 5.46-2.3 8.05-.59 1.55-1.99 2.78-2.78 4.28-.56 1.07-.69 2.35-1.03 3.54-.04.15-.18.27-.27.4-.06-.18-.19-.36-.17-.52.09-.83.26-1.65.31-2.49.01-.16-.39-.51-.53-.48-.6.16-1.16.44-1.74.64-.14.05-.35-.06-.79-.14zm2.27-1.94c.19.49.23.8.35.83.17.05.51-.04.59-.18.34-.62.57-1.3.93-1.91 1.03-1.75 2.11-3.45 3.12-5.21.11-.2-.15-.61-.24-.92-.26.2-.62.35-.77.61-.84 1.51-1.59 3.07-2.45 4.57-.46.82-1.07 1.55-1.53 2.21zM89.09 16.95c.61-.77 1.15-1.74 1.95-2.38 1.51-1.21 3.13-2.31 4.8-3.3 1.23-.73 2.6-1.22 3.91-1.82.06-.03.13-.02.19-.02-.05.07-.07.17-.14.22-1.54 1.22-3.12 2.4-4.63 3.65-1.63 1.34-3.2 2.75-4.8 4.12-.28.24-.58.46-.87.68-.12-.32-.23-.65-.41-1.15zM72.75 49.11c-1.23-.47-2.26-.85-3.28-1.27-.06-.03-.1-.36-.03-.42.33-.32.68-.61 1.06-.86.05-.03.31.19.43.34.44.53.76 1.29 1.33 1.57 1.35.67 1.67-.36 1.89-1.4.03-.16.13-.3.19-.46.33.33.67.66.99 1.01.05.05.03.27-.01.3-.9.42-1.8.83-2.57 1.19zM53.59 11.25l.09.06c1.64 1.21 3.28 2.41 4.9 3.65.21.16.24.54.36.82-.33-.05-.77.01-.98-.18-1.47-1.34-2.89-2.73-4.33-4.11-.06-.06-.08-.15-.12-.22.02-.01.05-.01.08-.02zM62.7 20.22c-.42-.15-.53-.16-.56-.21-.71-1.05-1.42-2.11-2.12-3.17-.01-.01.07-.08.1-.11.79 1.07 1.58 2.15 2.58 3.49zM57.42 47.06c.3.34.47.54.65.74-.21.18-.42.35-.62.53-.15-.2-.38-.38-.43-.6-.03-.14.19-.34.4-.67zM88.17 46.61c-.38.16-.57.33-.74.3-.15-.02-.36-.26-.36-.4 0-.13.26-.38.37-.37.2.03.37.23.73.47zM62.73 45.35c.18.35.3.56.41.79.01.01-.15.14-.18.12-.21-.09-.4-.21-.6-.32.08-.16.18-.31.37-.59zM94.23 50.43c.08-.02.2-.06.21-.04.17.31.33.62.47.93.01.03-.04.09-.07.14-.17-.29-.35-.59-.61-1.03zM92.67 43.26c.17.07.3.13.42.18-.19.06-.38.15-.57.17-.08.01-.18-.1-.27-.15.14-.07.28-.14.42-.2z"/><path d="M72.86 20.76c.57 1.24 1.04 1.94 1.19 2.7.12.62-.14 1.31-.24 1.97-.13-.04-.34-.05-.38-.13-.18-.38-.31-.78-.45-1.18-.11-.31-.21-.63-.31-.95-.13.35-.29.69-.4 1.04-.4 1.36-.77 2.72-1.19 4.07-.05.17-.34.27-.52.41-.07-.22-.22-.46-.19-.67.32-1.79.62-3.59 1.06-5.36.13-.53.69-.95 1.43-1.9zM85.64 25.3c-.01.21 0 .25-.02.28-.99 1.18-.1 1.62.77 2.22.28.19.44 1.14.26 1.31-.56.52-1.31.84-1.99 1.24-.03-.15-.12-.33-.07-.44.2-.44.52-.83.64-1.28.07-.27-.11-.66-.29-.92-.34-.49-1.79-.29-.91-1.52.03-.04-.06-.21-.09-.21-.15 0-.32 0-.45.06-.7.34-1.39.72-2.1 1.04-.15.07-.43 0-.56-.11-.09-.07-.08-.37 0-.5.52-.87 3.41-1.89 4.34-1.53.21.06.37.27.47.36zM87.43 37.71c.01 1.55-.93 1.98-2.05 1.62-1.44-.47-2.19-1.38-2.48-2.76-.06-.31.08-.66.13-.99.35.11.84.1 1.03.34.48.59.81 1.31 1.25 1.94.06.08.57-.02.71-.18.26-.29.4-.69.58-1.04.34.44.68.87.83 1.07zM56.1 31.6c1.1.53 1.9.91 2.69 1.32.12.06.15.32.22.48-.18.03-.39.14-.55.08-.59-.2-1.15-.47-1.73-.67-.13-.04-.31.07-.47.11.05.14.05.34.15.42 1.03.82 2.08 1.61 3.1 2.44.2.16.28.47.41.72-.24.12-.49.36-.73.35-1.05-.02-4.03-2.77-4-3.81.01-.43.54-.88.91-1.44zM69.12 52.56c1.08-.12 2.05.52 2.78 1.68.63 1.02 1.43.63 2.13.11.76-.56 1.41-1.24 2.16-1.82 1.18-.91 2.71-.73 3.59.46 1.09 1.47 1.9 3.23 3.23 4.43 1.53 1.38.09 2.07-.19 3.09-.19.69-.07 1.47-.09 2.2-.06 1.78.03 3.59-.23 5.35-.31 2.08-1.94 2.54-3.82 2.84-3.76.59-7.45.33-11.06-.7-2.41-.68-2.89-2.98-3.16-5.07-.2-1.56-.19-3.09-1.5-4.23-.06-.05.15-.41.23-.62.07-.19.22-.41.18-.57-1.02-3.61 2.14-6.99 5.75-7.15zm-3.09 12.61c-.06 2.19 1.56 4.08 3.67 4.15 2.89.09 5.8.09 8.69-.02.69-.03 1.86-.53 1.96-1 .42-1.94.52-3.95.74-5.94 0 0-.14-.05-.17-.02-.77.74-1.56 1.47-2.3 2.24-.78.82-1.37 2.1-2.31 2.45-1.26.47-2.83.49-4.18.23-2.31-.45-3.56-2.58-5.31-3.93-.18-.14-.48-.15-.72-.16-.06 0-.18.24-.17.37.01.54.06 1.09.1 1.63zm6.41-4.32c-.09-1.26-.14-2.25-.22-3.24-.03-.38-.01-1.04-.17-1.09-1.36-.44-2.74-.91-4.15-1.07-.58-.06-1.28.58-1.86 1-.47.34-1.15.79-1.2 1.25-.12 1.21-.42 2.61 1.05 3.38.72.37 1.4.86 2.16 1.08 1.26.37 2.57.6 3.86.83.14.02.49-.35.52-.57.06-.6.01-1.22.01-1.57zm1.84-1.63l-.18.03c0 1.02-.18 2.09.05 3.05.23.92 3 1.15 3.77.41.78-.75 1.65-1.44 2.26-2.32.55-.78 1.03-1.74 1.13-2.67.19-1.69-2-1.58-2.48-2.86-.06.03-.11.08-.18.09-.41.11-.9.42-1.21.29-1.18-.5-2.12.01-2.84.74-.43.43-.55 1.25-.64 1.92-.06.43.2.88.32 1.32zM49.41 14.35c0-.48-.03-.96.01-1.44.02-.21.18-.41.28-.61.14.19.35.37.4.58.41 1.85.66 3.74 1.21 5.54.5 1.67 1.36 3.22 1.94 4.87.15.43-.17 1.02-.28 1.53-.31-.31-.72-.56-.91-.93-2.12-4.29-2.59-6.05-2.65-9.54zM94.19 22.65c.47-.66 1.07-1.39 1.54-2.21.85-1.5 1.61-3.06 2.45-4.57.15-.26.51-.41.77-.61.09.31.35.73.24.92-1 1.76-2.09 3.47-3.12 5.21-.36.61-.59 1.29-.93 1.91-.08.14-.42.23-.59.18-.13-.03-.17-.34-.36-.83z"/><path class="st1" d="M66.03 65.17c-.04-.55-.09-1.09-.11-1.64 0-.13.12-.37.17-.37.24.01.54.02.72.16 1.75 1.35 3 3.48 5.31 3.93 1.35.26 2.92.23 4.18-.23.94-.35 1.52-1.62 2.31-2.45.74-.77 1.52-1.5 2.3-2.24.03-.03.17.02.17.02-.21 1.99-.31 4-.74 5.94-.1.47-1.26.98-1.96 1-2.89.11-5.79.11-8.69.02-2.1-.05-3.72-1.95-3.66-4.14z"/><path class="st1" d="M72.44 60.85c0 .35.05.97-.03 1.58-.03.22-.37.59-.52.57-1.3-.23-2.6-.45-3.86-.83-.76-.23-1.44-.71-2.16-1.08-1.47-.76-1.18-2.16-1.05-3.38.05-.46.73-.91 1.2-1.25.58-.42 1.28-1.06 1.86-1 1.41.15 2.79.62 4.15 1.07.16.05.14.71.17 1.09.1.99.16 1.98.24 3.23zM74.28 59.22c-.12-.43-.38-.89-.32-1.3.09-.67.21-1.49.64-1.92.72-.73 1.66-1.24 2.84-.74.31.13.8-.18 1.21-.29.06-.02.12-.06.18-.09.48 1.27 2.67 1.16 2.48 2.86-.1.93-.58 1.89-1.13 2.67-.61.87-1.48 1.57-2.26 2.32-.77.74-3.55.51-3.77-.41-.24-.96-.05-2.03-.05-3.05.06-.03.12-.04.18-.05z"/></g><path d="M77.06 74.06l.99 1.44c.27.4 1.17.25 1.54.16.48-.13 1.08-.4 1.25-.91.2-.57.39-1.15.59-1.72.27-.8-1.36-.62-1.64-.54-.63.17-1.2.41-1.77.71-.38.2-.81.73-.35 1.06.47.35 1.34.19 1.82-.04.49-.23.9-.48 1.32-.81.33-.26.43-.73-.01-.94-2.08-.97-5.06-.18-6.33 1.76.9-.18 1.8-.36 2.69-.54-.73-.76-1.27-1.48-2.42-1.44-.58.02-1.17.2-1.67.5-.17.1-.37.22-.51.36-.22.21.08.02-.18.11l1.92.03c-.53-.86-1.61-1.06-2.55-.93-.58.08-1.17.28-1.66.61-.31.2-.69.73-.85.85.45-.19.91-.38 1.36-.56l-.18.03c.23 0 .46.01.69.01-.72-.16-1.42-.41-2.12-.61-.64-.19-1.57.11-2.05.55-.48.44-.3.85.27 1.02 1.1.33 2.22.84 3.39.53.48-.13 1.17-.46 1.39-.97.17-.39-.73.3-.8.16.06.13.34.3.44.46.33.53 1.53.16 1.92.03.28-.1.54-.24.79-.41.13-.09.27-.18.39-.28.23-.21-.18.23-.77.17l-.59-.12c.45.16.8.71 1.13 1.05.62.64 2.26.12 2.69-.54.12-.19.24-.35.43-.48.01-.01.28-.13.13-.08.16-.06.11-.03.24-.02.15.02.34.08.53.16 0-.31-.01-.63-.01-.94-.02.01-.19.12-.14.1l1.47 1.02c.15-.08.2-.07.36-.12-.55-.18-1.1-.36-1.64-.54-.2.57-.39 1.15-.59 1.72l2.79-.75-.99-1.44c-.57-.81-3.38.15-2.71 1.13z"/><path d="M69.25 72.72c-.06-.04-.13-.07-.2-.1-.14-.05-.29-.11-.44-.14-.37-.06-.72-.07-1.09-.03-.56.06-1.09.24-1.61.44-.17.06-.32.15-.46.27-.13.08-.23.19-.32.31-.11.19-.16.45.01.63.06.05.13.1.19.14.19.09.39.13.59.13.4.01.77-.08 1.14-.22.07-.03.15-.05.22-.08-.13.04-.25.09-.38.13.15-.05.3-.1.45-.13-.13.03-.26.05-.39.08.09-.02.18-.03.28-.03-.12.01-.24.01-.37.02.07 0 .15 0 .22.01-.11-.01-.22-.03-.33-.04.07.01.14.03.21.05l-.27-.09c.08.03.15.06.22.11.14.07.28.11.43.11.18.03.35.03.53 0 .2-.02.39-.07.58-.14.18-.05.35-.13.51-.23l.26-.2c.14-.12.23-.26.28-.44v-.22c-.01-.16-.11-.27-.26-.34z"/><path class="st1" d="M73.83 72.85c-.18-.02-.3-.1-.34-.25.02.04.04.09.06.13.05.11.1.24.18.34.29.37.76.48 1.2.46.6-.01 1.24-.22 1.67-.65.1-.1.19-.22.26-.35.02-.04.03-.08.05-.11.1-.18.01-.09-.29.27.28-.15.54-.47.53-.79-.01-.34-.29-.5-.59-.59-.73-.23-1.54.01-2.17.38.62.35 1.23.7 1.85 1.05.16-.11-.04.03-.09.04.04-.01.12-.08.16-.07-.03-.01-.34.11-.13.05.22-.06-.12 0-.13.02.03-.03.14-.01.18-.02-.06 0-.13 0-.19.01h.09c.03 0 .06.01.09.01-.05-.01-.1-.02-.15-.02.01.02.15.04.18.04.87.22 1.72.32 2.57-.07.18-.08.36-.18.53-.3.36-.25.46-.19-.55-.05-.8.11-1 .01-.66.17a2.09 2.09 0 00.89.21c.99.04 1.98-.37 2.57-1.17.14-.2.12-.5-.03-.68-.17-.21-.54-.31-.8-.32-.72-.03-1.47.24-1.9.83.22-.3.61-.45.98-.48.14-.01.27 0 .4.03.16.07.18.08.05.01-.4-.22-.83-.28-1.28-.22-.51.06-1 .26-1.42.56-.42.3-.16-.08.59-.13.22 0 .26 0 .11-.01.16.03.2.03.1.01-1.34-.44-2.8-.26-3.98.51-.43.28-.83.96-.21 1.28.64.34 1.48.12 2.06-.23.02-.01.05-.03.07-.04-.23.1-.47.21-.7.31l-.78.03-.06-1.39c-.22.12-.44.34-.56.55-.02.04-.04.07-.05.11-.06.13-.12.13.05-.03.19-.13.39-.26.58-.39-.02.01-.03.02-.05.03l.77-.21c-.02 0-.04.01-.06.01.23.01.46.03.7.04.29.22.38.26.25.12.01.03.03.05.04.08-.05-.1-.09-.2-.15-.3-.16-.29-.41-.44-.73-.53-.65-.19-1.59.05-2.05.55-.16.18-.36.44-.27.7.08.25.3.38.56.46zM84.05 64.86c.7.8 1.33 1.66 1.87 2.57.5.85.93 1.74 1.63 2.45.5-.51 1-1.02 1.5-1.52h-.09c.23.02.47.03.7.05.19.04.06.03-.02-.03-.07-.05-.13-.1-.2-.15l-.39-.3c-.11-.08-.21-.16-.32-.24-.06-.04-.11-.09-.17-.13.11.09.03.03-.03-.03-.2-.18-.4-.36-.57-.57-.09-.11-.16-.23-.24-.34.05.07.03.07 0-.01s-.06-.15-.09-.23l-2.9.78c.44 1.15 1.05 2.24 1.79 3.23.62-.51 1.25-1.02 1.87-1.53.35.05-.09-.04-.19-.07-.27-.09.19.11-.06-.03-.07-.04-.13-.07-.2-.1-.13-.07-.25-.17-.37-.25-.09-.06.09.09-.04-.03-.07-.06-.13-.12-.2-.19-.47-.46-.83-1.02-1.16-1.58-.13-.23-.58-.31-.8-.33-.36-.03-.81.05-1.14.21-.51.25-1.08.72-.73 1.32.38.64.79 1.27 1.35 1.77.73.64 1.51.99 2.47 1.14.53.08 1.2-.17 1.59-.5.31-.25.56-.66.28-1.03-.34-.45-.65-.92-.92-1.41-.03-.06-.06-.12-.1-.17.05.08-.01-.03-.03-.05-.06-.12-.12-.24-.17-.36-.13-.27-.24-.54-.35-.82-.24-.62-1.14-.62-1.68-.46-.34.1-.72.25-.96.52-.16.18-.36.45-.26.72.25.71.72 1.25 1.29 1.72.32.27.66.52.99.77.14.11.28.23.43.32.4.24.82.26 1.28.24.47-.02 1.02-.25 1.35-.6.22-.23.43-.65.15-.93-.7-.71-1.13-1.6-1.63-2.45-.54-.91-1.17-1.77-1.87-2.57-.45-.51-1.4-.38-1.94-.12-.4.2-1.19.79-.72 1.32z"/><path class="st1" d="M79.41 71.42c.2.97.26 1.97.16 2.95-.02.18.46.23.52.24.29.02.58-.02.87-.09.31-.07.63-.16.91-.31.09-.05.18-.1.27-.16.13-.08.24-.19.31-.32.15-.65.27-1.32.36-1.98l-2.88.63c.34.96.8 1.96 1.87 2.26.24.07.5.05.75.02.32-.04.65-.11.95-.23.21-.08.42-.18.61-.3.06-.04.43-.31.33-.47-.57-.91-1.02-1.88-1.36-2.9-.06-.19-.37-.22-.52-.24-.34-.03-.74.04-1.06.13-.34.1-.7.21-.99.42-.13.09-.39.27-.33.47.33 1.02.79 1.99 1.36 2.9.88-.32 1.76-.65 2.63-.97-.08-.02-.15-.05-.22-.08.06.03.12.05.18.08-.3-.14-.55-.36-.75-.63l.09.12c-.3-.41-.47-.88-.64-1.36-.07-.19-.36-.23-.52-.24-.29-.02-.58.02-.87.09-.31.07-.63.16-.91.31-.09.05-.18.1-.27.16-.13.08-.24.19-.31.32-.08.67-.2 1.33-.36 1.98l2.88-.63c.09-.99.04-1.98-.16-2.95-.04-.19-.39-.23-.52-.24-.34-.03-.74.04-1.06.13-.34.1-.7.21-.99.42-.14.11-.37.26-.33.47zM67.06 71.98c.53 1.3 1.15 2.56 1.82 3.79.07.05.13.1.2.16.14.08.28.12.43.13.3.05.63.03.92-.06.49-.14 1.1-.43 1.24-.97.12-.48.26-.94.44-1.4-.03.08-.06.16-.09.23.23-.57.51-1.12.84-1.65.12-.19.15-.49-.02-.67-.21-.22-.51-.28-.8-.31-1.02-.11-2.28.31-2.95 1.11-.25.3-.48.65-.49 1.06-.01.46.15.8.55 1.05.23.14.52.16.78.15.32-.01.66-.07.95-.21.43-.2.92-.54.85-1.07-.03-.28-.07-.55-.1-.83-.03-.28-.03-.59-.22-.81-.42-.48-1.23-.45-1.79-.29-.49.14-.95.37-1.31.73-.17.17-.34.44-.27.69.07.25.35.41.58.46.68.16 1.55-.05 2.05-.55.19-.19-.19.13-.1.07.1-.06.02-.02-.22.12-.4.17-.8.22-1.23.14-.09-.03-.18-.07-.27-.1.01.01.02.01.03.02a2.8 2.8 0 01-.2-.16c.02.02.04.03.06.06-.04-.07-.07-.14-.11-.2.1.19.08.45.11.66l.09.76c.86-.38 1.73-.76 2.59-1.14a2.8 2.8 0 01.13.11c-.04-.04-.07-.08-.1-.12.04.07.07.14.11.2a.681.681 0 01-.07-.28c0 .08 0 .15.01.23 0-.12.02-.23.07-.35-.03.08-.06.16-.09.23.04-.09.09-.17.15-.25-.06.08-.12.15-.18.23.03-.04.07-.08.1-.12.04-.04.17-.15-.01 0-.19.15-.05.05 0 .01.18-.13-.34.17-.14.08.2-.09-.37.11-.21.07.23-.06-.2.03-.22.03.16-.01.18.03-.16 0 .05.01.1 0 .15.01-.27-.33-.55-.65-.82-.98-.63 1.01-1.09 2.12-1.37 3.28l2.79-.75c-.04-.08-.09-.16-.13-.24.04.07.07.14.11.2-.59-1.09-1.11-2.2-1.58-3.34-.25-.61-1.14-.59-1.67-.43-.34.1-.71.25-.96.51-.16.18-.37.45-.27.7zM74.03 72.87c.15.55.31 1.1.46 1.65.86-.39 1.72-.77 2.58-1.16-.08-.04-.16-.08-.23-.14l.2.17c-.1-.09-.19-.2-.25-.32.04.07.08.14.11.22-.18-.35-.23-.75-.25-1.14-.02-.25-.4-.45-.59-.5-.3-.08-.6-.07-.9-.02-.31.06-.64.16-.9.35-.09.07-.17.14-.26.21-.14.13-.23.3-.27.48.03.81.15 1.59.44 2.35.93-.33 1.86-.66 2.78-.99-.05-.09-.1-.17-.14-.26.04.07.08.14.11.22-.35-.66-.59-1.38-.71-2.12-.04-.26-.37-.43-.59-.5-.33-.1-.77-.08-1.09.02-.34.1-.72.25-.96.53-.19.21-.31.43-.26.73.15.92.5 1.78.97 2.59.09.11.2.18.34.23.15.07.3.11.47.11.33.02.64-.03.95-.14.27-.1.57-.24.77-.46.16-.18.36-.46.26-.73-.25-.66-.4-1.36-.43-2.07 0 .08.01.16.01.24v-.04c-.97.18-1.94.35-2.91.53.05.76.27 1.65 1.05 1.99.09.04.18.08.27.11.17.05.34.07.51.05.32 0 .66-.07.96-.21.21-.1.41-.23.58-.39.18-.17.33-.47.26-.73-.15-.55-.31-1.1-.46-1.65-.07-.27-.34-.43-.59-.5-.33-.1-.77-.08-1.09.02-.34.1-.72.25-.96.53-.16.22-.32.47-.24.74z"/><path class="st1" d="M74.96 72.47c.3.59.59 1.18.89 1.78.13.25.29.37.57.44.33.09.76.05 1.09-.04.34-.1.71-.24.96-.51.16-.16.37-.42.28-.67-.11-.28-.2-.56-.21-.86v.22c0-.15.02-.29.08-.44-.03.08-.06.15-.1.23.03-.05.05-.1.09-.15l-2.81.33c.34.74.77 1.44 1.28 2.07.52.64 1.13 1.18 1.8 1.68.14.11.42.13.6.14.32.02.65-.05.95-.15.45-.16.88-.42 1.05-.89.09-.25.13-.49.14-.76 0-.27-.06-.43-.31-.57-.27-.15-.67-.17-.96-.13-.38.05-.78.16-1.1.38-.2.14-.54.38-.54.65 0 .26-.05.51-.14.76.87-.3 1.73-.6 2.6-.9l-.1-.07c.07.05.13.1.2.15-.98-.75-1.8-1.7-2.4-2.78.04.07.07.13.11.2-.1-.18-.19-.36-.28-.55-.1-.2-.22-.32-.44-.39-.26-.1-.55-.12-.83-.08-.58.08-1.19.31-1.54.8-.41.58-.28 1.28-.05 1.9l2.9-.78c-.3-.59-.59-1.18-.89-1.78-.13-.25-.29-.37-.57-.44-.33-.09-.76-.05-1.09.04-.34.1-.71.24-.96.51-.14.15-.39.43-.27.66z"/><path class="st1" d="M82.59 74.34c-.06-.27-.26-.51-.4-.74-.13-.24-.26-.49-.37-.74-.23-.52-.41-1.06-.54-1.61-.04-.17-.4-.17-.5-.18-.34-.01-.73.06-1.06.15-.34.1-.7.2-.99.39-.12.08-.39.22-.35.4.13.55.31 1.09.54 1.61.11.25.24.5.37.74s.34.48.4.74c.04.17.41.17.5.18.34.01.73-.06 1.06-.15.34-.1.7-.2.99-.39.13-.08.39-.22.35-.4zM61.77 71.87c-.11.56-.2 1.12-.32 1.67-.06.26-.13.52-.25.75-.02.04-.05.09-.08.13-.01.02-.07.09-.02.04 0 0-.16.18-.06.08.05-.03.06-.04.01-.01-.34.21-.01.1 1-.34.39.04.78.09 1.18.13a.334.334 0 01-.01-.17c-.01.04-.01.09-.02.13.09-.45.24-.88.29-1.34.05-.46.03-.91-.01-1.37-.02-.17-.43-.19-.51-.19-.29-.01-.58.04-.86.1-.31.07-.63.16-.91.3-.2.1-.5.22-.6.44-.48 1.08-.99 2.22-1.82 3.03l2.76-.51c.16-1.24.33-2.48.49-3.72.02-.16-.47-.19-.51-.19-.29-.01-.58.04-.86.1-.31.07-.63.16-.91.3-.19.09-.52.22-.6.44-.43 1.15-.79 2.56-1.74 3.33l2.62-.24c.7-.64 1.18-1.45 1.57-2.3.42-.93.77-1.9 1.16-2.85.19-.47-.98-.29-1.15-.26-.38.07-.76.17-1.1.34-.19.1-.51.22-.6.44-.37.92-.72 1.86-1.12 2.77-.35.79-.75 1.54-1.36 2.1-.48.44.43.48.68.45.66-.07 1.41-.26 1.94-.69 1.1-.89 1.5-2.34 1.97-3.61-.96.22-1.92.43-2.88.65-.16 1.24-.33 2.48-.49 3.72-.02.13.31.17.38.18.26.03.54 0 .79-.05.52-.1 1.19-.25 1.58-.64.95-.93 1.52-2.12 2.06-3.32-.96.22-1.92.43-2.88.65.05.55.06 1.11-.02 1.66.01-.04.01-.09.02-.13-.04.21-.08.41-.15.62-.06.2-.13.4-.1.61.06.33 1.02.16 1.18.13 1.02-.2 2.23-.61 2.65-1.66.13-.34.19-.7.26-1.05.07-.39.15-.77.22-1.16.04-.19-.04-.24-.24-.29-.27-.07-.65-.02-.92.03-.38.07-.76.17-1.1.34-.18.07-.58.23-.61.43z"/><path class="st1" d="M62.27 70.78c-.34.84-.32 1.76-.27 2.64.05.89.19 1.78.41 2.65.06.25.35.39.58.45.33.09.76.05 1.09-.04.34-.1.71-.24.96-.51.17-.18.34-.41.27-.68-.26-1.02-.41-2.06-.43-3.11 0 .08 0 .15.01.23-.01-.67.05-1.33.3-1.96.09-.23-.14-.48-.31-.58-.27-.15-.67-.17-.96-.13-.68.09-1.39.38-1.65 1.04zM89.01 56.13c1.02 2.61 2.79 4.83 5.15 6.36.55.36 1.4.13 1.71-.45.33-.62.14-1.33-.45-1.71-.24-.15-.53-.31-.73-.51.1.1.14.11.01 0l-.17-.14a11.338 11.338 0 01-1.56-1.57l-.11-.14c-.19-.24.16.22-.02-.03a10.592 10.592 0 01-.71-1.07 9.66 9.66 0 01-.42-.78c-.07-.13-.13-.27-.19-.4-.07-.15-.07-.11 0 .01-.04-.08-.07-.17-.1-.25-.24-.61-.85-1.1-1.54-.87-.59.21-1.13.9-.87 1.55z"/><path class="st1" d="M88.83 56.03c.65 2.23 1.83 4.28 3.44 5.96.45.47 1.32.49 1.77 0 .47-.51.48-1.26 0-1.77a6.91 6.91 0 01-.51-.57c-.08-.09-.15-.18-.23-.28-.04-.05-.09-.14-.14-.18.06.05.12.17.03.04-.3-.41-.59-.84-.84-1.28-.25-.43-.46-.87-.67-1.33-.07-.16.11.29 0 .01a1.22 1.22 0 00-.07-.17c-.04-.11-.09-.22-.13-.34-.09-.25-.17-.51-.25-.77-.18-.63-.89-1.08-1.54-.87-.62.22-1.05.88-.86 1.55z"/><path d="M13.87 97l-1.61.46c-.21.06-.39.09-.53.08s-.28-.05-.41-.13c-.13-.08-.27-.2-.42-.35-.42-.43-.76-.86-1.02-1.3-.26-.43-.47-.93-.62-1.48-.18-.64-.25-1.26-.2-1.85.05-.59.21-1.12.48-1.6s.65-.9 1.13-1.25 1.05-.62 1.72-.81c.65-.18 1.28-.26 1.88-.21.6.04 1.14.2 1.62.47.48.27.9.65 1.26 1.13s.63 1.07.82 1.76c.16.57.23 1.09.2 1.56-.03.48-.12.88-.27 1.22s-.34.61-.55.82c-.22.21-.42.34-.62.4a.77.77 0 01-.61-.08.84.84 0 01-.39-.51c-.04-.12-.04-.25-.01-.38s.08-.25.16-.35c.27-.3.47-.55.59-.74s.21-.43.26-.71.01-.61-.09-.99c-.11-.39-.28-.72-.5-1-.22-.27-.49-.48-.81-.63-.32-.15-.68-.23-1.09-.24-.41-.01-.84.05-1.29.18-.98.28-1.68.72-2.08 1.32-.4.6-.49 1.31-.26 2.12.11.39.27.75.47 1.06.2.32.45.62.74.93l1.36-.38-.37-1.32c-.09-.32-.11-.57-.06-.76.05-.19.19-.32.42-.38a.63.63 0 01.52.07c.16.1.27.27.34.5l.55 1.93c.07.24.1.44.11.62 0 .18-.05.33-.17.48-.16.14-.36.25-.65.34zM15.17 100.13l3.77-1.84c.32-.16.6-.2.83-.14s.4.22.52.45c.12.25.13.48.04.7-.09.22-.3.41-.62.57l-3.86 1.88c-.44.21-.78.44-1.03.68-.25.24-.39.53-.43.86-.04.33.05.72.27 1.17.3.62.68.98 1.14 1.07.46.1 1.02-.02 1.69-.35l3.89-1.89c.32-.16.6-.21.83-.14.23.07.4.22.52.46.12.24.13.47.04.7s-.29.42-.62.58l-3.77 1.84c-.61.3-1.15.49-1.62.57-.47.08-.94.03-1.41-.15-.4-.16-.76-.39-1.06-.71-.3-.32-.58-.73-.83-1.24-.29-.6-.48-1.15-.56-1.65-.08-.5-.05-.95.09-1.36.14-.41.39-.78.75-1.12s.84-.65 1.43-.94zM20.11 113.54l3.65-4.42-4.85 3.57c-.27.2-.51.29-.74.26a.738.738 0 01-.55-.33.78.78 0 01-.15-.62c.04-.22.2-.43.47-.63l5.56-4.09c.31-.23.57-.3.8-.22s.44.26.64.53l.32.44c.19.26.31.47.35.63s.02.31-.06.46c-.08.15-.24.36-.46.64l-3.1 3.85 4.6-1.81c.33-.13.59-.22.75-.25s.32-.01.45.08c.14.08.3.26.5.52l.32.44c.2.27.3.53.32.76s-.14.47-.44.7l-5.56 4.09c-.27.2-.51.29-.74.26a.774.774 0 01-.56-.33.716.716 0 01-.14-.61c.04-.22.2-.43.47-.63l4.85-3.57-5.3 2.17c-.34.14-.6.24-.77.29s-.36.06-.56.02c-.2-.04-.39-.17-.55-.39-.12-.17-.19-.33-.2-.5-.01-.17.01-.33.08-.47.06-.15.15-.29.26-.42.1-.13.22-.27.34-.42zM27.72 124.29l-1.93-1.84c-.28-.27-.42-.52-.42-.76s.13-.49.39-.77l4.52-4.75c.27-.28.52-.42.76-.43.24-.01.49.12.77.38l2.05 1.95c.3.29.54.55.73.8.19.25.32.51.39.78.06.23.09.47.08.72a2.055 2.055 0 01-.58 1.31c-.6.63-1.36.79-2.27.49.58 1.05.5 1.96-.22 2.73-.34.35-.73.59-1.18.7s-.89.09-1.33-.07c-.27-.1-.54-.26-.83-.46-.29-.21-.6-.47-.93-.78zm2.58-2.9l-1.33-1.27-1.76 1.84 1.37 1.31c.87.82 1.59.92 2.19.3.3-.32.41-.66.32-1.01-.08-.35-.35-.74-.79-1.17zm1.09-3.82l-1.55 1.63 1.17 1.12c.32.3.59.51.83.61.23.11.47.12.73.04.19-.05.35-.15.49-.3.3-.32.39-.64.26-.96-.13-.32-.42-.7-.89-1.15l-1.04-.99zM37.97 131.1l.28-1.14-2.92-2.01-.98.68c-.38.27-.66.43-.84.49-.18.06-.38.02-.6-.13-.18-.13-.3-.3-.35-.54a.766.766 0 01.1-.6c.07-.1.15-.19.26-.27.11-.08.26-.19.46-.32l5.05-3.39c.14-.1.32-.21.52-.35.2-.14.39-.24.56-.3.17-.07.35-.09.54-.08s.38.09.58.23c.2.14.34.29.43.46.08.17.12.34.12.52s-.02.36-.06.53c-.04.18-.09.41-.17.71l-1.32 5.93c-.1.45-.2.76-.31.92-.12.17-.29.27-.52.31s-.45 0-.65-.14a.87.87 0 01-.25-.26.85.85 0 01-.09-.31c-.01-.11.01-.26.04-.45.05-.18.09-.35.12-.49zm-1.5-3.98l2.14 1.48.96-3.71-3.1 2.23zM43.17 131.23l1.79-3.79c.15-.32.34-.53.56-.62s.45-.08.69.03c.25.12.41.29.47.52.07.23.03.51-.13.83l-1.83 3.88c-.21.44-.33.83-.38 1.17-.04.34.02.65.2.94s.49.53.94.74c.62.29 1.14.34 1.56.13.42-.21.78-.65 1.1-1.32l1.85-3.91c.16-.33.34-.54.56-.63.22-.09.45-.08.69.03.24.11.4.29.47.51.07.23.03.51-.12.83l-1.79 3.79c-.29.62-.6 1.1-.91 1.46s-.71.61-1.19.76c-.41.13-.84.17-1.27.11-.44-.06-.91-.21-1.42-.45-.61-.29-1.1-.6-1.47-.94-.38-.34-.64-.71-.78-1.11-.15-.4-.18-.85-.11-1.34.06-.48.24-1.02.52-1.62zM59.71 133.54l-3.83-1.09-.58 2.06 3.52 1c.26.07.44.19.53.34a.6.6 0 01.06.51c-.05.19-.16.33-.32.41-.16.08-.37.09-.63.01l-3.52-1-.68 2.39 3.96 1.12c.27.08.45.2.55.36.1.16.12.35.06.55-.06.2-.17.34-.34.43-.17.09-.39.09-.66.01l-4.62-1.31c-.37-.1-.61-.26-.73-.47s-.12-.5-.02-.86l1.79-6.31c.07-.24.16-.43.28-.57s.26-.21.44-.24c.17-.03.38-.01.62.06l4.49 1.27c.27.08.46.19.55.35.1.16.12.33.06.53a.65.65 0 01-.33.42c-.16.1-.38.11-.65.03zM64.99 138.15l-.62-.07-.32 2.78c-.04.37-.16.63-.34.78-.18.16-.4.22-.66.19-.28-.03-.49-.15-.62-.35-.13-.2-.18-.47-.14-.83l.78-6.67c.04-.38.16-.64.35-.79.19-.15.47-.2.85-.16l2.85.33c.39.05.73.1 1 .17.28.07.52.16.73.29.26.15.48.34.66.57.18.24.31.5.39.8.08.29.09.6.06.91-.08.65-.32 1.14-.73 1.48-.41.34-.99.55-1.75.63.29.2.56.48.81.84s.46.73.64 1.12c.18.39.31.74.4 1.05.09.31.13.52.12.63-.01.11-.06.22-.15.33-.09.1-.2.18-.33.23-.13.05-.28.07-.45.05-.2-.02-.36-.09-.48-.2s-.22-.24-.3-.39-.19-.38-.32-.67l-.57-1.25c-.2-.46-.39-.81-.56-1.06s-.36-.42-.55-.53c-.18-.11-.44-.18-.75-.21zm1.43-3.53l-1.62-.19-.28 2.38 1.58.19c.42.05.78.05 1.08.01.3-.04.53-.14.7-.3s.28-.39.31-.7c.03-.24-.01-.46-.11-.66s-.25-.35-.46-.47c-.2-.1-.6-.19-1.2-.26zM75.08 134.6l3.66 4.96-.27-5.18c-.02-.34.04-.59.18-.77s.33-.27.57-.28c.25-.01.46.06.61.22.16.16.24.41.26.75l.35 6.85c.04.76-.26 1.16-.89 1.2-.16.01-.3-.01-.43-.05s-.25-.1-.37-.2c-.12-.09-.22-.2-.33-.33-.1-.13-.2-.26-.31-.39l-3.57-4.9.26 5.1c.02.33-.05.59-.19.77-.15.18-.34.27-.58.29-.25.01-.45-.06-.61-.23-.16-.16-.25-.41-.26-.74l-.35-6.72c-.01-.29.01-.51.06-.68a1.034 1.034 0 01.91-.66c.16-.01.3.01.41.06.12.04.22.11.31.19s.18.19.28.33c.1.13.2.27.3.41zM98.78 136.37l-.78-.87-3.31 1.26.01 1.19c0 .47-.02.79-.07.97-.05.18-.2.32-.45.42-.21.08-.42.07-.64-.02a.747.747 0 01-.44-.43c-.04-.11-.07-.23-.08-.37-.01-.13-.01-.32 0-.57l.06-6.09v-.63c0-.25.02-.46.06-.63s.12-.34.24-.48c.12-.15.29-.26.52-.35.23-.09.44-.12.62-.09.19.03.35.09.5.19.15.1.28.22.41.35.12.13.29.31.49.54l4.14 4.44c.32.34.51.6.58.78.07.19.06.39-.04.61-.1.22-.26.37-.48.45-.13.05-.25.07-.36.06s-.21-.04-.31-.1c-.09-.06-.21-.15-.34-.29-.12-.11-.23-.23-.33-.34zm-4.14-1.01l2.43-.93-2.51-2.89.08 3.82zM101.64 127.41l3.15 5.51 3.11-1.78c.25-.14.47-.19.67-.15s.35.16.46.34c.11.19.13.37.06.56-.06.19-.22.36-.47.5l-3.7 2.12c-.33.19-.62.25-.85.19-.23-.06-.44-.26-.63-.59l-3.33-5.83c-.18-.31-.24-.58-.19-.82s.19-.42.42-.55c.23-.13.46-.16.69-.09s.43.27.61.59zM112.66 125.33l-1.27 1 1.53 1.94c.22.28.32.54.3.79-.02.25-.13.45-.33.6-.21.17-.43.23-.67.19s-.47-.2-.68-.47l-4.16-5.28c-.24-.3-.34-.58-.31-.82s.21-.48.51-.72l1.78-1.4c.53-.42.96-.69 1.31-.84.34-.14.69-.21 1.03-.19.35.02.68.12.99.3.31.18.6.43.85.76.55.7.75 1.4.61 2.09s-.64 1.38-1.49 2.05zm-2.81-2.87l-.93.74 1.65 2.09.93-.74c.33-.26.57-.51.74-.75.17-.24.24-.49.24-.73-.01-.25-.11-.5-.31-.75-.24-.3-.52-.48-.85-.53-.37-.04-.86.18-1.47.67zM122.32 119.55l-1.08-.45-2.45 2.57.52 1.07c.2.42.32.72.35.91s-.04.38-.22.57c-.15.16-.35.25-.58.26-.24.01-.43-.05-.58-.2-.09-.08-.16-.18-.23-.3s-.15-.29-.25-.51l-2.56-5.52c-.07-.16-.16-.35-.27-.57-.1-.22-.17-.42-.21-.6-.04-.18-.04-.36.01-.54.05-.18.15-.36.32-.54.17-.18.34-.29.53-.35.18-.05.36-.07.54-.04.18.03.35.08.52.14s.39.16.67.27l5.65 2.23c.43.17.72.32.86.45.15.14.22.33.23.57s-.07.44-.24.62c-.1.1-.2.17-.3.21-.1.04-.21.05-.32.04s-.25-.05-.43-.11c-.19-.07-.34-.12-.48-.18zm-4.17.86l1.8-1.89-3.51-1.53 1.71 3.42zM121.08 110.23l2.53 1.71-1.05-4.9c-.05-.24-.08-.43-.08-.57 0-.14.05-.3.16-.46.14-.21.32-.34.53-.38.21-.05.41-.01.58.11.21.14.35.4.41.76l.48 2.92 4.32-.06c.3-.01.55.01.75.04s.38.1.52.19c.16.11.26.27.29.47.03.21-.02.42-.17.63-.14.2-.29.34-.47.41-.17.07-.36.1-.57.09-.2-.01-.39-.02-.55-.03l-3.83-.07.34 1.97 1.49 1.01c.3.2.48.42.53.66.05.24.01.46-.14.68-.08.12-.2.22-.34.29-.14.07-.29.1-.45.09-.12-.02-.25-.06-.38-.13s-.31-.19-.54-.34l-5.37-3.63c-.3-.2-.47-.42-.53-.64-.06-.23-.01-.46.14-.68.15-.22.34-.35.58-.39.25-.04.52.05.82.25zM133.97 101.06l-1.17-.07-1.47 3.23.85.84c.33.33.54.58.63.75.09.17.08.37-.03.61-.09.2-.25.35-.47.43s-.42.09-.61 0c-.11-.05-.21-.12-.31-.21s-.23-.22-.4-.4l-4.23-4.38c-.12-.12-.27-.28-.44-.45-.17-.18-.3-.34-.4-.5s-.15-.33-.17-.51.03-.39.13-.61c.1-.22.23-.39.38-.5.15-.11.32-.18.49-.21.17-.03.35-.04.54-.04s.42.02.72.04l6.07.26c.46.01.78.06.96.14.18.08.32.24.4.46.08.22.08.44-.02.66a.743.743 0 01-.51.43c-.11.03-.25.04-.45.03-.18.01-.35 0-.49 0zm-3.66 2.18l1.08-2.37-3.82-.29 2.74 2.66zM135.99 89.32c.51.14.93.39 1.26.77.33.37.55.84.64 1.41.09.57.04 1.2-.15 1.89-.23.83-.57 1.47-1.03 1.93-.33.32-.72.55-1.16.69-.44.14-.84.16-1.2.06a.778.778 0 01-.47-.36.757.757 0 01-.07-.61c.05-.18.15-.32.3-.41.15-.09.35-.15.6-.18.3-.03.55-.09.77-.16s.41-.21.59-.4c.18-.19.32-.47.42-.84.14-.5.13-.95-.02-1.33s-.4-.62-.75-.71a.96.96 0 00-.75.07c-.22.12-.41.31-.58.55-.17.24-.36.58-.59 1-.31.57-.61 1.03-.91 1.38-.3.36-.65.61-1.04.76-.39.15-.83.16-1.32.03-.46-.13-.84-.36-1.13-.71s-.47-.79-.53-1.32c-.06-.53-.01-1.12.17-1.77.14-.52.33-.95.56-1.29.23-.34.49-.61.77-.8.28-.19.55-.31.82-.36.26-.05.51-.05.73.01.2.06.37.18.49.36.12.19.16.39.1.6-.05.2-.14.33-.27.41-.12.07-.32.14-.57.2-.36.07-.66.18-.89.35s-.42.49-.55.96c-.12.44-.12.82 0 1.14.12.32.32.52.59.59.17.05.33.04.47-.02s.29-.16.42-.29.25-.28.34-.43.24-.4.44-.76c.24-.44.48-.84.72-1.19s.49-.63.75-.85.56-.36.9-.43c.33-.07.71-.05 1.13.06z"/></svg>