<?xml version="1.0" encoding="UTF-8" standalone="no"?>
<svg
   xmlns:dc="http://purl.org/dc/elements/1.1/"
   xmlns:cc="http://creativecommons.org/ns#"
   xmlns:rdf="http://www.w3.org/1999/02/22-rdf-syntax-ns#"
   xmlns:svg="http://www.w3.org/2000/svg"
   xmlns="http://www.w3.org/2000/svg"
   xmlns:sodipodi="http://sodipodi.sourceforge.net/DTD/sodipodi-0.dtd"
   xmlns:inkscape="http://www.inkscape.org/namespaces/inkscape"
   inkscape:version="1.0 (4035a4f, 2020-05-01)"
   sodipodi:docname="logo-white.svg"
   xml:space="preserve"
   style="enable-background:new 0 0 149.81 151.22;"
   viewBox="0 0 149.81 151.22"
   y="0px"
   x="0px"
   id="Ebene_1"
   version="1.1"><metadata
   id="metadata1007"><rdf:RDF><cc:Work
       rdf:about=""><dc:format>image/svg+xml</dc:format><dc:type
         rdf:resource="http://purl.org/dc/dcmitype/StillImage" /><dc:title></dc:title></cc:Work></rdf:RDF></metadata><defs
   id="defs1005" /><sodipodi:namedview
   inkscape:current-layer="Ebene_1"
   inkscape:window-maximized="1"
   inkscape:window-y="23"
   inkscape:window-x="0"
   inkscape:cy="78.819769"
   inkscape:cx="54.765789"
   inkscape:zoom="3.9616623"
   showgrid="false"
   id="namedview1003"
   inkscape:window-height="855"
   inkscape:window-width="1440"
   inkscape:pageshadow="2"
   inkscape:pageopacity="0"
   guidetolerance="10"
   gridtolerance="10"
   objecttolerance="10"
   borderopacity="1"
   bordercolor="#666666"
   pagecolor="#ffffff" />
<style
   id="style833"
   type="text/css">
	.st0{fill:none;stroke:#000000;stroke-width:3;stroke-miterlimit:10;}
	.st1{fill:#FFFFFF;}
	.st2{fill:none;stroke:#000000;stroke-width:2;stroke-miterlimit:10;}
	.st3{fill:#009FE3;}
	.st4{fill:#F293A5;}
	.st5{stroke:#000000;stroke-width:2;stroke-miterlimit:10;}
</style>
<circle
   id="circle835"
   r="55.61"
   cy="73.12"
   cx="73.72"
   class="st2" />
<g
   id="tQYWTq_11_">
	<g
   id="g887">
		<path
   id="path837"
   d="M98.14,62.2c0.41,1.71,0.86,3.41,1.18,5.13c0.07,0.37-0.3,0.91-0.61,1.21c-0.15,0.14-0.66-0.07-1-0.14    c-0.14-0.03-0.27-0.12-0.41-0.18c-0.07,0.17-0.22,0.35-0.2,0.52c0.2,1.65,0.49,3.29,0.62,4.94c0.05,0.65-0.25,1.33-0.38,2    c-0.56-0.29-1.16-0.52-1.67-0.89c-0.38-0.27-0.64-0.71-0.96-1.08c-0.06,0.52-0.09,1.04-0.2,1.55c-0.16,0.76-0.28,1.56-0.6,2.24    c-0.12,0.25-0.83,0.41-1.19,0.32c-0.51-0.13-0.94-0.56-1.42-0.82c-0.09-0.05-0.36,0.04-0.39,0.13c-0.96,2.31-1,4.68-0.29,7.06    c0.62,2.09,1.27,4.16,1.93,6.24c0.22,0.7,0.72,1.37,0.71,2.06c0,0.52-0.6,1.03-0.94,1.54c-0.1,0.15-0.32,0.29-0.31,0.41    c0.39,2.76,0.8,5.53,1.21,8.29c0.1,0.68,0.23,1.37,0.29,2.05c0.02,0.2-0.12,0.56-0.25,0.6c-1.25,0.33-0.45,1.06-0.32,1.61    c0.51,2.18,1,4.36,1.62,6.51c0.28,0.96,0.71,1.77-0.84,1.79c-0.04,0-0.13,0.25-0.1,0.33c0.82,2,1.66,3.99,2.5,5.99    c0.07,0.18,0.23,0.41,0.17,0.54c-0.38,0.84-0.79,1.67-1.24,2.48c-0.06,0.11-0.57,0.12-0.57,0.11c-0.2-0.86-0.37-1.73-0.52-2.6    c-0.01-0.07,0.1-0.25,0.17-0.25c1.26-0.05,0.33-0.81,0.24-1.04c-0.71-1.84-1.51-3.65-2.29-5.47c-0.33-0.77-0.54-1.46,0.74-1.42    c0.11,0,0.37-0.36,0.33-0.5c-0.65-2.67-1.38-5.32-1.96-8c-0.1-0.48,0.52-1.07,0.56-1.63c0.05-0.7-0.18-1.41-0.25-2.12    c-0.26-2.68-0.51-5.37-0.76-8.06c-0.01-0.09-0.01-0.22,0.04-0.26c1.92-1.45,0.15-2.77-0.15-4.13c-0.6-2.69-1.13-5.39-1.89-8.04    c-0.28-0.97-1.13-1.77-1.71-2.65c-0.32-0.48-0.63-0.96-0.95-1.45c-0.08,0.56-0.16,1.12-0.26,1.68c-0.04,0.25-0.08,0.5-0.18,0.73    c-0.2,0.49-0.43,0.96-0.65,1.44c-0.57-0.36-1.28-0.61-1.67-1.12c-0.49-0.62-0.71-0.77-1.13-0.01c-0.44,0.77-0.91,1.53-1.44,2.24    c-0.13,0.17-0.65,0.26-0.83,0.14c-0.5-0.32-0.93-0.75-1.34-1.18c-0.11-0.11-0.04-0.38-0.09-0.57c-0.06-0.22-0.16-0.42-0.24-0.63    c-0.08,0.2-0.19,0.39-0.25,0.59c-0.41,1.36-0.77,2.73-1.29,4.05c-0.06,0.15-1.21,0.16-1.45-0.11c-0.51-0.6-0.76-1.42-1.11-2.15    c-0.06-0.13-0.13-0.25-0.19-0.38c-0.12,0.09-0.32,0.16-0.35,0.28c-0.18,0.67-0.32,1.36-0.49,2.04c-0.07,0.29-0.19,0.57-0.29,0.86    c-0.4-0.18-0.92-0.25-1.16-0.56c-0.37-0.47-0.48-0.98-1.08-0.17c-0.46,0.62-1.86-0.35-2.25-1.5c-0.15-0.44-0.32-0.97-0.65-1.24    c-1.31-1.05-2.6-0.36-2.91,1.5c-0.04,0.23,0,0.51-0.12,0.67c-0.28,0.36-0.64,0.65-0.96,0.97c-0.29-0.36-0.65-0.68-0.84-1.09    c-0.24-0.53-0.34-1.13-0.5-1.7c-0.35,0.4-0.67,0.83-1.05,1.2c-1.53,1.49-1.85,3.37-1.92,5.4c-0.03,1.01-0.4,2-0.61,3    c-0.03,0.14,0.03,0.43,0.04,0.43c1.23-0.01,0.92,0.82,0.8,1.5c-0.58,3.02-1.18,6.04-1.75,9.07c-0.03,0.14,0.08,0.44,0.15,0.45    c1.34,0.11,0.93,0.98,0.75,1.72c-0.5,2.09-1.02,4.17-1.51,6.26c-0.02,0.09,0.17,0.32,0.3,0.35c0.28,0.08,0.76-0.02,0.84,0.13    c0.15,0.27,0.15,0.69,0.07,1c-0.41,1.56-0.97,3.09-1.28,4.67c-0.55,2.75-0.95,5.54-1.45,8.3c-0.05,0.3-0.39,0.54-0.59,0.81    c-0.21-0.21-0.55-0.4-0.6-0.65c-0.13-0.59-0.26-1.23-0.16-1.81c0.54-3.18,1.15-6.34,1.71-9.51c0.06-0.34-0.02-0.95-0.2-1.04    c-1.31-0.57-0.97-1.46-0.64-2.43c0.63-1.86,1.21-3.73,1.78-5.61c0.04-0.13-0.17-0.46-0.33-0.52c-1.11-0.38-1.22-1.1-0.91-2.11    c0.74-2.4,1.36-4.84,2.14-7.22c0.32-1,0.19-1.53-0.72-2.16c-0.36-0.25-0.35-1.43-0.12-2.04c1.32-3.45,1.31-7.02,1.1-10.61    c0-0.08-0.06-0.15-0.09-0.23c-0.08,0.07-0.18,0.12-0.23,0.2c-0.21,0.43-0.34,0.92-0.61,1.3c-0.2,0.29-0.58,0.46-0.88,0.69    c-0.24-0.34-0.57-0.64-0.71-1.01c-0.24-0.64-0.39-1.32-0.53-2c-0.2-1-0.57-0.7-1.24-0.35c-0.55,0.28-1.5,0.39-1.96,0.09    c-0.38-0.24-0.35-1.19-0.42-1.83c-0.04-0.3,0.09-0.63,0.17-0.94c0.18-0.68,0.39-1.27-0.79-1.02c-0.18,0.04-0.87-1.03-0.86-1.58    c0.01-1.06,0.36-2.11,0.53-3.17c0.02-0.14-0.12-0.43-0.24-0.47c-1.87-0.53-1.19-1.85-0.89-2.98c0.18-0.66,0.39-1.01-0.61-0.9    c-1.08,0.11-0.99-0.71-0.8-1.39c0.42-1.49,0.9-2.96,1.35-4.43c0.05-0.15,0.15-0.34,0.11-0.46c-1.14-3.12,1.43-5.41,1.81-8.17    c0.25-1.81,0.25-3.65,0.31-5.47c0-0.1-0.51-0.27-0.79-0.31c-0.9-0.12-2.43,0.07-2.6-0.33c-0.35-0.84,0-1.97,0.09-2.98    c0.01-0.11,0.21-0.2,0.28-0.32c0.2-0.35,0.38-0.72,0.56-1.08c-0.3,0.05-0.62,0.18-0.9,0.12c-0.45-0.1-1.15-0.23-1.26-0.53    c-0.19-0.54-0.23-1.31,0.02-1.8c0.38-0.73,1.01-1.37,1.64-1.92c0.64-0.57,0.62-0.84-0.08-1.35c-0.65-0.47-1.69-1.3-1.58-1.74    c0.2-0.85,1.08-1.54,1.68-2.3c0.29-0.37,0.9-0.86,0.81-1.09c-0.21-0.54-0.73-0.98-1.16-1.42c-0.13-0.14-0.44-0.1-0.58-0.23    c-0.38-0.36-0.71-0.76-1.06-1.15c0.58-0.25,1.21-0.79,1.72-0.69c1.63,0.31,1.32-0.84,1.1-1.51c-0.48-1.51-1.21-2.94-1.79-4.42    c-0.33-0.83-0.75-1.69-0.8-2.56c-0.15-2.45-0.22-4.91-0.15-7.36c0.04-1.41,0.32-2.84,0.63-4.23c0.3-1.36,1.4-1.65,2.64-1.61    c0.1,0,0.23,0.03,0.3,0.1c1.16,1.11,2.3,2.25,3.48,3.35c0.17,0.16,0.49,0.15,0.74,0.23c0.5,0.17,1.16,0.2,1.46,0.54    c0.52,0.59,0.63,1.55,1.86,1.14c0.25-0.08,0.85,0.71,1.2,1.16c0.61,0.8,1.15,1.65,1.74,2.45c0.02,0.02,0.36-0.16,0.52-0.29    c0.19-0.15,0.34-0.35,0.51-0.53c0.15,0.2,0.33,0.39,0.44,0.61c0.13,0.25,0.16,0.56,0.29,0.8c0.22,0.38,0.5,0.73,0.75,1.09    c0.05-0.33,0.01-0.72,0.17-0.99c0.21-0.36,0.54-0.76,0.91-0.88c0.18-0.06,0.63,0.43,0.83,0.74c0.52,0.84,0.97,1.72,1.47,2.57    c0.07,0.12,0.24,0.19,0.36,0.28c0.08-0.12,0.17-0.22,0.22-0.35c0.41-1.07,0.77-2.16,1.23-3.21c0.09-0.2,0.63-0.41,0.79-0.32    c0.24,0.13,0.35,0.53,0.47,0.83c0.08,0.21,0.01,0.48,0.11,0.68c0.13,0.28,0.35,0.52,0.53,0.78c0.19-0.23,0.39-0.46,0.56-0.7    c0.65-0.89,1.24-1.84,1.97-2.65c0.11-0.13,1.03,0.18,1.27,0.51c0.63,0.89,1.1,1.9,1.65,2.85c0.02,0.03,0.33-0.05,0.42-0.15    c0.72-0.82,1.31-1.8,2.15-2.44c0.97-0.74,1.51-0.1,1.67,0.95c0.07,0.45,0.23,0.88,0.35,1.32c0.41-0.23,0.83-0.42,1.21-0.68    c0.43-0.29,0.82-0.62,1.22-0.95c0.91-0.74,1.13-0.09,1.33,0.64c0.16,0.6,0.33,1.19,0.5,1.79c0.45-0.53,0.92-1.05,1.36-1.6    c0.48-0.61,0.87-1.31,1.44-1.83c0.2-0.19,0.8,0.06,1.22,0.1c0.13,0.01,0.34,0.06,0.39-0.01c0.67-0.89,1.3-1.82,1.98-2.7    c0.48-0.62,1-1.21,1.78-0.28c0.07,0.08,0.51-0.03,0.68-0.17c0.66-0.54,1.21-1.24,1.93-1.67c0.52-0.31,1.25-0.24,1.87-0.42    c0.36-0.1,0.65-0.41,1.01-0.5c0.68-0.18,1.39-0.28,2.08-0.41c0.18-0.03,0.38,0.01,0.55-0.05c0.37-0.12,0.73-0.42,1.09-0.4    c0.54,0.03,1.13,0.17,1.58,0.46c0.16,0.1-0.01,0.77-0.08,1.17c-0.29,1.71-0.57,3.43-0.89,5.14c-0.24,1.28-0.39,2.59-0.83,3.8    c-0.63,1.74-1.42,3.44-2.28,5.09c-0.65,1.25-1.7,2.3-2.26,3.58c-0.65,1.49-1.03,3.11-1.35,4.71c-0.08,0.38,0.51,1.23,0.9,1.31    c1.81,0.35,1.46,1.21,0.67,2.24c-0.39,0.5-0.85,0.95-1.25,1.45c-0.1,0.12-0.14,0.39-0.07,0.51c0.44,0.71,0.99,1.35,1.35,2.08    c0.52,1.06,0.11,1.73-1.05,1.97c-0.17,0.03-0.43,0.19-0.45,0.32c-0.04,0.22,0,0.54,0.14,0.69c1.01,1.04,0.9,1.5-0.42,2.33    c-0.33,0.21-0.62,0.8-0.6,1.2c0.19,3.73,1.15,7.3,2.61,10.73c0.52,1.23,1.33,2.34,1.93,3.55c0.09,0.19-0.27,0.87-0.37,0.86    c-1.38-0.15-0.89,0.84-0.95,1.49c-0.02,0.18,0,0.36,0,0.53C98.29,62.16,98.22,62.18,98.14,62.2z M80.88,19.41    c0.17,0.08,0.34,0.16,0.51,0.24c-0.19,0.84-0.35,1.69-0.58,2.52c-0.04,0.15-0.34,0.33-0.52,0.33c-0.15,0-0.39-0.22-0.43-0.38    c-0.32-1.5-0.59-3.02-0.91-4.52c-0.1-0.49-0.31-0.96-0.48-1.43c-0.34,0.37-0.64,0.79-1.03,1.11c-0.57,0.47-1.41,1.36-1.74,1.21    c-0.7-0.32-1.15-1.2-1.71-1.84c-0.36-0.41-0.73-0.81-1.09-1.22c-0.23,0.75-0.48,1.49-0.69,2.24c-0.08,0.27,0.06,0.69-0.1,0.84    c-0.19,0.18-0.66,0.28-0.88,0.17c-0.64-0.33-1.21-0.81-1.84-1.17c-0.14-0.08-0.56,0.04-0.65,0.19c-1.01,1.66,0.48,3.16,0.34,4.77    c-0.03,0.38-0.18,0.76-0.27,1.14c-0.22-0.32-0.45-0.62-0.64-0.95c-0.89-1.57-1.77-3.16-2.66-4.73c-0.05-0.09-0.23-0.11-0.35-0.16    c-0.04,0.12-0.11,0.25-0.12,0.37c-0.07,0.82-0.2,1.65-0.15,2.46c0.04,0.6,0.29,1.19,0.5,1.77c0.11,0.29,0.35,0.53,0.54,0.79    c-0.37,0-0.76,0.08-1.1-0.01c-2.5-0.74-4.19-2.4-5.27-4.73c-0.06-0.12-0.16-0.22-0.24-0.32c-0.02,0.11-0.09,0.23-0.07,0.34    c0.48,2.23,0.97,4.47,1.45,6.7c0.04,0.2,0.1,0.4,0.1,0.6c0,0.05-0.24,0.16-0.35,0.14c-2.22-0.42-4.04-1.41-5.04-3.55    c-0.04-0.08-0.09-0.14-0.14-0.21c-0.03,0.04-0.1,0.08-0.09,0.11c0.41,1.24,0.78,2.5,1.25,3.71c0.17,0.43,0.65,0.72,0.9,1.14    c0.07,0.12-0.26,0.64-0.33,0.63c-0.43-0.09-0.82-0.35-1.25-0.43c-0.36-0.07-0.78-0.07-1.13,0.04c-1.41,0.47-2.81,0.99-4.21,1.49    c-0.14,0.05-0.27,0.1-0.4,0.16c0.15,0.15,0.27,0.37,0.46,0.44c0.98,0.36,2.02,0.62,2.96,1.06c0.43,0.2,0.7,0.75,1.05,1.14    c-0.43,0.17-0.85,0.44-1.3,0.48c-0.43,0.03-0.88-0.21-1.33-0.26c-0.23-0.03-0.55,0.02-0.72,0.16c-0.67,0.6-1.31,1.24-1.92,1.9    c-0.11,0.12-0.08,0.6-0.01,0.63c1.07,0.41,1.75,1.94,3.27,1.12c0.15-0.08,0.54,0.27,0.8,0.46c0.03,0.02-0.05,0.32-0.15,0.39    c-1.12,0.83-2.26,1.63-3.37,2.46c-0.2,0.15-0.31,0.41-0.46,0.62c0.22,0.06,0.46,0.09,0.67,0.18c0.64,0.3,1.35,0.55,1.86,1    c0.12,0.11-0.41,0.97-0.67,1.47c-0.14,0.26-0.37,0.48-0.49,0.75c-0.1,0.21-0.09,0.46-0.13,0.69c0.3,0.01,0.68,0.15,0.87,0.02    c1-0.67,1.94-1.42,2.91-2.14c0.17-0.13,0.39-0.2,0.58-0.29c0.02,0.22,0.11,0.47,0.03,0.64c-0.42,0.98-0.88,1.94-1.33,2.9    c-0.03,0.06-0.03,0.12-0.04,0.18c0.05-0.01,0.11,0,0.15-0.03c0.69-0.4,1.6-0.65,2.01-1.24c0.89-1.27,1.52-2.73,2.29-4.09    c0.11-0.19,0.43-0.26,0.65-0.38c0.03,0.24,0.16,0.51,0.08,0.7c-0.88,2.09-0.39,4.02,0.64,5.88c0.34,0.61,0.81,0.88,1.2,0.06    c0.72-1.55,1.37-3.14,2.09-4.69c0.14-0.31,0.49-0.53,0.74-0.79c0.14,0.31,0.33,0.62,0.4,0.94c0.2,0.99,0.33,1.99,0.54,2.97    c0.04,0.2,0.32,0.35,0.49,0.53c0.3-0.37,0.85-0.74,0.84-1.1c-0.02-1.12-0.3-2.24-0.39-3.37c-0.02-0.26,0.3-0.56,0.46-0.84    c0.21,0.28,0.54,0.53,0.63,0.85c0.49,1.81,0.92,3.64,1.4,5.46c0.06,0.21,0.28,0.38,0.42,0.56c0.19-0.2,0.44-0.38,0.56-0.62    c0.54-1.02,1.03-2.06,1.57-3.07c0.11-0.2,0.36-0.32,0.55-0.48c0.12,0.2,0.28,0.38,0.36,0.59c0.4,1.15,0.76,2.32,1.17,3.47    c0.05,0.14,0.29,0.23,0.45,0.31c0.03,0.01,0.17-0.13,0.19-0.21c0.18-0.59,0.31-1.2,0.51-1.79c0.29-0.83,0.61-1.65,0.98-2.45    c0.07-0.15,0.42-0.17,0.64-0.25c0.03,0.19,0.06,0.39,0.09,0.58c0.13,1.13,0.24,2.26,0.4,3.38c0.01,0.07,0.6,0.17,0.65,0.09    c0.6-0.95,1.14-1.94,1.73-2.9c0.22-0.36,0.66-0.97,0.79-0.92c0.53,0.2,1.04,0.56,1.45,0.97c0.24,0.24,0.26,0.69,0.41,1.03    c0.15,0.33,0.33,0.64,0.5,0.95c0.11-0.32,0.21-0.64,0.32-0.96c0.13-0.37,0.28-0.73,0.43-1.09c0.33,0.32,0.71,0.61,0.99,0.98    c0.56,0.73,1.05,1.51,1.59,2.25c0.08,0.11,0.25,0.16,0.39,0.24c0.05-0.16,0.14-0.31,0.15-0.47c0.08-1.33,0.14-2.65,0.23-3.98    c0.01-0.08,0.26-0.22,0.27-0.2c0.39,0.38,0.87,0.73,1.1,1.19c0.61,1.19,3.68,3.06,5,2.87c0.36-0.05,0.67-0.39,1.01-0.6    c-0.19-0.26-0.39-0.52-0.59-0.77c-0.74-0.93-1.49-1.86-2.22-2.81c-0.03-0.03,0.22-0.38,0.3-0.37c0.85,0.14,1.68,0.36,2.53,0.48    c0.51,0.08,1.04,0.04,1.57,0.05c0-0.11,0.05-0.29,0-0.33c-0.47-0.39-0.95-0.75-1.44-1.11c-0.07-0.05-0.24,0.03-0.31-0.02    c-0.48-0.37-0.95-0.74-1.4-1.14c-0.05-0.05,0.06-0.4,0.09-0.4c0.51,0,1.02,0.02,1.53,0.07c0.15,0.02,0.29,0.23,0.41,0.22    c0.87-0.13,1.74-0.3,2.61-0.45c-0.37-0.47-0.68-1.04-1.15-1.37c-0.27-0.19-0.83,0.07-1.24,0c-0.43-0.07-0.85-0.28-1.27-0.43    c0.24-0.3,0.44-0.65,0.73-0.9c0.89-0.77,1.82-1.49,2.71-2.25c0.1-0.09,0.18-0.39,0.12-0.44c-0.44-0.41-1.03-1.18-1.35-1.09    c-1.43,0.41-2.78,1.13-4.19,1.63c-0.38,0.13-0.88-0.1-1.33-0.17c0.03-0.17,0.01-0.44,0.1-0.49c0.99-0.52,2.12-0.87,2.97-1.56    c0.77-0.62,1.48-1.53,1.76-2.45c0.23-0.77-0.18-1.75-0.34-2.63c-0.02-0.11-0.25-0.26-0.39-0.27c-1.25-0.08-1.56,1.04-2.24,1.72    c-0.26,0.26-0.8,0.26-1.21,0.38c0-0.41-0.09-0.83,0.01-1.21c0.41-1.66,0.88-3.32,1.32-4.97c0,0-0.12-0.06-0.15-0.04    c-1.46,0.81-2.91,1.63-4.39,2.41c-0.17,0.09-0.47-0.04-0.71-0.07c0.05-0.25,0.01-0.66,0.16-0.74c2.1-1.14,1.65-3.34,2.13-5.14    c0.02-0.09-0.17-0.23-0.26-0.35c-0.71,0.8-1.42,1.6-2.12,2.4c-0.41,0.47-0.8,0.96-1.19,1.44c-0.16-0.58-0.36-1.14-0.47-1.73    c-0.13-0.64-0.15-1.29-0.28-1.93c-0.11-0.56-0.32-1.11-0.48-1.66c-0.04-0.15-0.08-0.29-0.11-0.44c-0.12,0.07-0.29,0.11-0.35,0.21    C81.98,17.51,81.43,18.46,80.88,19.41z M84.63,69.9c-0.12-1.32,0.26-1.98,1.71-1.33c0.06,0.03,0.4-0.28,0.38-0.38    c-0.23-1.2-0.57-2.39-0.72-3.6c-0.04-0.3,0.51-0.7,0.85-0.98c0.05-0.04,0.49,0.3,0.67,0.52c0.49,0.62,0.92,1.29,1.4,1.91    c0.07,0.09,0.28,0.07,0.43,0.11c-0.01-0.14,0-0.28-0.04-0.41c-0.46-1.63-0.94-3.26-1.39-4.9c-0.05-0.17,0.05-0.39,0.12-0.57    c0.01-0.03,0.29-0.03,0.36,0.04c0.75,0.74,1.49,1.51,2.23,2.26c0.11,0.11,0.27,0.18,0.41,0.27c-0.03-0.17-0.02-0.35-0.09-0.5    c-0.65-1.32-1.41-2.59-1.92-3.96c-0.18-0.47,0.27-1.18,0.43-1.78c0.43,0.26,0.91,0.47,1.27,0.8c0.52,0.49,0.95,1.09,1.44,1.62    c0.09,0.09,0.29,0.07,0.44,0.11c-0.03-0.15-0.03-0.31-0.09-0.44c-0.61-1.29-1.25-2.57-1.84-3.87c-0.09-0.19,0.02-0.48,0.04-0.72    c0.21,0.13,0.4,0.3,0.63,0.38c0.25,0.1,0.52,0.13,0.79,0.17c0.01,0,0.1-0.19,0.07-0.25c-0.53-1-1.11-1.93-2.4-2.04    c-0.15-0.01-0.38-0.21-0.4-0.35c-0.02-0.12,0.24-0.42,0.32-0.4c0.83,0.2,1.64,0.47,2.47,0.67c0.46,0.11,0.94,0.14,1.41,0.21    c-0.14-0.28-0.27-0.57-0.42-0.85c-0.17-0.33-0.48-0.65-0.5-0.99c-0.03-0.44,0.02-1.07,0.3-1.32c0.81-0.71,0.87-0.68-0.04-1.76    c-0.01-0.01-0.02-0.04-0.03-0.04c-0.69,0.05-1.95-0.01-1.97,0.16c-0.42,2.45-2.29,3.03-4.25,3.41c-2.31,0.44-4.94-1.43-5.25-3.6    c-0.01-0.1-0.15-0.17-0.22-0.26c-0.68-1-1.36-2.01-2.04-3.01c-0.06-0.09-0.14-0.17-0.21-0.26c-0.11,0.11-0.26,0.21-0.31,0.34    c-0.32,0.88-0.66,1.77-0.89,2.67c-0.05,0.21,0.24,0.7,0.45,0.76c2.92,0.76,3.85,3.12,4.56,5.64c0.06,0.23-0.34,0.59-0.53,0.89    c-0.23-0.19-0.56-0.34-0.66-0.59c-0.36-0.85-0.6-1.75-0.98-2.59c-0.79-1.79-3.75-2.41-5.35-1.28c-1.23,0.86-2.62,1.25-4.11,0.42    c-2.19-1.22-4.05-0.6-5.21,1.66c-0.33,0.65-0.73,1.28-1.18,1.86c-0.12,0.15-0.62,0.18-0.82,0.06c-0.29-0.18-0.73-0.72-0.67-0.8    c0.95-1.35,1.83-2.78,3.01-3.91c0.78-0.74,1.58-0.93,0.39-2.09c-0.82-0.81-0.84-0.84-1.12,0.23c-0.13,0.49-0.68,0.85-0.96,1.32    c-0.24,0.38-0.26,0.93-0.55,1.24c-1.89,2.05-4.26,2.37-6.8,1.65c-0.69-0.2-1.53-0.7-1.79-1.29c-0.31-0.71-0.07-1.67-0.1-2.51    c-0.01-0.28-0.11-0.57-0.17-0.85c-0.29,0.28-0.77,0.51-0.85,0.84c-0.22,0.99-0.21,2.04-0.42,3.03c-0.34,1.55-0.8,3.08-1.19,4.62    c-0.07,0.29-0.02,0.61-0.02,0.92c0.15-0.01,0.36,0.03,0.43-0.05c0.65-0.74,1.25-1.51,1.91-2.25c0.15-0.17,0.43-0.24,0.64-0.35    c0.1,0.23,0.33,0.5,0.27,0.67c-0.28,0.8-0.67,1.55-0.96,2.34c-0.58,1.58-1.13,3.18-1.69,4.77c-0.04,0.11-0.12,0.21-0.18,0.31    c0.12-0.04,0.29-0.05,0.37-0.13c0.96-1.03,1.9-2.09,2.87-3.12c0.21-0.22,0.52-0.33,0.78-0.5c0.15,0.37,0.51,0.82,0.41,1.1    c-0.51,1.39-1.96,2.29-1.94,4.01c0.01,0.73-0.42,1.47-0.64,2.21c-0.04,0.13-0.04,0.28-0.05,0.42c0.16-0.08,0.34-0.13,0.46-0.25    c0.56-0.57,1.07-1.19,1.68-1.71c0.3-0.26,0.77-0.32,1.16-0.47c-0.06,0.44-0.08,0.9-0.19,1.33c-0.26,1.09-0.56,2.16-0.83,3.25    c-0.02,0.07,0.09,0.25,0.14,0.25c1.17,0.07,1,0.93,1,1.69c0,0.45,0.01,0.89,0.01,1.34c0.26-0.48,0.52-0.98,0.8-1.45    c0.11-0.18,0.28-0.33,0.43-0.49c0.11,0.2,0.27,0.38,0.32,0.59c0.24,1.01-0.65,2.61,1.42,2.65c0.05,0,0.1,0.11,0.16,0.13    c0.56,0.23,1.3,0.79,1.64,0.6c0.59-0.32,0.94-1.09,1.38-1.69c0.19-0.26,0.33-0.56,0.49-0.84c0.12,0.28,0.21,0.58,0.37,0.84    c0.26,0.43,0.56,0.83,0.84,1.25c0.21-0.17,0.43-0.33,0.63-0.51c0.16-0.14,0.28-0.44,0.43-0.45c0.2-0.01,0.51,0.14,0.61,0.31    c0.39,0.64,0.74,1.07,1.32,0.16c0.05-0.07,0.37,0.03,0.56,0.04c0.46,0.02,0.92,0.09,1.37,0.04c0.73-0.07,1.45-0.27,2.17-0.3    c0.42-0.02,1.03,0.4,1.26,0.23c1.48-1.1,3.34,0.55,4.75-0.74c0.02-0.02,0.1,0.03,0.15,0.04c0.91,0.24,1.82,0.49,2.73,0.73    c0.1,0.03,0.2,0.02,0.3,0.04c-0.03-0.1-0.07-0.2-0.08-0.3c-0.04-0.4-0.21-1.08-0.09-1.14c0.41-0.18,1.06-0.37,1.37-0.17    C84.84,71.4,84.68,70.62,84.63,69.9z M96.52,60.87c0.11-0.04,0.22-0.07,0.34-0.11c0.09-0.58,0.15-1.16,0.28-1.73    c0.03-0.14,0.29-0.28,0.47-0.32c0.14-0.03,0.32,0.09,0.49,0.15c-0.06-0.2-0.09-0.41-0.18-0.58c-0.69-1.3-1.38-2.59-2.08-3.88    c-0.2-0.36-0.41-0.72-0.61-1.08c-0.37,0.61-2.04,0.43-1.11,1.85c0.22,0.33,0.3,0.76,0.38,1.16c0.06,0.28,0.02,0.59,0.03,0.88    c-0.31-0.04-0.61-0.07-0.92-0.11c-0.17-0.02-0.33-0.04-0.5-0.06c0.06,0.14,0.1,0.3,0.18,0.43c0.53,0.88,1.09,1.74,1.6,2.63    c0.11,0.19,0.14,0.56,0.02,0.71c-0.12,0.15-0.49,0.24-0.69,0.18c-0.81-0.25-1.6-0.57-2.39-0.86c-0.08-0.03-0.16-0.04-0.24-0.05    c0.02,0.08,0.02,0.17,0.06,0.24c0.5,1,1.01,1.99,1.52,2.99c0.17,0.34,0.36,0.68,0.54,1.01c-0.51,0.1-1.01,0.29-1.52,0.29    c-0.47,0-0.93-0.2-1.4-0.31c-0.11-0.03-0.23-0.05-0.34-0.07c0.02,0.12,0.04,0.24,0.07,0.36c0.26,0.91,0.55,1.8,0.76,2.72    c0.06,0.28,0.02,0.74-0.16,0.89c-0.21,0.17-0.67,0.2-0.94,0.09c-0.39-0.16-0.7-0.5-1.06-0.75c-0.39-0.27-0.8-0.51-1.2-0.76    c0.05,0.4,0.09,0.81,0.14,1.21c0.05,0.35,0.13,0.7,0.14,1.06c0.01,0.32-0.05,0.91-0.12,0.91c-0.45,0.03-0.91-0.03-1.37-0.11    c-0.33-0.06-0.65-0.18-0.98-0.28c0.01,0.3-0.03,0.62,0.04,0.91c0.17,0.75,0.55,1.61-0.68,1.72c-0.6,0.05-1.09-0.06-1.14,0.77    c-0.01,0.16-0.5,0.39-0.79,0.43c-1.67,0.21-3.43-0.59-5.05,0.53c-0.29,0.2-0.91-0.05-1.38-0.1c-0.64-0.06-1.28-0.14-1.92-0.19    c-0.39-0.03-0.89,0.14-1.15-0.05c-0.97-0.68-1.84-0.39-2.75,0.08c-0.51,0.26-1.04,0.51-1.59,0.68c-0.21,0.07-0.53-0.01-0.73-0.13    c-0.42-0.25-0.79-0.59-1.21-0.86c-0.07-0.05-0.34,0.04-0.36,0.1c-0.22,1.07-1,1.36-1.93,0.74c-0.16-0.11-0.48,0.03-0.73,0.05    c-0.87,0.09-1.75,0.2-2.62,0.27c-0.46,0.03-1-0.19-1.37-0.01c-0.89,0.42-1.87,0-2.01-0.97c-0.02-0.15-0.36-0.25-0.54-0.39    c-0.49-0.37-1.29-0.68-1.41-1.15c-0.3-1.18-0.25-2.43-0.4-3.65c-0.14-1.09-0.56-1.73-1.83-1.11c-0.19,0.09-1.01-0.48-0.98-0.64    c0.13-0.68,0.52-1.3,0.73-1.97c0.2-0.65,0.29-1.33,0.44-2c-0.51,0.1-1.02,0.2-1.53,0.29c-0.28,0.05-0.6,0.18-0.83,0.1    c-0.21-0.08-0.5-0.46-0.46-0.6c0.43-1.28,0.93-2.53,1.38-3.81c0.05-0.15-0.14-0.38-0.21-0.58c-0.21,0.14-0.52,0.23-0.6,0.42    c-0.55,1.27-1.09,2.54-1.57,3.84c-0.27,0.75-0.42,1.55-0.62,2.32c0.75-0.27,1.5-0.53,2.25-0.8c0.08-0.03,0.18-0.1,0.25-0.08    c0.28,0.06,0.55,0.16,0.82,0.24c-0.09,0.27-0.12,0.59-0.29,0.81c-0.61,0.79-1.39,1.48-1.84,2.34c-0.27,0.51-0.04,1.27-0.03,1.92    c0.31-0.42,0.61-0.85,0.93-1.26c0.14-0.18,0.32-0.33,0.48-0.5c0.12,0.17,0.37,0.36,0.35,0.52c-0.17,1.6-0.39,3.19-0.59,4.79    c-0.04,0.28-0.1,0.56-0.15,0.84c0.22-0.19,0.48-0.35,0.66-0.58c0.33-0.42,0.58-0.9,0.91-1.31c0.1-0.13,0.36-0.16,0.55-0.19    c0.04-0.01,0.17,0.15,0.16,0.22c-0.28,1.59-0.58,3.19-0.86,4.78c-0.04,0.24,0.03,0.49,0.04,0.73c0.28-0.15,0.72-0.23,0.8-0.45    c0.3-0.78,0.47-1.62,0.73-2.42c0.09-0.26,0.3-0.49,0.45-0.73c0.13,0.32,0.34,0.62,0.39,0.95c0.25,1.53,0.45,3.06,0.69,4.59    c0.01,0.07,0.28,0.17,0.28,0.16c0.52-0.74,0.99-1.51,1.55-2.21c0.2-0.26,0.6-0.41,0.94-0.48c0.12-0.03,0.47,0.32,0.47,0.5    c0.07,1.63,0.09,3.26,0.13,4.89c0,0.11,0.05,0.22,0.08,0.34c0.09-0.04,0.23-0.05,0.25-0.12c0.18-0.43,0.42-0.86,0.5-1.32    c0.24-1.35,0.39-2.72,0.62-4.08c0.03-0.17,0.28-0.39,0.46-0.43c0.11-0.02,0.38,0.23,0.42,0.39c0.39,1.5,0.74,3.02,1.11,4.52    c0.04,0.17,0.12,0.32,0.18,0.48c0.16-0.1,0.39-0.16,0.45-0.3c0.65-1.45,1.26-2.92,1.92-4.37c0.1-0.21,0.35-0.36,0.53-0.54    c0.21,0.29,0.61,0.6,0.59,0.88c-0.11,1.45,0.06,2.73,1.53,3.46c0.15,0.08,0.25,0.3,0.4,0.34c0.17,0.05,0.51,0.04,0.56-0.06    c0.83-1.77,1.6-3.56,2.44-5.33c0.1-0.22,0.45-0.33,0.68-0.5c0.02,0.35,0.15,0.73,0.06,1.05c-0.4,1.34-0.93,2.65-1.28,4.01    c-0.09,0.35,0.31,0.82,0.48,1.23c0.07-0.07,0.17-0.13,0.21-0.22c0.55-1.3,1.03-2.64,1.68-3.89c0.22-0.43,0.85-0.65,1.29-0.97    c0.07,0.47,0.15,0.95,0.2,1.42c0.01,0.15-0.05,0.32-0.11,0.47c-0.36,0.99-0.53,1.97,0.09,2.93c0.04,0.06,0.05,0.13,0.08,0.2    c0.03-0.03,0.08-0.05,0.1-0.09c0.36-0.79,0.65-1.61,1.07-2.37c0.65-1.17,1.32-2.3,0.69-3.72c-0.03-0.07,0.36-0.32,0.56-0.49    c0.28,0.4,0.68,0.77,0.81,1.21c0.43,1.51,0.75,3.06,1.13,4.58c0.04,0.18,0.15,0.35,0.23,0.52c0.1-0.05,0.27-0.08,0.3-0.16    c0.55-1.84,2.97-3.17,1.55-5.57c-0.11-0.19,0.15-0.59,0.24-0.89c0.32,0.2,0.81,0.32,0.93,0.6c0.46,1.11,0.81,2.27,1.21,3.41    c0.03,0.09,0.1,0.17,0.14,0.25c0.03-0.08,0.08-0.16,0.09-0.25c0.21-1.61,0.38-3.22,0.63-4.83c0.06-0.38,0.37-0.72,0.57-1.08    c0.24,0.14,0.61,0.22,0.69,0.42c0.6,1.53,1.12,3.1,1.73,4.63c0.18,0.47,0.56,0.86,0.85,1.28c0.18-0.45,0.36-0.91,0.55-1.36    c0.05-0.13,0.16-0.25,0.19-0.38c0.17-0.83,0.5-1.68,0.43-2.49c-0.08-0.87-0.6-1.68-0.82-2.55c-0.09-0.37,0.09-0.81,0.15-1.21    c0.41,0.31,0.99,0.53,1.2,0.94c0.57,1.11,0.97,2.31,1.46,3.47c0.11,0.25,0.29,0.47,0.45,0.7c0.11-0.26,0.27-0.52,0.33-0.79    c0.23-1.12,0.45-2.25,0.62-3.39c0.07-0.49,0.12-1.03,0-1.49c-0.2-0.74-0.58-1.43-0.8-2.16c-0.05-0.16,0.22-0.42,0.34-0.63    c0.23,0.17,0.58,0.29,0.67,0.52c0.57,1.33,1.08,2.7,1.64,4.04c0.08,0.18,0.34,0.29,0.51,0.43c0.05-0.23,0.16-0.46,0.13-0.68    c-0.16-1.1-0.35-2.19-0.54-3.28c-0.25-1.45-0.54-2.9-0.77-4.36c-0.07-0.43-0.01-0.88,0.04-1.31c0.01-0.13,0.17-0.25,0.26-0.38    c0.09,0.12,0.18,0.24,0.26,0.37c0.63,1.09,1.23,2.2,1.89,3.28c0.12,0.2,0.45,0.27,0.68,0.4c0.02-0.11,0.08-0.23,0.06-0.33    C97.4,64.49,96.96,62.68,96.52,60.87z M49.21,17.97c-0.12,0.03-0.25,0.06-0.37,0.09c0.37,1.29,0.61,2.63,1.14,3.85    c0.51,1.17,1.34,2.19,2,3.29c0.26,0.43,0.47,0.89,0.7,1.34c0.3-0.51,0.6-1.02,0.89-1.54c0.06-0.1,0.08-0.24,0.08-0.36    c0.01-1.94,0-3.88,0.05-5.83c0.01-0.25,0.31-0.49,0.47-0.73c0.22,0.17,0.51,0.3,0.66,0.53c0.9,1.41,1.75,2.85,2.64,4.26    c0.12,0.19,0.39,0.28,0.6,0.39c0.03,0.01,0.19-0.12,0.19-0.18c0.03-2.3,0.1-4.8-1.66-6.42c-2.65-2.43-5.24-4.82-7.02-7.98    c-0.05-0.09-0.15-0.14-0.23-0.21c-0.06,0.12-0.17,0.23-0.19,0.35c-0.17,1.58-0.44,3.16-0.44,4.74    C48.73,15.03,49.04,16.5,49.21,17.97z M91.92,24.59c0.44,0.08,0.64,0.19,0.79,0.14c0.59-0.2,1.15-0.48,1.74-0.64    c0.13-0.04,0.54,0.32,0.53,0.48c-0.06,0.83-0.22,1.66-0.31,2.49c-0.02,0.17,0.11,0.35,0.17,0.52c0.09-0.13,0.23-0.25,0.27-0.4    c0.34-1.18,0.48-2.47,1.03-3.54c0.79-1.5,2.19-2.73,2.78-4.28c1-2.6,1.56-5.36,2.3-8.05c0.02-0.09-0.03-0.2-0.04-0.3    c-0.1,0.05-0.21,0.08-0.29,0.15c-0.36,0.34-0.68,0.72-1.07,1.02c-1.39,1.06-2.82,2.08-4.21,3.14c-1.66,1.28-3.3,2.59-4.94,3.89    c-0.57,0.45-1.15,0.9-1.69,1.38c-0.11,0.09-0.09,0.33-0.13,0.5c0.16-0.02,0.33,0,0.46-0.07c0.6-0.32,1.16-0.71,1.78-0.97    c0.28-0.12,0.78-0.12,0.98,0.06c0.27,0.23,0.5,0.71,0.47,1.05C92.42,22.22,92.17,23.27,91.92,24.59z M89.09,16.95    c0.18,0.5,0.29,0.82,0.41,1.15c0.29-0.23,0.59-0.44,0.87-0.68c1.6-1.37,3.17-2.78,4.8-4.12c1.52-1.25,3.09-2.43,4.63-3.65    c0.06-0.05,0.09-0.14,0.13-0.22c-0.06,0.01-0.14,0-0.19,0.02c-1.31,0.6-2.68,1.09-3.91,1.82c-1.67,0.99-3.29,2.09-4.8,3.3    C90.24,15.21,89.7,16.18,89.09,16.95z M72.75,49.11c0.77-0.35,1.66-0.76,2.55-1.19c0.05-0.02,0.06-0.24,0.01-0.3    c-0.32-0.35-0.66-0.67-0.99-1.01c-0.07,0.15-0.16,0.3-0.19,0.46c-0.21,1.04-0.54,2.07-1.89,1.4c-0.56-0.28-0.88-1.04-1.33-1.57    c-0.12-0.14-0.38-0.37-0.43-0.34c-0.38,0.25-0.73,0.54-1.06,0.86c-0.07,0.07-0.03,0.4,0.03,0.42    C70.49,48.25,71.52,48.64,72.75,49.11z M53.59,11.25c-0.03,0.01-0.06,0.01-0.09,0.02c0.04,0.07,0.07,0.16,0.12,0.22    c1.44,1.38,2.86,2.77,4.33,4.11c0.21,0.19,0.65,0.13,0.98,0.18c-0.11-0.28-0.15-0.66-0.36-0.82c-1.61-1.24-3.26-2.44-4.9-3.65    C53.65,11.29,53.62,11.27,53.59,11.25z M62.7,20.22c-0.99-1.35-1.78-2.42-2.57-3.49c-0.04,0.04-0.11,0.1-0.1,0.11    c0.7,1.06,1.41,2.12,2.12,3.17C62.17,20.07,62.28,20.07,62.7,20.22z M57.42,47.06c-0.21,0.33-0.43,0.53-0.4,0.67    c0.05,0.22,0.28,0.4,0.43,0.6c0.21-0.18,0.42-0.35,0.62-0.53C57.89,47.61,57.72,47.4,57.42,47.06z M88.17,46.61    c-0.36-0.24-0.53-0.44-0.73-0.47c-0.12-0.02-0.37,0.23-0.37,0.37c0,0.14,0.21,0.37,0.36,0.4C87.59,46.94,87.79,46.78,88.17,46.61z     M62.73,45.35c-0.19,0.29-0.28,0.43-0.38,0.58c0.2,0.11,0.39,0.23,0.6,0.32c0.04,0.02,0.19-0.11,0.18-0.12    C63.03,45.91,62.91,45.7,62.73,45.35z M94.23,50.43c0.26,0.43,0.44,0.73,0.61,1.03c0.02-0.05,0.08-0.11,0.07-0.14    c-0.15-0.32-0.31-0.63-0.47-0.93C94.43,50.38,94.31,50.42,94.23,50.43z M92.67,43.26c-0.14,0.07-0.28,0.14-0.42,0.2    c0.09,0.05,0.19,0.16,0.27,0.15c0.2-0.03,0.38-0.11,0.57-0.17C92.97,43.38,92.84,43.33,92.67,43.26z" />
		<path
   id="path839"
   d="M80.88,19.41c0.55-0.95,1.1-1.9,1.67-2.84c0.06-0.1,0.23-0.14,0.35-0.21c0.04,0.15,0.07,0.29,0.11,0.44    c0.16,0.55,0.36,1.1,0.48,1.66c0.13,0.64,0.15,1.29,0.28,1.93c0.12,0.58,0.31,1.15,0.47,1.73c0.4-0.48,0.78-0.97,1.19-1.44    c0.7-0.81,1.41-1.6,2.12-2.4c0.09,0.12,0.29,0.26,0.26,0.35c-0.49,1.8-0.03,3.99-2.13,5.14c-0.14,0.08-0.11,0.48-0.16,0.74    c0.24,0.03,0.53,0.16,0.71,0.07c1.47-0.78,2.93-1.61,4.39-2.41c0.03-0.02,0.15,0.04,0.15,0.04c-0.44,1.66-0.91,3.31-1.32,4.97    c-0.09,0.38-0.01,0.81-0.01,1.21c0.41-0.12,0.94-0.11,1.21-0.38c0.68-0.68,0.99-1.8,2.24-1.72c0.14,0.01,0.37,0.16,0.39,0.27    c0.16,0.88,0.58,1.86,0.34,2.63c-0.28,0.92-1,1.83-1.76,2.45c-0.85,0.69-1.98,1.03-2.97,1.56c-0.09,0.05-0.07,0.32-0.1,0.49    c0.45,0.07,0.95,0.3,1.33,0.17c1.41-0.5,2.76-1.21,4.19-1.63c0.32-0.09,0.91,0.68,1.35,1.09c0.05,0.05-0.02,0.36-0.12,0.44    c-0.89,0.76-1.82,1.48-2.71,2.25c-0.29,0.25-0.49,0.6-0.73,0.9c0.42,0.15,0.83,0.36,1.27,0.43c0.41,0.06,0.96-0.19,1.24,0    c0.47,0.33,0.77,0.9,1.15,1.37c-0.87,0.15-1.74,0.32-2.61,0.45c-0.12,0.02-0.27-0.2-0.41-0.22c-0.51-0.05-1.02-0.07-1.53-0.07    c-0.03,0-0.14,0.35-0.09,0.4c0.45,0.4,0.92,0.78,1.4,1.14c0.07,0.05,0.24-0.03,0.31,0.02c0.49,0.36,0.97,0.73,1.44,1.11    c0.05,0.05,0,0.22,0,0.33c-0.52-0.01-1.05,0.03-1.57-0.05c-0.85-0.13-1.69-0.34-2.53-0.48c-0.08-0.01-0.33,0.34-0.3,0.37    c0.73,0.95,1.48,1.88,2.22,2.81c0.2,0.25,0.39,0.51,0.59,0.77c-0.33,0.21-0.65,0.55-1.01,0.6c-1.32,0.19-4.39-1.68-5-2.87    c-0.24-0.47-0.72-0.81-1.1-1.19c-0.01-0.01-0.27,0.13-0.27,0.2c-0.09,1.33-0.15,2.65-0.23,3.98c-0.01,0.16-0.1,0.32-0.15,0.47    c-0.13-0.08-0.3-0.12-0.39-0.24c-0.54-0.75-1.04-1.52-1.59-2.25c-0.28-0.36-0.65-0.65-0.99-0.98c-0.14,0.36-0.29,0.72-0.43,1.09    c-0.12,0.32-0.21,0.64-0.32,0.96c-0.17-0.32-0.36-0.63-0.5-0.95c-0.15-0.34-0.17-0.79-0.41-1.03c-0.41-0.41-0.92-0.77-1.45-0.97    c-0.13-0.05-0.57,0.57-0.79,0.92c-0.59,0.96-1.13,1.95-1.73,2.9c-0.05,0.08-0.64-0.02-0.65-0.09c-0.17-1.12-0.28-2.25-0.4-3.38    c-0.02-0.2-0.06-0.39-0.09-0.58c-0.22,0.08-0.57,0.1-0.64,0.25c-0.37,0.8-0.69,1.62-0.98,2.45c-0.21,0.58-0.34,1.19-0.51,1.79    c-0.03,0.09-0.17,0.22-0.19,0.21c-0.17-0.08-0.4-0.17-0.45-0.31c-0.41-1.15-0.77-2.31-1.17-3.47c-0.07-0.21-0.23-0.4-0.36-0.59    c-0.19,0.16-0.45,0.28-0.55,0.48c-0.54,1.02-1.03,2.06-1.57,3.07c-0.13,0.24-0.37,0.41-0.56,0.62c-0.14-0.19-0.37-0.35-0.42-0.56    c-0.48-1.82-0.91-3.65-1.4-5.46c-0.09-0.32-0.41-0.57-0.63-0.85c-0.16,0.28-0.49,0.57-0.46,0.84c0.09,1.13,0.36,2.24,0.39,3.37    c0.01,0.36-0.54,0.73-0.84,1.1c-0.17-0.18-0.44-0.33-0.49-0.53c-0.21-0.99-0.34-1.99-0.54-2.97c-0.07-0.33-0.26-0.63-0.4-0.94    c-0.25,0.26-0.6,0.48-0.74,0.79c-0.72,1.55-1.36,3.14-2.09,4.69c-0.38,0.82-0.86,0.55-1.2-0.06c-1.04-1.86-1.52-3.8-0.64-5.88    c0.08-0.19-0.05-0.46-0.08-0.7c-0.22,0.12-0.54,0.19-0.65,0.38c-0.77,1.36-1.4,2.82-2.29,4.09c-0.42,0.59-1.33,0.84-2.01,1.24    c-0.04,0.02-0.1,0.02-0.15,0.03c0.01-0.06,0.02-0.13,0.04-0.18c0.44-0.97,0.91-1.93,1.33-2.9c0.08-0.18-0.02-0.43-0.03-0.64    c-0.19,0.1-0.41,0.17-0.58,0.29c-0.97,0.71-1.92,1.46-2.91,2.14c-0.2,0.13-0.58,0-0.87-0.02c0.04-0.23,0.03-0.49,0.13-0.69    c0.12-0.27,0.36-0.49,0.49-0.75c0.26-0.5,0.79-1.36,0.67-1.47c-0.51-0.46-1.22-0.7-1.86-1c-0.21-0.1-0.44-0.12-0.67-0.18    c0.15-0.21,0.26-0.47,0.46-0.62c1.11-0.83,2.25-1.63,3.37-2.46c0.1-0.07,0.18-0.36,0.15-0.39c-0.25-0.19-0.65-0.54-0.8-0.46    c-1.52,0.82-2.2-0.71-3.27-1.12c-0.07-0.03-0.1-0.51,0.01-0.63c0.61-0.66,1.25-1.3,1.92-1.9c0.16-0.15,0.48-0.19,0.72-0.16    c0.45,0.05,0.9,0.3,1.33,0.26c0.44-0.04,0.87-0.31,1.3-0.48c-0.34-0.39-0.62-0.94-1.05-1.14c-0.94-0.44-1.98-0.7-2.96-1.06    c-0.18-0.07-0.31-0.29-0.46-0.44c0.13-0.05,0.27-0.11,0.4-0.16c1.4-0.5,2.8-1.02,4.21-1.49c0.35-0.11,0.77-0.12,1.13-0.04    c0.43,0.08,0.82,0.34,1.25,0.43c0.07,0.02,0.4-0.51,0.33-0.63c-0.24-0.41-0.73-0.71-0.9-1.14c-0.48-1.21-0.85-2.47-1.25-3.71    c-0.01-0.02,0.06-0.07,0.09-0.11c0.05,0.07,0.1,0.14,0.14,0.21c1,2.14,2.82,3.13,5.04,3.55c0.11,0.02,0.35-0.08,0.35-0.14    c0.01-0.2-0.05-0.4-0.1-0.6c-0.49-2.23-0.97-4.46-1.45-6.7c-0.02-0.1,0.04-0.22,0.07-0.34c0.08,0.11,0.19,0.2,0.24,0.32    c1.08,2.33,2.78,3.99,5.27,4.73c0.34,0.1,0.73,0.01,1.1,0.01c-0.18-0.26-0.43-0.5-0.54-0.79c-0.22-0.57-0.47-1.17-0.5-1.77    c-0.05-0.81,0.09-1.64,0.15-2.46c0.01-0.13,0.08-0.25,0.12-0.37c0.12,0.05,0.3,0.07,0.35,0.16c0.9,1.57,1.77,3.15,2.66,4.73    c0.19,0.33,0.43,0.64,0.64,0.95c0.09-0.38,0.24-0.75,0.27-1.14c0.14-1.61-1.35-3.11-0.34-4.77c0.09-0.15,0.5-0.27,0.65-0.19    c0.63,0.36,1.2,0.84,1.84,1.17c0.22,0.11,0.69,0.01,0.88-0.17c0.16-0.15,0.02-0.56,0.1-0.84c0.21-0.75,0.46-1.49,0.69-2.24    c0.36,0.41,0.74,0.81,1.09,1.22c0.56,0.64,1.01,1.52,1.71,1.84c0.34,0.15,1.18-0.74,1.74-1.21c0.38-0.32,0.69-0.74,1.03-1.11    c0.16,0.48,0.37,0.94,0.48,1.43c0.32,1.5,0.59,3.02,0.91,4.52c0.03,0.16,0.28,0.38,0.43,0.38c0.18,0,0.48-0.17,0.52-0.33    c0.23-0.83,0.39-1.68,0.58-2.52C81.21,19.57,81.04,19.49,80.88,19.41z M72.86,20.76c-0.73,0.95-1.29,1.37-1.43,1.9    c-0.44,1.76-0.74,3.57-1.06,5.36c-0.04,0.21,0.12,0.44,0.19,0.67c0.18-0.13,0.47-0.23,0.52-0.41c0.42-1.35,0.79-2.71,1.19-4.07    c0.11-0.36,0.26-0.69,0.4-1.04c0.1,0.32,0.2,0.64,0.31,0.95c0.14,0.4,0.28,0.8,0.45,1.18c0.04,0.08,0.25,0.09,0.38,0.13    c0.09-0.66,0.36-1.35,0.24-1.97C73.9,22.69,73.43,21.99,72.86,20.76z M85.64,25.3c-0.11-0.09-0.26-0.3-0.47-0.38    c-0.93-0.36-3.82,0.65-4.34,1.53c-0.08,0.13-0.08,0.43,0,0.5c0.13,0.11,0.41,0.18,0.56,0.11c0.71-0.32,1.4-0.7,2.1-1.04    c0.13-0.06,0.3-0.07,0.45-0.06c0.03,0,0.11,0.18,0.09,0.21c-0.88,1.23,0.57,1.04,0.91,1.52c0.18,0.26,0.36,0.65,0.29,0.92    c-0.11,0.45-0.44,0.85-0.64,1.28c-0.05,0.11,0.04,0.29,0.07,0.44c0.68-0.4,1.43-0.71,1.99-1.24c0.18-0.17,0.02-1.12-0.26-1.31    c-0.86-0.59-1.75-1.03-0.77-2.22C85.65,25.55,85.63,25.51,85.64,25.3z M87.43,37.71c-0.16-0.2-0.49-0.63-0.83-1.07    c-0.19,0.35-0.33,0.75-0.58,1.04c-0.14,0.16-0.65,0.26-0.71,0.18c-0.45-0.63-0.77-1.34-1.25-1.94c-0.19-0.24-0.68-0.24-1.03-0.34    c-0.05,0.33-0.19,0.68-0.13,0.99c0.29,1.38,1.05,2.3,2.48,2.76C86.51,39.7,87.44,39.26,87.43,37.71z M56.1,31.6    c-0.37,0.56-0.9,1-0.91,1.46c-0.02,1.04,2.96,3.78,4,3.81c0.24,0.01,0.48-0.23,0.73-0.35c-0.13-0.24-0.21-0.55-0.41-0.72    c-1.02-0.83-2.07-1.62-3.1-2.44c-0.1-0.08-0.11-0.28-0.15-0.42c0.16-0.04,0.34-0.15,0.47-0.11c0.58,0.2,1.15,0.47,1.73,0.67    c0.16,0.05,0.36-0.05,0.55-0.08c-0.07-0.16-0.1-0.42-0.22-0.48C58,32.51,57.19,32.13,56.1,31.6z"
   class="st1" />
		<path
   id="path841"
   d="M84.63,69.9c0.05,0.72,0.21,1.5-0.97,0.76c-0.32-0.2-0.96-0.02-1.37,0.17c-0.12,0.05,0.05,0.74,0.09,1.14    c0.01,0.1,0.05,0.2,0.08,0.3c-0.1-0.01-0.2-0.01-0.3-0.04c-0.91-0.24-1.82-0.48-2.73-0.73c-0.05-0.01-0.13-0.06-0.15-0.04    c-1.4,1.29-3.27-0.36-4.75,0.74c-0.23,0.17-0.84-0.25-1.26-0.23c-0.73,0.03-1.45,0.23-2.17,0.3c-0.45,0.04-0.92-0.02-1.37-0.04    c-0.19-0.01-0.51-0.11-0.56-0.04c-0.58,0.91-0.93,0.48-1.32-0.16c-0.11-0.17-0.41-0.32-0.61-0.31c-0.15,0.01-0.27,0.3-0.43,0.45    c-0.2,0.18-0.42,0.34-0.63,0.51c-0.28-0.41-0.58-0.82-0.84-1.25c-0.16-0.26-0.25-0.56-0.37-0.84c-0.16,0.28-0.3,0.58-0.49,0.84    c-0.43,0.6-0.79,1.37-1.38,1.69c-0.34,0.18-1.08-0.37-1.64-0.6c-0.06-0.03-0.11-0.13-0.16-0.13c-2.07-0.04-1.18-1.64-1.42-2.65    c-0.05-0.21-0.21-0.39-0.32-0.59c-0.14,0.16-0.32,0.31-0.43,0.49c-0.28,0.47-0.53,0.96-0.8,1.45c0-0.45-0.01-0.89-0.01-1.34    c0-0.76,0.17-1.61-1-1.69c-0.06,0-0.16-0.18-0.14-0.25c0.27-1.08,0.57-2.16,0.83-3.25c0.1-0.43,0.13-0.88,0.19-1.33    c-0.39,0.15-0.86,0.21-1.16,0.47c-0.61,0.52-1.11,1.14-1.68,1.71c-0.12,0.12-0.31,0.17-0.46,0.25c0.02-0.14,0.01-0.28,0.05-0.42    c0.22-0.74,0.65-1.47,0.64-2.21c-0.02-1.71,1.43-2.62,1.94-4.01c0.1-0.28-0.26-0.73-0.41-1.1c-0.26,0.16-0.58,0.28-0.78,0.5    c-0.97,1.03-1.91,2.08-2.87,3.12c-0.08,0.08-0.24,0.09-0.37,0.13c0.06-0.1,0.14-0.2,0.18-0.31c0.57-1.59,1.11-3.19,1.69-4.77    c0.29-0.79,0.68-1.55,0.96-2.34c0.06-0.17-0.17-0.44-0.27-0.67c-0.22,0.11-0.49,0.18-0.64,0.35c-0.65,0.74-1.26,1.51-1.91,2.25    c-0.07,0.08-0.28,0.03-0.43,0.05c0-0.31-0.05-0.63,0.02-0.92c0.38-1.54,0.85-3.07,1.19-4.62c0.22-0.99,0.2-2.04,0.42-3.03    c0.07-0.33,0.55-0.56,0.85-0.84c0.06,0.28,0.16,0.56,0.17,0.85c0.03,0.85-0.22,1.8,0.1,2.51c0.26,0.59,1.11,1.09,1.79,1.29    c2.54,0.73,4.92,0.4,6.8-1.65c0.29-0.31,0.32-0.86,0.55-1.24c0.29-0.47,0.84-0.83,0.96-1.32c0.28-1.06,0.3-1.04,1.12-0.23    c1.18,1.17,0.39,1.35-0.39,2.09c-1.18,1.13-2.06,2.56-3.01,3.91c-0.06,0.08,0.37,0.62,0.67,0.8c0.2,0.12,0.7,0.09,0.82-0.06    c0.45-0.58,0.85-1.21,1.18-1.86c1.16-2.26,3.01-2.88,5.21-1.66c1.49,0.83,2.88,0.44,4.11-0.42c1.6-1.12,4.56-0.51,5.35,1.28    c0.37,0.84,0.61,1.75,0.98,2.59c0.11,0.25,0.43,0.39,0.66,0.59c0.19-0.3,0.59-0.66,0.53-0.89c-0.7-2.52-1.63-4.88-4.56-5.64    c-0.21-0.05-0.5-0.55-0.45-0.76c0.23-0.91,0.57-1.79,0.89-2.67c0.05-0.13,0.2-0.23,0.31-0.34c0.07,0.09,0.15,0.17,0.21,0.26    c0.68,1,1.36,2.01,2.04,3.01c0.06,0.09,0.2,0.17,0.22,0.26c0.31,2.17,2.94,4.04,5.25,3.6c1.97-0.38,3.83-0.96,4.25-3.41    c0.03-0.16,1.29-0.11,1.97-0.16c0.01,0,0.02,0.03,0.03,0.04c0.91,1.08,0.86,1.05,0.04,1.76c-0.28,0.24-0.33,0.87-0.3,1.32    c0.02,0.34,0.32,0.66,0.5,0.99c0.14,0.28,0.28,0.57,0.42,0.85c-0.47-0.07-0.95-0.09-1.41-0.21c-0.83-0.2-1.64-0.47-2.47-0.67    c-0.08-0.02-0.34,0.28-0.32,0.4c0.02,0.14,0.25,0.34,0.4,0.35c1.3,0.11,1.88,1.04,2.4,2.04c0.03,0.06-0.06,0.25-0.07,0.25    c-0.27-0.04-0.54-0.07-0.79-0.17c-0.22-0.09-0.42-0.25-0.63-0.38c-0.02,0.24-0.13,0.53-0.04,0.72c0.59,1.3,1.23,2.58,1.84,3.87    c0.06,0.13,0.06,0.29,0.09,0.44c-0.15-0.03-0.36-0.02-0.44-0.11c-0.49-0.53-0.92-1.13-1.44-1.62c-0.36-0.34-0.84-0.54-1.27-0.8    c-0.16,0.6-0.61,1.3-0.43,1.78c0.51,1.37,1.27,2.64,1.92,3.96c0.07,0.15,0.06,0.33,0.09,0.5c-0.14-0.09-0.3-0.16-0.41-0.27    c-0.75-0.75-1.48-1.51-2.23-2.26c-0.07-0.07-0.35-0.07-0.36-0.04c-0.07,0.18-0.17,0.4-0.12,0.57c0.45,1.64,0.93,3.27,1.39,4.9    c0.04,0.13,0.03,0.27,0.04,0.41c-0.15-0.03-0.36-0.02-0.43-0.11c-0.48-0.63-0.91-1.29-1.4-1.91c-0.18-0.23-0.62-0.56-0.67-0.52    c-0.34,0.28-0.89,0.68-0.85,0.98c0.14,1.21,0.49,2.39,0.72,3.6c0.02,0.1-0.32,0.41-0.38,0.38C84.9,67.92,84.51,68.58,84.63,69.9z     M69.12,52.56c-3.61,0.16-6.77,3.55-5.75,7.17c0.04,0.16-0.11,0.38-0.18,0.57c-0.08,0.22-0.29,0.57-0.23,0.62    c1.31,1.14,1.3,2.66,1.5,4.23c0.27,2.09,0.74,4.39,3.16,5.07c3.61,1.02,7.3,1.28,11.06,0.7c1.88-0.29,3.52-0.75,3.82-2.84    c0.26-1.76,0.17-3.56,0.23-5.35c0.03-0.74-0.09-1.51,0.09-2.2c0.28-1.02,1.72-1.72,0.19-3.09c-1.33-1.2-2.14-2.96-3.23-4.43    c-0.88-1.19-2.41-1.37-3.59-0.46c-0.74,0.57-1.4,1.26-2.16,1.82c-0.7,0.51-1.49,0.9-2.13-0.11C71.17,53.07,70.2,52.44,69.12,52.56    z M60.56,56.49c-0.34,0.3-0.88,0.54-0.92,0.85c-0.15,1.04-0.13,2.1-0.18,3.15c0.48,0.02,0.97,0.04,1.45,0.06    c-0.14-0.26-0.29-0.52-0.41-0.79c-0.05-0.11-0.09-0.28-0.04-0.38c0.25-0.6,0.53-1.19,0.77-1.8c0.08-0.2,0.19-0.49,0.11-0.62    C61.23,56.78,60.95,56.71,60.56,56.49z M60.55,67.42c0.15,0.55,0.14,0.87,0.29,0.97c0.55,0.4,1.16,0.74,1.74,1.1    c-0.03-0.48-0.06-0.96-0.09-1.44c-0.01-0.09,0-0.18-0.04-0.26c-0.2-0.4-0.41-0.79-0.62-1.18C61.38,66.89,60.94,67.17,60.55,67.42z     M59.16,54.42c0.59-0.34,1.34-0.74,2.05-1.2c0.23-0.15,0.36-0.44,0.54-0.67c-0.38-0.05-0.8-0.24-1.13-0.12    c-0.63,0.22-1.21,0.59-1.79,0.93c-0.38,0.22-0.73,0.48-1.1,0.73C58.11,54.16,58.47,54.25,59.16,54.42z M86.63,53.54    c-0.14,0.42-0.4,0.84-0.3,0.96c0.48,0.57,1.04,1.09,1.64,1.54c0.06,0.05,0.55-0.47,0.84-0.73C88.23,54.85,87.66,54.38,86.63,53.54    z M87.04,61.44c-0.09-0.28-0.19-0.57-0.28-0.85c-0.77-0.11-1.53-0.23-2.3-0.33c-0.14-0.02-0.29,0.05-0.43,0.07    c0.11,0.23,0.15,0.58,0.33,0.68c0.56,0.31,1.16,0.6,1.78,0.76C86.39,61.84,86.74,61.56,87.04,61.44z"
   class="st1" />
		<path
   id="path843"
   d="M96.52,60.87c0.44,1.81,0.88,3.62,1.31,5.43c0.02,0.1-0.04,0.22-0.06,0.33c-0.23-0.13-0.56-0.21-0.68-0.4    c-0.66-1.07-1.26-2.18-1.89-3.28c-0.07-0.13-0.17-0.25-0.26-0.37c-0.09,0.13-0.25,0.25-0.26,0.38c-0.04,0.44-0.1,0.89-0.04,1.31    c0.23,1.46,0.52,2.91,0.77,4.36c0.19,1.09,0.38,2.18,0.54,3.28c0.03,0.22-0.08,0.45-0.13,0.68c-0.17-0.14-0.43-0.25-0.51-0.43    c-0.56-1.34-1.07-2.7-1.64-4.04c-0.1-0.23-0.44-0.35-0.67-0.52c-0.12,0.21-0.39,0.47-0.34,0.63c0.23,0.73,0.61,1.42,0.8,2.16    c0.12,0.47,0.07,1,0,1.49c-0.17,1.13-0.39,2.26-0.62,3.39c-0.06,0.27-0.21,0.53-0.33,0.79c-0.15-0.23-0.34-0.45-0.45-0.7    c-0.49-1.16-0.89-2.35-1.46-3.47c-0.21-0.41-0.79-0.63-1.2-0.94c-0.06,0.41-0.24,0.85-0.15,1.21c0.22,0.87,0.74,1.68,0.82,2.55    c0.07,0.81-0.26,1.66-0.43,2.49c-0.03,0.13-0.13,0.25-0.19,0.38c-0.19,0.45-0.37,0.91-0.55,1.36c-0.29-0.42-0.67-0.81-0.85-1.28    c-0.61-1.53-1.13-3.1-1.73-4.63c-0.08-0.2-0.45-0.28-0.69-0.42c-0.2,0.36-0.51,0.7-0.57,1.08c-0.25,1.6-0.42,3.22-0.63,4.83    c-0.01,0.08-0.06,0.16-0.09,0.25c-0.05-0.08-0.11-0.16-0.14-0.25c-0.39-1.14-0.74-2.3-1.21-3.41c-0.12-0.28-0.61-0.4-0.93-0.6    c-0.09,0.3-0.35,0.7-0.24,0.89c1.42,2.41-1,3.73-1.55,5.57c-0.02,0.08-0.19,0.11-0.3,0.16c-0.08-0.17-0.19-0.34-0.23-0.52    c-0.37-1.53-0.7-3.07-1.13-4.58c-0.13-0.44-0.53-0.81-0.81-1.21c-0.19,0.17-0.59,0.42-0.56,0.49c0.63,1.41-0.04,2.55-0.69,3.72    c-0.42,0.75-0.72,1.58-1.07,2.37c-0.02,0.04-0.07,0.06-0.1,0.09c-0.02-0.07-0.04-0.14-0.08-0.2c-0.62-0.96-0.45-1.94-0.09-2.93    c0.05-0.15,0.12-0.31,0.11-0.47c-0.05-0.48-0.13-0.95-0.2-1.42c-0.44,0.32-1.07,0.54-1.29,0.97c-0.64,1.25-1.13,2.59-1.68,3.89    c-0.04,0.09-0.14,0.15-0.21,0.22c-0.17-0.41-0.57-0.89-0.48-1.23c0.35-1.35,0.88-2.66,1.28-4.01c0.09-0.32-0.03-0.7-0.06-1.05    c-0.23,0.16-0.58,0.27-0.68,0.5c-0.83,1.77-1.61,3.56-2.44,5.33c-0.04,0.09-0.38,0.11-0.56,0.06c-0.15-0.04-0.25-0.26-0.4-0.34    c-1.48-0.73-1.64-2.01-1.53-3.46c0.02-0.28-0.38-0.59-0.59-0.88c-0.18,0.18-0.43,0.32-0.53,0.54c-0.65,1.45-1.26,2.92-1.92,4.37    c-0.06,0.14-0.3,0.2-0.45,0.3c-0.06-0.16-0.14-0.32-0.18-0.48c-0.37-1.51-0.72-3.02-1.11-4.52c-0.04-0.17-0.31-0.42-0.42-0.39    c-0.18,0.04-0.43,0.26-0.46,0.43c-0.23,1.35-0.39,2.72-0.62,4.08c-0.08,0.46-0.32,0.89-0.5,1.32c-0.03,0.06-0.17,0.08-0.25,0.12    c-0.03-0.11-0.08-0.22-0.08-0.34c-0.04-1.63-0.05-3.26-0.13-4.89c-0.01-0.19-0.35-0.53-0.47-0.5c-0.34,0.07-0.74,0.23-0.94,0.48    c-0.56,0.7-1.03,1.48-1.55,2.21c-0.01,0.01-0.27-0.09-0.28-0.16c-0.24-1.53-0.44-3.06-0.69-4.59c-0.05-0.33-0.26-0.64-0.39-0.95    c-0.15,0.24-0.37,0.47-0.45,0.73c-0.26,0.8-0.42,1.64-0.73,2.42c-0.09,0.22-0.53,0.31-0.8,0.45c-0.02-0.24-0.08-0.5-0.04-0.73    c0.28-1.6,0.58-3.19,0.86-4.78c0.01-0.06-0.12-0.22-0.16-0.22c-0.19,0.04-0.45,0.06-0.55,0.19c-0.33,0.41-0.59,0.89-0.91,1.31    c-0.18,0.23-0.43,0.39-0.66,0.58c0.05-0.28,0.11-0.56,0.15-0.84c0.21-1.59,0.42-3.19,0.59-4.79c0.02-0.16-0.23-0.35-0.35-0.52    c-0.16,0.17-0.34,0.32-0.48,0.5c-0.32,0.41-0.62,0.84-0.93,1.26c-0.01-0.65-0.23-1.42,0.03-1.92c0.45-0.86,1.23-1.55,1.84-2.34    c0.17-0.22,0.2-0.53,0.29-0.81c-0.27-0.08-0.54-0.18-0.82-0.24c-0.07-0.02-0.16,0.05-0.25,0.08c-0.75,0.27-1.5,0.53-2.25,0.8    c0.2-0.78,0.34-1.57,0.62-2.32c0.47-1.3,1.01-2.58,1.57-3.84c0.08-0.19,0.39-0.29,0.6-0.42c0.08,0.19,0.27,0.43,0.21,0.58    c-0.44,1.27-0.95,2.53-1.38,3.81c-0.05,0.15,0.25,0.53,0.46,0.6c0.24,0.09,0.55-0.04,0.83-0.1c0.51-0.09,1.02-0.19,1.53-0.29    c-0.14,0.67-0.24,1.35-0.44,2c-0.21,0.67-0.59,1.3-0.73,1.97c-0.03,0.16,0.78,0.74,0.98,0.64c1.27-0.62,1.7,0.01,1.83,1.11    c0.15,1.22,0.1,2.47,0.4,3.65c0.12,0.47,0.92,0.77,1.41,1.15c0.18,0.14,0.51,0.23,0.54,0.39c0.14,0.96,1.12,1.39,2.01,0.97    c0.37-0.18,0.91,0.05,1.37,0.01c0.88-0.06,1.75-0.17,2.62-0.27c0.25-0.03,0.57-0.16,0.73-0.05c0.93,0.62,1.72,0.33,1.93-0.74    c0.01-0.06,0.28-0.14,0.36-0.1c0.41,0.27,0.78,0.61,1.21,0.86c0.2,0.12,0.52,0.2,0.73,0.13c0.55-0.18,1.07-0.42,1.59-0.68    c0.91-0.46,1.77-0.76,2.75-0.08c0.26,0.19,0.76,0.02,1.15,0.05c0.64,0.05,1.28,0.13,1.92,0.19c0.47,0.05,1.08,0.3,1.38,0.1    c1.62-1.12,3.38-0.32,5.05-0.53c0.29-0.04,0.78-0.26,0.79-0.43c0.05-0.84,0.54-0.72,1.14-0.77c1.24-0.1,0.85-0.97,0.68-1.72    c-0.07-0.29-0.03-0.61-0.04-0.91c0.33,0.09,0.65,0.22,0.98,0.28c0.45,0.08,0.92,0.14,1.37,0.11c0.06,0,0.12-0.59,0.12-0.91    c-0.01-0.35-0.09-0.7-0.14-1.06c-0.05-0.4-0.1-0.81-0.14-1.21c0.4,0.25,0.81,0.49,1.2,0.76c0.36,0.24,0.67,0.59,1.06,0.75    c0.27,0.11,0.74,0.08,0.94-0.09c0.18-0.15,0.23-0.61,0.16-0.89c-0.21-0.92-0.5-1.81-0.76-2.72c-0.03-0.12-0.05-0.24-0.07-0.36    c0.11,0.02,0.23,0.05,0.34,0.07c0.47,0.11,0.93,0.31,1.4,0.31c0.51,0,1.01-0.18,1.52-0.29c-0.18-0.34-0.37-0.67-0.54-1.01    c-0.51-0.99-1.02-1.99-1.52-2.99c-0.04-0.07-0.04-0.16-0.06-0.24c0.08,0.02,0.16,0.03,0.24,0.05c0.8,0.29,1.58,0.61,2.39,0.86    c0.2,0.06,0.58-0.02,0.69-0.18c0.11-0.15,0.09-0.52-0.02-0.71c-0.51-0.89-1.06-1.75-1.6-2.63c-0.08-0.13-0.12-0.29-0.18-0.43    c0.17,0.02,0.33,0.04,0.5,0.06c0.31,0.04,0.61,0.07,0.92,0.11c-0.01-0.29,0.03-0.6-0.03-0.88c-0.09-0.4-0.16-0.83-0.38-1.16    c-0.93-1.42,0.74-1.24,1.11-1.85c0.2,0.36,0.41,0.72,0.61,1.08c0.7,1.29,1.4,2.58,2.08,3.88c0.09,0.18,0.12,0.39,0.18,0.58    c-0.16-0.06-0.34-0.18-0.49-0.15c-0.18,0.04-0.44,0.18-0.47,0.32c-0.13,0.57-0.19,1.15-0.28,1.73    C96.75,60.8,96.63,60.83,96.52,60.87z"
   class="st1" />
		<path
   id="path845"
   d="M49.21,17.97c-0.17-1.47-0.48-2.94-0.48-4.42c0-1.58,0.27-3.16,0.44-4.74c0.01-0.12,0.12-0.23,0.19-0.35    c0.08,0.07,0.18,0.12,0.23,0.21c1.78,3.16,4.37,5.56,7.02,7.98c1.76,1.62,1.69,4.12,1.66,6.42c0,0.06-0.16,0.19-0.19,0.18    c-0.21-0.11-0.48-0.21-0.6-0.39c-0.89-1.41-1.75-2.85-2.64-4.26c-0.14-0.22-0.43-0.35-0.66-0.53c-0.17,0.24-0.47,0.48-0.47,0.73    c-0.05,1.94-0.04,3.88-0.05,5.83c0,0.12-0.02,0.26-0.08,0.36c-0.29,0.52-0.59,1.03-0.89,1.54c-0.23-0.45-0.44-0.91-0.7-1.34    c-0.67-1.1-1.49-2.12-2-3.29c-0.53-1.22-0.77-2.56-1.14-3.85C48.96,18.03,49.08,18,49.21,17.97z M49.41,14.35    c0.06,3.5,0.53,5.26,2.65,9.53c0.18,0.37,0.6,0.62,0.91,0.93c0.11-0.51,0.43-1.1,0.28-1.53c-0.58-1.65-1.44-3.2-1.94-4.87    c-0.54-1.8-0.8-3.69-1.21-5.54c-0.05-0.21-0.26-0.39-0.4-0.58c-0.1,0.2-0.26,0.4-0.28,0.61C49.38,13.38,49.41,13.87,49.41,14.35z"
   class="st1" />
		<path
   id="path847"
   d="M91.92,24.59c0.25-1.32,0.5-2.37,0.62-3.43c0.04-0.34-0.2-0.81-0.47-1.05c-0.2-0.18-0.7-0.18-0.98-0.06    c-0.62,0.26-1.18,0.65-1.78,0.97c-0.13,0.07-0.31,0.05-0.46,0.07c0.04-0.17,0.03-0.41,0.13-0.5c0.55-0.48,1.12-0.93,1.69-1.38    c1.64-1.3,3.28-2.61,4.94-3.89c1.39-1.07,2.82-2.08,4.21-3.14c0.39-0.3,0.71-0.68,1.07-1.02c0.08-0.07,0.19-0.1,0.29-0.15    c0.02,0.1,0.07,0.21,0.04,0.3c-0.74,2.69-1.31,5.46-2.3,8.05c-0.59,1.55-1.99,2.78-2.78,4.28c-0.56,1.07-0.69,2.35-1.03,3.54    c-0.04,0.15-0.18,0.27-0.27,0.4c-0.06-0.18-0.19-0.36-0.17-0.52c0.09-0.83,0.26-1.65,0.31-2.49c0.01-0.16-0.39-0.51-0.53-0.48    c-0.6,0.16-1.16,0.44-1.74,0.64C92.57,24.78,92.36,24.67,91.92,24.59z M94.19,22.65c0.19,0.49,0.23,0.8,0.35,0.83    c0.17,0.05,0.51-0.04,0.59-0.18c0.34-0.62,0.57-1.3,0.93-1.91c1.03-1.75,2.11-3.45,3.12-5.21c0.11-0.2-0.15-0.61-0.24-0.92    c-0.26,0.2-0.62,0.35-0.77,0.61c-0.84,1.51-1.59,3.07-2.45,4.57C95.26,21.26,94.65,21.99,94.19,22.65z"
   class="st1" />
		<path
   id="path849"
   d="M89.09,16.95c0.61-0.77,1.15-1.74,1.95-2.38c1.51-1.21,3.13-2.31,4.8-3.3c1.23-0.73,2.6-1.22,3.91-1.82    c0.06-0.03,0.13-0.02,0.19-0.02C99.89,9.5,99.87,9.6,99.8,9.65c-1.54,1.22-3.12,2.4-4.63,3.65c-1.63,1.34-3.2,2.75-4.8,4.12    c-0.28,0.24-0.58,0.46-0.87,0.68C89.38,17.78,89.27,17.45,89.09,16.95z"
   class="st1" />
		<path
   id="path851"
   d="M72.75,49.11c-1.23-0.47-2.26-0.85-3.28-1.27c-0.06-0.03-0.1-0.36-0.03-0.42c0.33-0.32,0.68-0.61,1.06-0.86    c0.05-0.03,0.31,0.19,0.43,0.34c0.44,0.53,0.76,1.29,1.33,1.57c1.35,0.67,1.67-0.36,1.89-1.4c0.03-0.16,0.13-0.3,0.19-0.46    c0.33,0.33,0.67,0.66,0.99,1.01c0.05,0.05,0.03,0.27-0.01,0.3C74.42,48.34,73.52,48.75,72.75,49.11z"
   class="st1" />
		<path
   id="path853"
   d="M53.59,11.25c0.03,0.02,0.06,0.04,0.09,0.06c1.64,1.21,3.28,2.41,4.9,3.65c0.21,0.16,0.24,0.54,0.36,0.82    c-0.33-0.05-0.77,0.01-0.98-0.18c-1.47-1.34-2.89-2.73-4.33-4.11c-0.06-0.06-0.08-0.15-0.12-0.22    C53.53,11.26,53.56,11.26,53.59,11.25z"
   class="st1" />
		<path
   id="path855"
   d="M62.7,20.22c-0.42-0.15-0.53-0.16-0.56-0.21c-0.71-1.05-1.42-2.11-2.12-3.17c-0.01-0.01,0.07-0.08,0.1-0.11    C60.91,17.8,61.7,18.88,62.7,20.22z"
   class="st1" />
		<path
   id="path857"
   d="M57.42,47.06c0.3,0.34,0.47,0.54,0.65,0.74c-0.21,0.18-0.42,0.35-0.62,0.53c-0.15-0.2-0.38-0.38-0.43-0.6    C56.99,47.59,57.21,47.39,57.42,47.06z"
   class="st1" />
		<path
   id="path859"
   d="M88.17,46.61c-0.38,0.16-0.57,0.33-0.74,0.3c-0.15-0.02-0.36-0.26-0.36-0.4c0-0.13,0.26-0.38,0.37-0.37    C87.64,46.17,87.81,46.37,88.17,46.61z"
   class="st1" />
		<path
   id="path861"
   d="M62.73,45.35c0.18,0.35,0.3,0.56,0.41,0.79c0.01,0.01-0.15,0.14-0.18,0.12c-0.21-0.09-0.4-0.21-0.6-0.32    C62.44,45.78,62.54,45.63,62.73,45.35z"
   class="st1" />
		<path
   id="path863"
   d="M94.23,50.43c0.08-0.02,0.2-0.06,0.21-0.04c0.17,0.31,0.33,0.62,0.47,0.93c0.01,0.03-0.04,0.09-0.07,0.14    C94.67,51.17,94.49,50.87,94.23,50.43z"
   class="st1" />
		<path
   id="path865"
   d="M92.67,43.26c0.17,0.07,0.3,0.13,0.42,0.18c-0.19,0.06-0.38,0.15-0.57,0.17c-0.08,0.01-0.18-0.1-0.27-0.15    C92.39,43.39,92.53,43.32,92.67,43.26z"
   class="st1" />
		<path
   id="path867"
   d="M72.86,20.76c0.57,1.24,1.04,1.94,1.19,2.7c0.12,0.62-0.14,1.31-0.24,1.97c-0.13-0.04-0.34-0.05-0.38-0.13    c-0.18-0.38-0.31-0.78-0.45-1.18c-0.11-0.31-0.21-0.63-0.31-0.95c-0.13,0.35-0.29,0.69-0.4,1.04c-0.4,1.36-0.77,2.72-1.19,4.07    c-0.05,0.17-0.34,0.27-0.52,0.41c-0.07-0.22-0.22-0.46-0.19-0.67c0.32-1.79,0.62-3.59,1.06-5.36    C71.56,22.13,72.12,21.71,72.86,20.76z" />
		<path
   id="path869"
   d="M85.64,25.3c-0.01,0.21,0,0.25-0.02,0.28c-0.99,1.18-0.1,1.62,0.77,2.22c0.28,0.19,0.44,1.14,0.26,1.31    c-0.56,0.52-1.31,0.84-1.99,1.24c-0.03-0.15-0.12-0.33-0.07-0.44c0.2-0.44,0.52-0.83,0.64-1.28c0.07-0.27-0.11-0.66-0.29-0.92    c-0.34-0.49-1.79-0.29-0.91-1.52c0.03-0.04-0.06-0.21-0.09-0.21c-0.15,0-0.32,0-0.45,0.06c-0.7,0.34-1.39,0.72-2.1,1.04    c-0.15,0.07-0.43,0-0.56-0.11c-0.09-0.07-0.08-0.37,0-0.5c0.52-0.87,3.41-1.89,4.34-1.53C85.38,25,85.54,25.21,85.64,25.3z" />
		<path
   id="path871"
   d="M87.43,37.71c0.01,1.55-0.93,1.98-2.05,1.62c-1.44-0.47-2.19-1.38-2.48-2.76c-0.06-0.31,0.08-0.66,0.13-0.99    c0.35,0.11,0.84,0.1,1.03,0.34c0.48,0.59,0.81,1.31,1.25,1.94c0.06,0.08,0.57-0.02,0.71-0.18c0.26-0.29,0.4-0.69,0.58-1.04    C86.94,37.08,87.28,37.51,87.43,37.71z" />
		<path
   id="path873"
   d="M56.1,31.6c1.1,0.53,1.9,0.91,2.69,1.32c0.12,0.06,0.15,0.32,0.22,0.48c-0.18,0.03-0.39,0.14-0.55,0.08    c-0.59-0.2-1.15-0.47-1.73-0.67c-0.13-0.04-0.31,0.07-0.47,0.11c0.05,0.14,0.05,0.34,0.15,0.42c1.03,0.82,2.08,1.61,3.1,2.44    c0.2,0.16,0.28,0.47,0.41,0.72c-0.24,0.12-0.49,0.36-0.73,0.35c-1.05-0.02-4.03-2.77-4-3.81C55.2,32.61,55.73,32.16,56.1,31.6z" />
		<path
   id="path875"
   d="M69.12,52.56c1.08-0.12,2.05,0.52,2.78,1.68c0.63,1.02,1.43,0.63,2.13,0.11c0.76-0.56,1.41-1.24,2.16-1.82    c1.18-0.91,2.71-0.73,3.59,0.46c1.09,1.47,1.9,3.23,3.23,4.43c1.53,1.38,0.09,2.07-0.19,3.09c-0.19,0.69-0.07,1.47-0.09,2.2    c-0.06,1.78,0.03,3.59-0.23,5.35c-0.31,2.08-1.94,2.54-3.82,2.84c-3.76,0.59-7.45,0.33-11.06-0.7c-2.41-0.68-2.89-2.98-3.16-5.07    c-0.2-1.56-0.19-3.09-1.5-4.23c-0.06-0.05,0.15-0.41,0.23-0.62c0.07-0.19,0.22-0.41,0.18-0.57C62.35,56.1,65.51,52.72,69.12,52.56    z M66.03,65.17c-0.06,2.19,1.56,4.08,3.67,4.15c2.89,0.09,5.8,0.09,8.69-0.02c0.69-0.03,1.86-0.53,1.96-1    c0.42-1.94,0.52-3.95,0.74-5.94c0,0-0.14-0.05-0.17-0.02c-0.77,0.74-1.56,1.47-2.3,2.24c-0.78,0.82-1.37,2.1-2.31,2.45    c-1.26,0.47-2.83,0.49-4.18,0.23c-2.31-0.45-3.56-2.58-5.31-3.93c-0.18-0.14-0.48-0.15-0.72-0.16c-0.06,0-0.18,0.24-0.17,0.37    C65.94,64.08,65.99,64.63,66.03,65.17z M72.44,60.85c-0.09-1.26-0.14-2.25-0.22-3.24c-0.03-0.38-0.01-1.04-0.17-1.09    c-1.36-0.44-2.74-0.91-4.15-1.07c-0.58-0.06-1.28,0.58-1.86,1c-0.47,0.34-1.15,0.79-1.2,1.25c-0.12,1.21-0.42,2.61,1.05,3.38    c0.72,0.37,1.4,0.86,2.16,1.08c1.26,0.37,2.57,0.6,3.86,0.83c0.14,0.02,0.49-0.35,0.52-0.57C72.49,61.82,72.44,61.2,72.44,60.85z     M74.28,59.22c-0.06,0.01-0.12,0.02-0.18,0.03c0,1.02-0.18,2.09,0.05,3.05c0.23,0.92,3,1.15,3.77,0.41    c0.78-0.75,1.65-1.44,2.26-2.32c0.55-0.78,1.03-1.74,1.13-2.67c0.19-1.69-2-1.58-2.48-2.86c-0.06,0.03-0.11,0.08-0.18,0.09    c-0.41,0.11-0.9,0.42-1.21,0.29c-1.18-0.5-2.12,0.01-2.84,0.74c-0.43,0.43-0.55,1.25-0.64,1.92    C73.9,58.33,74.16,58.78,74.28,59.22z" />
		<path
   id="path877"
   d="M49.41,14.35c0-0.48-0.03-0.96,0.01-1.44c0.02-0.21,0.18-0.41,0.28-0.61c0.14,0.19,0.35,0.37,0.4,0.58    c0.41,1.85,0.66,3.74,1.21,5.54c0.5,1.67,1.36,3.22,1.94,4.87c0.15,0.43-0.17,1.02-0.28,1.53c-0.31-0.31-0.72-0.56-0.91-0.93    C49.94,19.6,49.47,17.84,49.41,14.35z" />
		<path
   id="path879"
   d="M94.19,22.65c0.47-0.66,1.07-1.39,1.54-2.21c0.85-1.5,1.61-3.06,2.45-4.57c0.15-0.26,0.51-0.41,0.77-0.61    c0.09,0.31,0.35,0.73,0.24,0.92c-1,1.76-2.09,3.47-3.12,5.21c-0.36,0.61-0.59,1.29-0.93,1.91c-0.08,0.14-0.42,0.23-0.59,0.18    C94.42,23.45,94.38,23.14,94.19,22.65z" />
		<path
   id="path881"
   d="M66.03,65.17c-0.04-0.55-0.09-1.09-0.11-1.64c0-0.13,0.12-0.37,0.17-0.37c0.24,0.01,0.54,0.02,0.72,0.16    c1.75,1.35,3,3.48,5.31,3.93c1.35,0.26,2.92,0.23,4.18-0.23c0.94-0.35,1.52-1.62,2.31-2.45c0.74-0.77,1.52-1.5,2.3-2.24    c0.03-0.03,0.17,0.02,0.17,0.02c-0.21,1.99-0.31,4-0.74,5.94c-0.1,0.47-1.26,0.98-1.96,1c-2.89,0.11-5.79,0.11-8.69,0.02    C67.59,69.26,65.97,67.36,66.03,65.17z"
   class="st1" />
		<path
   id="path883"
   d="M72.44,60.85c0,0.35,0.05,0.97-0.03,1.58c-0.03,0.22-0.37,0.59-0.52,0.57c-1.3-0.23-2.6-0.45-3.86-0.83    c-0.76-0.23-1.44-0.71-2.16-1.08c-1.47-0.76-1.18-2.16-1.05-3.38c0.05-0.46,0.73-0.91,1.2-1.25c0.58-0.42,1.28-1.06,1.86-1    c1.41,0.15,2.79,0.62,4.15,1.07c0.16,0.05,0.14,0.71,0.17,1.09C72.3,58.61,72.36,59.6,72.44,60.85z"
   class="st1" />
		<path
   id="path885"
   d="M74.28,59.22c-0.12-0.43-0.38-0.89-0.32-1.3c0.09-0.67,0.21-1.49,0.64-1.92c0.72-0.73,1.66-1.24,2.84-0.74    c0.31,0.13,0.8-0.18,1.21-0.29c0.06-0.02,0.12-0.06,0.18-0.09c0.48,1.27,2.67,1.16,2.48,2.86c-0.1,0.93-0.58,1.89-1.13,2.67    c-0.61,0.87-1.48,1.57-2.26,2.32c-0.77,0.74-3.55,0.51-3.77-0.41c-0.24-0.96-0.05-2.03-0.05-3.05    C74.16,59.24,74.22,59.23,74.28,59.22z"
   class="st1" />
	</g>
</g>
<g
   id="g894">
	<g
   id="g892">
		<path
   id="path890"
   d="M77.06,74.06c0.33,0.48,0.66,0.96,0.99,1.44c0.27,0.4,1.17,0.25,1.54,0.16c0.48-0.13,1.08-0.4,1.25-0.91    c0.2-0.57,0.39-1.15,0.59-1.72c0.27-0.8-1.36-0.62-1.64-0.54c-0.63,0.17-1.2,0.41-1.77,0.71c-0.38,0.2-0.81,0.73-0.35,1.06    c0.47,0.35,1.34,0.19,1.82-0.04c0.49-0.23,0.9-0.48,1.32-0.81c0.33-0.26,0.43-0.73-0.01-0.94c-2.08-0.97-5.06-0.18-6.33,1.76    c0.9-0.18,1.8-0.36,2.69-0.54c-0.73-0.76-1.27-1.48-2.42-1.44c-0.58,0.02-1.17,0.2-1.67,0.5c-0.17,0.1-0.37,0.22-0.51,0.36    c-0.22,0.21,0.08,0.02-0.18,0.11c0.64,0.01,1.28,0.02,1.92,0.03c-0.53-0.86-1.61-1.06-2.55-0.93c-0.58,0.08-1.17,0.28-1.66,0.61    c-0.31,0.2-0.69,0.73-0.85,0.85c0.45-0.19,0.91-0.38,1.36-0.56c-0.06,0.01-0.12,0.02-0.18,0.03c0.23,0,0.46,0.01,0.69,0.01    c-0.72-0.16-1.42-0.41-2.12-0.61c-0.64-0.19-1.57,0.11-2.05,0.55c-0.48,0.44-0.3,0.85,0.27,1.02c1.1,0.33,2.22,0.84,3.39,0.53    c0.48-0.13,1.17-0.46,1.39-0.97c0.17-0.39-0.73,0.3-0.8,0.16c0.06,0.13,0.34,0.3,0.44,0.46c0.33,0.53,1.53,0.16,1.92,0.03    c0.28-0.1,0.54-0.24,0.79-0.41c0.13-0.09,0.27-0.18,0.39-0.28c0.23-0.21-0.18,0.23-0.77,0.17c-0.2-0.04-0.39-0.08-0.59-0.12    c0.45,0.16,0.8,0.71,1.13,1.05c0.62,0.64,2.26,0.12,2.69-0.54c0.12-0.19,0.24-0.35,0.43-0.48c0.01-0.01,0.28-0.13,0.13-0.08    c0.16-0.06,0.11-0.03,0.24-0.02c0.15,0.02,0.34,0.08,0.53,0.16c0-0.31-0.01-0.63-0.01-0.94c-0.02,0.01-0.19,0.12-0.14,0.1    c0.49,0.34,0.98,0.68,1.47,1.02c0.15-0.08,0.2-0.07,0.36-0.12c-0.55-0.18-1.1-0.36-1.64-0.54c-0.2,0.57-0.39,1.15-0.59,1.72    c0.93-0.25,1.86-0.5,2.79-0.75c-0.33-0.48-0.66-0.96-0.99-1.44C79.2,72.12,76.39,73.08,77.06,74.06L77.06,74.06z" />
	</g>
</g>
<g
   id="g900">
	<g
   id="g898">
		<path
   id="path896"
   d="M69.25,72.72c-0.06-0.04-0.13-0.07-0.2-0.1c-0.14-0.05-0.29-0.11-0.44-0.14c-0.37-0.06-0.72-0.07-1.09-0.03    c-0.56,0.06-1.09,0.24-1.61,0.44c-0.17,0.06-0.32,0.15-0.46,0.27c-0.13,0.08-0.23,0.19-0.32,0.31c-0.11,0.19-0.16,0.45,0.01,0.63    c0.06,0.05,0.13,0.1,0.19,0.14c0.19,0.09,0.39,0.13,0.59,0.13c0.4,0.01,0.77-0.08,1.14-0.22c0.07-0.03,0.15-0.05,0.22-0.08    c-0.13,0.04-0.25,0.09-0.38,0.13c0.15-0.05,0.3-0.1,0.45-0.13c-0.13,0.03-0.26,0.05-0.39,0.08c0.09-0.02,0.18-0.03,0.28-0.03    c-0.12,0.01-0.24,0.01-0.37,0.02c0.07,0,0.15,0,0.22,0.01c-0.11-0.01-0.22-0.03-0.33-0.04c0.07,0.01,0.14,0.03,0.21,0.05    c-0.09-0.03-0.18-0.06-0.27-0.09c0.08,0.03,0.15,0.06,0.22,0.11c0.14,0.07,0.28,0.11,0.43,0.11c0.18,0.03,0.35,0.03,0.53,0    c0.2-0.02,0.39-0.07,0.58-0.14c0.18-0.05,0.35-0.13,0.51-0.23c0.09-0.07,0.17-0.13,0.26-0.2c0.14-0.12,0.23-0.26,0.28-0.44    c0-0.07,0-0.14,0-0.22C69.5,72.9,69.4,72.79,69.25,72.72L69.25,72.72z" />
	</g>
</g>
<g
   id="g906">
	<g
   id="g904">
		<path
   id="path902"
   d="M73.83,72.85c-0.18-0.02-0.3-0.1-0.34-0.25c0.02,0.04,0.04,0.09,0.06,0.13c0.05,0.11,0.1,0.24,0.18,0.34    c0.29,0.37,0.76,0.48,1.2,0.46c0.6-0.01,1.24-0.22,1.67-0.65c0.1-0.1,0.19-0.22,0.26-0.35c0.02-0.04,0.03-0.08,0.05-0.11    c0.1-0.18,0.01-0.09-0.29,0.27c0.28-0.15,0.54-0.47,0.53-0.79c-0.01-0.34-0.29-0.5-0.59-0.59c-0.73-0.23-1.54,0.01-2.17,0.38    c0.62,0.35,1.23,0.7,1.85,1.05c0.16-0.11-0.04,0.03-0.09,0.04c0.04-0.01,0.12-0.08,0.16-0.07c-0.03-0.01-0.34,0.11-0.13,0.05    c0.22-0.06-0.12,0-0.13,0.02c0.03-0.03,0.14-0.01,0.18-0.02c-0.06,0-0.13,0-0.19,0.01c0.03,0,0.06,0,0.09,0    c0.03,0,0.06,0.01,0.09,0.01c-0.05-0.01-0.1-0.02-0.15-0.02c0.01,0.02,0.15,0.04,0.18,0.04c0.87,0.22,1.72,0.32,2.57-0.07    c0.18-0.08,0.36-0.18,0.53-0.3c0.36-0.25,0.46-0.19-0.55-0.05c-0.8,0.11-1,0.01-0.66,0.17c0.11,0.05,0.23,0.1,0.34,0.13    c0.18,0.05,0.37,0.08,0.55,0.08c0.99,0.04,1.98-0.37,2.57-1.17c0.14-0.2,0.12-0.5-0.03-0.68c-0.17-0.21-0.54-0.31-0.8-0.32    c-0.72-0.03-1.47,0.24-1.9,0.83c0.22-0.3,0.61-0.45,0.98-0.48c0.14-0.01,0.27,0,0.4,0.03c0.16,0.07,0.18,0.08,0.05,0.01    c-0.4-0.22-0.83-0.28-1.28-0.22c-0.51,0.06-1,0.26-1.42,0.56c-0.42,0.3-0.16-0.08,0.59-0.13c0.22,0,0.26,0,0.11-0.01    c0.16,0.03,0.2,0.03,0.1,0.01c-1.34-0.44-2.8-0.26-3.98,0.51c-0.43,0.28-0.83,0.96-0.21,1.28c0.64,0.34,1.48,0.12,2.06-0.23    c0.02-0.01,0.05-0.03,0.07-0.04c-0.23,0.1-0.47,0.21-0.7,0.31c-0.26,0.01-0.52,0.02-0.78,0.03c-0.02-0.46-0.04-0.93-0.06-1.39    c-0.22,0.12-0.44,0.34-0.56,0.55c-0.02,0.04-0.04,0.07-0.05,0.11c-0.06,0.13-0.12,0.13,0.05-0.03c0.19-0.13,0.39-0.26,0.58-0.39    c-0.02,0.01-0.03,0.02-0.05,0.03c0.26-0.07,0.51-0.14,0.77-0.21c-0.02,0-0.04,0.01-0.06,0.01c0.23,0.01,0.46,0.03,0.7,0.04    c0.29,0.22,0.38,0.26,0.25,0.12c0.01,0.03,0.03,0.05,0.04,0.08c-0.05-0.1-0.09-0.2-0.15-0.3c-0.16-0.29-0.41-0.44-0.73-0.53    c-0.65-0.19-1.59,0.05-2.05,0.55c-0.16,0.18-0.36,0.44-0.27,0.7C73.35,72.64,73.57,72.77,73.83,72.85L73.83,72.85z"
   class="st1" />
	</g>
</g>
<g
   id="g912">
	<g
   id="g910">
		<path
   id="path908"
   d="M84.05,64.86c0.7,0.8,1.33,1.66,1.87,2.57c0.5,0.85,0.93,1.74,1.63,2.45c0.5-0.51,1-1.02,1.5-1.52    c-0.03,0-0.06,0-0.09,0c0.23,0.02,0.47,0.03,0.7,0.05c0.19,0.04,0.06,0.03-0.02-0.03c-0.07-0.05-0.13-0.1-0.2-0.15    c-0.13-0.1-0.26-0.2-0.39-0.3c-0.11-0.08-0.21-0.16-0.32-0.24c-0.06-0.04-0.11-0.09-0.17-0.13c0.11,0.09,0.03,0.03-0.03-0.03    c-0.2-0.18-0.4-0.36-0.57-0.57c-0.09-0.11-0.16-0.23-0.24-0.34c0.05,0.07,0.03,0.07,0-0.01c-0.03-0.08-0.06-0.15-0.09-0.23    c-0.97,0.26-1.93,0.52-2.9,0.78c0.44,1.15,1.05,2.24,1.79,3.23c0.62-0.51,1.25-1.02,1.87-1.53c0.35,0.05-0.09-0.04-0.19-0.07    c-0.27-0.09,0.19,0.11-0.06-0.03c-0.07-0.04-0.13-0.07-0.2-0.1c-0.13-0.07-0.25-0.17-0.37-0.25c-0.09-0.06,0.09,0.09-0.04-0.03    c-0.07-0.06-0.13-0.12-0.2-0.19c-0.47-0.46-0.83-1.02-1.16-1.58c-0.13-0.23-0.58-0.31-0.8-0.33c-0.36-0.03-0.81,0.05-1.14,0.21    c-0.51,0.25-1.08,0.72-0.73,1.32c0.38,0.64,0.79,1.27,1.35,1.77c0.73,0.64,1.51,0.99,2.47,1.14c0.53,0.08,1.2-0.17,1.59-0.5    c0.31-0.25,0.56-0.66,0.28-1.03c-0.34-0.45-0.65-0.92-0.92-1.41c-0.03-0.06-0.06-0.12-0.1-0.17c0.05,0.08-0.01-0.03-0.03-0.05    c-0.06-0.12-0.12-0.24-0.17-0.36c-0.13-0.27-0.24-0.54-0.35-0.82c-0.24-0.62-1.14-0.62-1.68-0.46c-0.34,0.1-0.72,0.25-0.96,0.52    c-0.16,0.18-0.36,0.45-0.26,0.72c0.25,0.71,0.72,1.25,1.29,1.72c0.32,0.27,0.66,0.52,0.99,0.77c0.14,0.11,0.28,0.23,0.43,0.32    c0.4,0.24,0.82,0.26,1.28,0.24c0.47-0.02,1.02-0.25,1.35-0.6c0.22-0.23,0.43-0.65,0.15-0.93c-0.7-0.71-1.13-1.6-1.63-2.45    c-0.54-0.91-1.17-1.77-1.87-2.57c-0.45-0.51-1.4-0.38-1.94-0.12C84.37,63.74,83.58,64.33,84.05,64.86L84.05,64.86z"
   class="st1" />
	</g>
</g>
<g
   id="g918">
	<g
   id="g916">
		<path
   id="path914"
   d="M79.41,71.42c0.2,0.97,0.26,1.97,0.16,2.95c-0.02,0.18,0.46,0.23,0.52,0.24c0.29,0.02,0.58-0.02,0.87-0.09    c0.31-0.07,0.63-0.16,0.91-0.31c0.09-0.05,0.18-0.1,0.27-0.16c0.13-0.08,0.24-0.19,0.31-0.32c0.15-0.65,0.27-1.32,0.36-1.98    c-0.96,0.21-1.92,0.42-2.88,0.63c0.34,0.96,0.8,1.96,1.87,2.26c0.24,0.07,0.5,0.05,0.75,0.02c0.32-0.04,0.65-0.11,0.95-0.23    c0.21-0.08,0.42-0.18,0.61-0.3c0.06-0.04,0.43-0.31,0.33-0.47c-0.57-0.91-1.02-1.88-1.36-2.9c-0.06-0.19-0.37-0.22-0.52-0.24    c-0.34-0.03-0.74,0.04-1.06,0.13c-0.34,0.1-0.7,0.21-0.99,0.42c-0.13,0.09-0.39,0.27-0.33,0.47c0.33,1.02,0.79,1.99,1.36,2.9    c0.88-0.32,1.76-0.65,2.63-0.97c-0.08-0.02-0.15-0.05-0.22-0.08c0.06,0.03,0.12,0.05,0.18,0.08c-0.3-0.14-0.55-0.36-0.75-0.63    c0.03,0.04,0.06,0.08,0.09,0.12c-0.3-0.41-0.47-0.88-0.64-1.36c-0.07-0.19-0.36-0.23-0.52-0.24c-0.29-0.02-0.58,0.02-0.87,0.09    c-0.31,0.07-0.63,0.16-0.91,0.31c-0.09,0.05-0.18,0.1-0.27,0.16c-0.13,0.08-0.24,0.19-0.31,0.32c-0.08,0.67-0.2,1.33-0.36,1.98    c0.96-0.21,1.92-0.42,2.88-0.63c0.09-0.99,0.04-1.98-0.16-2.95c-0.04-0.19-0.39-0.23-0.52-0.24c-0.34-0.03-0.74,0.04-1.06,0.13    c-0.34,0.1-0.7,0.21-0.99,0.42C79.6,71.06,79.37,71.21,79.41,71.42L79.41,71.42z"
   class="st1" />
	</g>
</g>
<g
   id="g924">
	<g
   id="g922">
		<path
   id="path920"
   d="M67.06,71.98c0.53,1.3,1.15,2.56,1.82,3.79c0.07,0.05,0.13,0.1,0.2,0.16c0.14,0.08,0.28,0.12,0.43,0.13    c0.3,0.05,0.63,0.03,0.92-0.06c0.49-0.14,1.1-0.43,1.24-0.97c0.12-0.48,0.26-0.94,0.44-1.4c-0.03,0.08-0.06,0.16-0.09,0.23    c0.23-0.57,0.51-1.12,0.84-1.65c0.12-0.19,0.15-0.49-0.02-0.67c-0.21-0.22-0.51-0.28-0.8-0.31c-1.02-0.11-2.28,0.31-2.95,1.11    c-0.25,0.3-0.48,0.65-0.49,1.06c-0.01,0.46,0.15,0.8,0.55,1.05c0.23,0.14,0.52,0.16,0.78,0.15c0.32-0.01,0.66-0.07,0.95-0.21    c0.43-0.2,0.92-0.54,0.85-1.07c-0.03-0.28-0.07-0.55-0.1-0.83c-0.03-0.28-0.03-0.59-0.22-0.81c-0.42-0.48-1.23-0.45-1.79-0.29    c-0.49,0.14-0.95,0.37-1.31,0.73c-0.17,0.17-0.34,0.44-0.27,0.69c0.07,0.25,0.35,0.41,0.58,0.46c0.68,0.16,1.55-0.05,2.05-0.55    c0.19-0.19-0.19,0.13-0.1,0.07c0.1-0.06,0.02-0.02-0.22,0.12c-0.4,0.17-0.8,0.22-1.23,0.14c-0.09-0.03-0.18-0.07-0.27-0.1    c0.01,0.01,0.02,0.01,0.03,0.02c-0.07-0.05-0.13-0.1-0.2-0.16c0.02,0.02,0.04,0.03,0.06,0.06c-0.04-0.07-0.07-0.14-0.11-0.2    c0.1,0.19,0.08,0.45,0.11,0.66c0.03,0.25,0.06,0.5,0.09,0.76c0.86-0.38,1.73-0.76,2.59-1.14c-0.02-0.01-0.05-0.03-0.07-0.05    c0.07,0.05,0.13,0.1,0.2,0.16c-0.04-0.04-0.07-0.08-0.1-0.12c0.04,0.07,0.07,0.14,0.11,0.2c-0.05-0.09-0.06-0.18-0.07-0.28    c0,0.08,0,0.15,0.01,0.23c0-0.12,0.02-0.23,0.07-0.35c-0.03,0.08-0.06,0.16-0.09,0.23c0.04-0.09,0.09-0.17,0.15-0.25    c-0.06,0.08-0.12,0.15-0.18,0.23c0.03-0.04,0.07-0.08,0.1-0.12c0.04-0.04,0.17-0.15-0.01,0c-0.19,0.15-0.05,0.05,0,0.01    c0.18-0.13-0.34,0.17-0.14,0.08c0.2-0.09-0.37,0.11-0.21,0.07c0.23-0.06-0.2,0.03-0.22,0.03c0.16-0.01,0.18,0.03-0.16,0    c0.05,0.01,0.1,0,0.15,0.01c-0.27-0.33-0.55-0.65-0.82-0.98c-0.63,1.01-1.09,2.12-1.37,3.28c0.93-0.25,1.86-0.5,2.79-0.75    c-0.04-0.08-0.09-0.16-0.13-0.24c0.04,0.07,0.07,0.14,0.11,0.2c-0.59-1.09-1.11-2.2-1.58-3.34c-0.25-0.61-1.14-0.59-1.67-0.43    c-0.34,0.1-0.71,0.25-0.96,0.51C67.17,71.46,66.96,71.73,67.06,71.98L67.06,71.98z"
   class="st1" />
	</g>
</g>
<g
   id="g930">
	<g
   id="g928">
		<path
   id="path926"
   d="M74.03,72.87c0.15,0.55,0.31,1.1,0.46,1.65c0.86-0.39,1.72-0.77,2.58-1.16c-0.08-0.04-0.16-0.08-0.23-0.14    c0.07,0.06,0.13,0.11,0.2,0.17c-0.1-0.09-0.19-0.2-0.25-0.32c0.04,0.07,0.08,0.14,0.11,0.22c-0.18-0.35-0.23-0.75-0.25-1.14    c-0.02-0.25-0.4-0.45-0.59-0.5c-0.3-0.08-0.6-0.07-0.9-0.02c-0.31,0.06-0.64,0.16-0.9,0.35c-0.09,0.07-0.17,0.14-0.26,0.21    c-0.14,0.13-0.23,0.3-0.27,0.48c0.03,0.81,0.15,1.59,0.44,2.35c0.93-0.33,1.86-0.66,2.78-0.99c-0.05-0.09-0.1-0.17-0.14-0.26    c0.04,0.07,0.08,0.14,0.11,0.22c-0.35-0.66-0.59-1.38-0.71-2.12c-0.04-0.26-0.37-0.43-0.59-0.5c-0.33-0.1-0.77-0.08-1.09,0.02    c-0.34,0.1-0.72,0.25-0.96,0.53c-0.19,0.21-0.31,0.43-0.26,0.73c0.15,0.92,0.5,1.78,0.97,2.59c0.09,0.11,0.2,0.18,0.34,0.23    c0.15,0.07,0.3,0.11,0.47,0.11c0.33,0.02,0.64-0.03,0.95-0.14c0.27-0.1,0.57-0.24,0.77-0.46c0.16-0.18,0.36-0.46,0.26-0.73    c-0.25-0.66-0.4-1.36-0.43-2.07c0,0.08,0.01,0.16,0.01,0.24c0-0.01,0-0.03,0-0.04c-0.97,0.18-1.94,0.35-2.91,0.53    c0.05,0.76,0.27,1.65,1.05,1.99c0.09,0.04,0.18,0.08,0.27,0.11c0.17,0.05,0.34,0.07,0.51,0.05c0.32,0,0.66-0.07,0.96-0.21    c0.21-0.1,0.41-0.23,0.58-0.39c0.18-0.17,0.33-0.47,0.26-0.73c-0.15-0.55-0.31-1.1-0.46-1.65c-0.07-0.27-0.34-0.43-0.59-0.5    c-0.33-0.1-0.77-0.08-1.09,0.02c-0.34,0.1-0.72,0.25-0.96,0.53C74.11,72.35,73.95,72.6,74.03,72.87L74.03,72.87z"
   class="st1" />
	</g>
</g>
<g
   id="g936">
	<g
   id="g934">
		<path
   id="path932"
   d="M74.96,72.47c0.3,0.59,0.59,1.18,0.89,1.78c0.13,0.25,0.29,0.37,0.57,0.44c0.33,0.09,0.76,0.05,1.09-0.04    c0.34-0.1,0.71-0.24,0.96-0.51c0.16-0.16,0.37-0.42,0.28-0.67c-0.11-0.28-0.2-0.56-0.21-0.86c0,0.07,0,0.15,0,0.22    c0-0.15,0.02-0.29,0.08-0.44c-0.03,0.08-0.06,0.15-0.1,0.23c0.03-0.05,0.05-0.1,0.09-0.15c-0.94,0.11-1.87,0.22-2.81,0.33    c0.34,0.74,0.77,1.44,1.28,2.07c0.52,0.64,1.13,1.18,1.8,1.68c0.14,0.11,0.42,0.13,0.6,0.14c0.32,0.02,0.65-0.05,0.95-0.15    c0.45-0.16,0.88-0.42,1.05-0.89c0.09-0.25,0.13-0.49,0.14-0.76c0-0.27-0.06-0.43-0.31-0.57c-0.27-0.15-0.67-0.17-0.96-0.13    c-0.38,0.05-0.78,0.16-1.1,0.38c-0.2,0.14-0.54,0.38-0.54,0.65c0,0.26-0.05,0.51-0.14,0.76c0.87-0.3,1.73-0.6,2.6-0.9    c-0.03-0.02-0.07-0.05-0.1-0.07c0.07,0.05,0.13,0.1,0.2,0.15c-0.98-0.75-1.8-1.7-2.4-2.78c0.04,0.07,0.07,0.13,0.11,0.2    c-0.1-0.18-0.19-0.36-0.28-0.55c-0.1-0.2-0.22-0.32-0.44-0.39c-0.26-0.1-0.55-0.12-0.83-0.08c-0.58,0.08-1.19,0.31-1.54,0.8    c-0.41,0.58-0.28,1.28-0.05,1.9c0.97-0.26,1.93-0.52,2.9-0.78c-0.3-0.59-0.59-1.18-0.89-1.78c-0.13-0.25-0.29-0.37-0.57-0.44    c-0.33-0.09-0.76-0.05-1.09,0.04c-0.34,0.1-0.71,0.24-0.96,0.51C75.09,71.96,74.84,72.24,74.96,72.47L74.96,72.47z"
   class="st1" />
	</g>
</g>
<g
   id="g942">
	<g
   id="g940">
		<path
   id="path938"
   d="M82.59,74.34c-0.06-0.27-0.26-0.51-0.4-0.74c-0.13-0.24-0.26-0.49-0.37-0.74c-0.23-0.52-0.41-1.06-0.54-1.61    c-0.04-0.17-0.4-0.17-0.5-0.18c-0.34-0.01-0.73,0.06-1.06,0.15c-0.34,0.1-0.7,0.2-0.99,0.39c-0.12,0.08-0.39,0.22-0.35,0.4    c0.13,0.55,0.31,1.09,0.54,1.61c0.11,0.25,0.24,0.5,0.37,0.74c0.13,0.24,0.34,0.48,0.4,0.74c0.04,0.17,0.41,0.17,0.5,0.18    c0.34,0.01,0.73-0.06,1.06-0.15c0.34-0.1,0.7-0.2,0.99-0.39C82.37,74.66,82.63,74.52,82.59,74.34L82.59,74.34z"
   class="st1" />
	</g>
</g>
<g
   id="g948">
	<g
   id="g946">
		<path
   id="path944"
   d="M61.77,71.87c-0.11,0.56-0.2,1.12-0.32,1.67c-0.06,0.26-0.13,0.52-0.25,0.75c-0.02,0.04-0.05,0.09-0.08,0.13    c-0.01,0.02-0.07,0.09-0.02,0.04c0,0-0.16,0.18-0.06,0.08c0.05-0.03,0.06-0.04,0.01-0.01c-0.34,0.21-0.01,0.1,1-0.34    c0.39,0.04,0.78,0.09,1.18,0.13c-0.02-0.06-0.02-0.12-0.01-0.17c-0.01,0.04-0.01,0.09-0.02,0.13c0.09-0.45,0.24-0.88,0.29-1.34    c0.05-0.46,0.03-0.91-0.01-1.37c-0.02-0.17-0.43-0.19-0.51-0.19c-0.29-0.01-0.58,0.04-0.86,0.1c-0.31,0.07-0.63,0.16-0.91,0.3    c-0.2,0.1-0.5,0.22-0.6,0.44c-0.48,1.08-0.99,2.22-1.82,3.03c0.92-0.17,1.84-0.34,2.76-0.51c0.16-1.24,0.33-2.48,0.49-3.72    c0.02-0.16-0.47-0.19-0.51-0.19c-0.29-0.01-0.58,0.04-0.86,0.1c-0.31,0.07-0.63,0.16-0.91,0.3c-0.19,0.09-0.52,0.22-0.6,0.44    c-0.43,1.15-0.79,2.56-1.74,3.33c0.87-0.08,1.75-0.16,2.62-0.24c0.7-0.64,1.18-1.45,1.57-2.3c0.42-0.93,0.77-1.9,1.16-2.85    c0.19-0.47-0.98-0.29-1.15-0.26c-0.38,0.07-0.76,0.17-1.1,0.34c-0.19,0.1-0.51,0.22-0.6,0.44c-0.37,0.92-0.72,1.86-1.12,2.77    c-0.35,0.79-0.75,1.54-1.36,2.1c-0.48,0.44,0.43,0.48,0.68,0.45c0.66-0.07,1.41-0.26,1.94-0.69c1.1-0.89,1.5-2.34,1.97-3.61    c-0.96,0.22-1.92,0.43-2.88,0.65c-0.16,1.24-0.33,2.48-0.49,3.72c-0.02,0.13,0.31,0.17,0.38,0.18c0.26,0.03,0.54,0,0.79-0.05    c0.52-0.1,1.19-0.25,1.58-0.64c0.95-0.93,1.52-2.12,2.06-3.32c-0.96,0.22-1.92,0.43-2.88,0.65c0.05,0.55,0.06,1.11-0.02,1.66    c0.01-0.04,0.01-0.09,0.02-0.13c-0.04,0.21-0.08,0.41-0.15,0.62c-0.06,0.2-0.13,0.4-0.1,0.61c0.06,0.33,1.02,0.16,1.18,0.13    c1.02-0.2,2.23-0.61,2.65-1.66c0.13-0.34,0.19-0.7,0.26-1.05c0.07-0.39,0.15-0.77,0.22-1.16c0.04-0.19-0.04-0.24-0.24-0.29    c-0.27-0.07-0.65-0.02-0.92,0.03c-0.38,0.07-0.76,0.17-1.1,0.34C62.2,71.51,61.8,71.67,61.77,71.87L61.77,71.87z"
   class="st1" />
	</g>
</g>
<g
   id="g954">
	<g
   id="g952">
		<path
   id="path950"
   d="M62.27,70.78c-0.34,0.84-0.32,1.76-0.27,2.64c0.05,0.89,0.19,1.78,0.41,2.65c0.06,0.25,0.35,0.39,0.58,0.45    c0.33,0.09,0.76,0.05,1.09-0.04c0.34-0.1,0.71-0.24,0.96-0.51c0.17-0.18,0.34-0.41,0.27-0.68c-0.26-1.02-0.41-2.06-0.43-3.11    c0,0.08,0,0.15,0.01,0.23c-0.01-0.67,0.05-1.33,0.3-1.96c0.09-0.23-0.14-0.48-0.31-0.58c-0.27-0.15-0.67-0.17-0.96-0.13    C63.24,69.83,62.53,70.12,62.27,70.78L62.27,70.78z"
   class="st1" />
	</g>
</g>
<g
   id="g960">
	<g
   id="g958">
		<path
   id="path956"
   d="M89.01,56.13c1.02,2.61,2.79,4.83,5.15,6.36c0.55,0.36,1.4,0.13,1.71-0.45c0.33-0.62,0.14-1.33-0.45-1.71    c-0.24-0.15-0.53-0.31-0.73-0.51c0.1,0.1,0.14,0.11,0.01,0c-0.06-0.05-0.11-0.09-0.17-0.14c-0.11-0.09-0.23-0.19-0.34-0.29    c-0.44-0.4-0.85-0.82-1.22-1.28c-0.04-0.05-0.07-0.09-0.11-0.14c-0.19-0.24,0.16,0.22-0.02-0.03c-0.09-0.12-0.18-0.24-0.26-0.36    c-0.16-0.23-0.31-0.47-0.45-0.71c-0.15-0.25-0.29-0.51-0.42-0.78c-0.07-0.13-0.13-0.27-0.19-0.4c-0.07-0.15-0.07-0.11,0,0.01    c-0.04-0.08-0.07-0.17-0.1-0.25c-0.24-0.61-0.85-1.1-1.54-0.87C89.29,54.79,88.75,55.48,89.01,56.13L89.01,56.13z"
   class="st1" />
	</g>
</g>
<g
   id="g966">
	<g
   id="g964">
		<path
   id="path962"
   d="M88.83,56.03c0.65,2.23,1.83,4.28,3.44,5.96c0.45,0.47,1.32,0.49,1.77,0c0.47-0.51,0.48-1.26,0-1.77    c-0.18-0.18-0.35-0.37-0.51-0.57c-0.08-0.09-0.15-0.18-0.23-0.28c-0.04-0.05-0.09-0.14-0.14-0.18c0.06,0.05,0.12,0.17,0.03,0.04    c-0.3-0.41-0.59-0.84-0.84-1.28c-0.25-0.43-0.46-0.87-0.67-1.33c-0.07-0.16,0.11,0.29,0,0.01c-0.02-0.06-0.04-0.11-0.07-0.17    c-0.04-0.11-0.09-0.22-0.13-0.34c-0.09-0.25-0.17-0.51-0.25-0.77c-0.18-0.63-0.89-1.08-1.54-0.87    C89.07,54.7,88.64,55.36,88.83,56.03L88.83,56.03z"
   class="st1" />
	</g>
</g>
<g
   id="g1000">
	<path
   id="path968"
   d="M13.87,97l-1.61,0.46c-0.21,0.06-0.39,0.09-0.53,0.08s-0.28-0.05-0.41-0.13c-0.13-0.08-0.27-0.2-0.42-0.35   c-0.42-0.43-0.76-0.86-1.02-1.3c-0.26-0.43-0.47-0.93-0.62-1.48c-0.18-0.64-0.25-1.26-0.2-1.85c0.05-0.59,0.21-1.12,0.48-1.6   c0.27-0.48,0.65-0.9,1.13-1.25s1.05-0.62,1.72-0.81c0.65-0.18,1.28-0.26,1.88-0.21c0.6,0.04,1.14,0.2,1.62,0.47   c0.48,0.27,0.9,0.65,1.26,1.13s0.63,1.07,0.82,1.76c0.16,0.57,0.23,1.09,0.2,1.56c-0.03,0.48-0.12,0.88-0.27,1.22   s-0.34,0.61-0.55,0.82c-0.22,0.21-0.42,0.34-0.62,0.4c-0.21,0.06-0.42,0.03-0.61-0.08c-0.2-0.12-0.32-0.28-0.39-0.51   c-0.04-0.12-0.04-0.25-0.01-0.38s0.08-0.25,0.16-0.35c0.27-0.3,0.47-0.55,0.59-0.74s0.21-0.43,0.26-0.71s0.01-0.61-0.09-0.99   c-0.11-0.39-0.28-0.72-0.5-1c-0.22-0.27-0.49-0.48-0.81-0.63c-0.32-0.15-0.68-0.23-1.09-0.24c-0.41-0.01-0.84,0.05-1.29,0.18   c-0.98,0.28-1.68,0.72-2.08,1.32c-0.4,0.6-0.49,1.31-0.26,2.12c0.11,0.39,0.27,0.75,0.47,1.06c0.2,0.32,0.45,0.62,0.74,0.93   l1.36-0.38l-0.37-1.32c-0.09-0.32-0.11-0.57-0.06-0.76c0.05-0.19,0.19-0.32,0.42-0.38c0.19-0.05,0.36-0.03,0.52,0.07   c0.16,0.1,0.27,0.27,0.34,0.5l0.55,1.93c0.07,0.24,0.1,0.44,0.11,0.62c0,0.18-0.05,0.33-0.17,0.48C14.36,96.8,14.16,96.91,13.87,97   z" />
	<path
   id="path970"
   d="M15.17,100.13l3.77-1.84c0.32-0.16,0.6-0.2,0.83-0.14s0.4,0.22,0.52,0.45c0.12,0.25,0.13,0.48,0.04,0.7   c-0.09,0.22-0.3,0.41-0.62,0.57l-3.86,1.88c-0.44,0.21-0.78,0.44-1.03,0.68c-0.25,0.24-0.39,0.53-0.43,0.86   c-0.04,0.33,0.05,0.72,0.27,1.17c0.3,0.62,0.68,0.98,1.14,1.07c0.46,0.1,1.02-0.02,1.69-0.35l3.89-1.89   c0.32-0.16,0.6-0.21,0.83-0.14c0.23,0.07,0.4,0.22,0.52,0.46c0.12,0.24,0.13,0.47,0.04,0.7s-0.29,0.42-0.62,0.58l-3.77,1.84   c-0.61,0.3-1.15,0.49-1.62,0.57c-0.47,0.08-0.94,0.03-1.41-0.15c-0.4-0.16-0.76-0.39-1.06-0.71c-0.3-0.32-0.58-0.73-0.83-1.24   c-0.29-0.6-0.48-1.15-0.56-1.65c-0.08-0.5-0.05-0.95,0.09-1.36c0.14-0.41,0.39-0.78,0.75-1.12S14.58,100.42,15.17,100.13z" />
	<path
   id="path972"
   d="M20.11,113.54l3.65-4.42l-4.85,3.57c-0.27,0.2-0.51,0.29-0.74,0.26c-0.22-0.02-0.41-0.13-0.55-0.33   c-0.14-0.19-0.19-0.4-0.15-0.62c0.04-0.22,0.2-0.43,0.47-0.63l5.56-4.09c0.31-0.23,0.57-0.3,0.8-0.22s0.44,0.26,0.64,0.53   l0.32,0.44c0.19,0.26,0.31,0.47,0.35,0.63s0.02,0.31-0.06,0.46c-0.08,0.15-0.24,0.36-0.46,0.64l-3.1,3.85l4.6-1.81   c0.33-0.13,0.59-0.22,0.75-0.25s0.32-0.01,0.45,0.08c0.14,0.08,0.3,0.26,0.5,0.52l0.32,0.44c0.2,0.27,0.3,0.53,0.32,0.76   s-0.14,0.47-0.44,0.7l-5.56,4.09c-0.27,0.2-0.51,0.29-0.74,0.26c-0.22-0.02-0.41-0.13-0.56-0.33c-0.14-0.19-0.19-0.39-0.14-0.61   c0.04-0.22,0.2-0.43,0.47-0.63l4.85-3.57l-5.3,2.17c-0.34,0.14-0.6,0.24-0.77,0.29s-0.36,0.06-0.56,0.02   c-0.2-0.04-0.39-0.17-0.55-0.39c-0.12-0.17-0.19-0.33-0.2-0.5c-0.01-0.17,0.01-0.33,0.08-0.47c0.06-0.15,0.15-0.29,0.26-0.42   C19.87,113.83,19.99,113.69,20.11,113.54z" />
	<path
   id="path974"
   d="M27.72,124.29l-1.93-1.84c-0.28-0.27-0.42-0.52-0.42-0.76s0.13-0.49,0.39-0.77l4.52-4.75c0.27-0.28,0.52-0.42,0.76-0.43   c0.24-0.01,0.49,0.12,0.77,0.38l2.05,1.95c0.3,0.29,0.54,0.55,0.73,0.8c0.19,0.25,0.32,0.51,0.39,0.78   c0.06,0.23,0.09,0.47,0.08,0.72c-0.02,0.25-0.07,0.48-0.17,0.7c-0.1,0.22-0.23,0.43-0.41,0.61c-0.6,0.63-1.36,0.79-2.27,0.49   c0.58,1.05,0.5,1.96-0.22,2.73c-0.34,0.35-0.73,0.59-1.18,0.7s-0.89,0.09-1.33-0.07c-0.27-0.1-0.54-0.26-0.83-0.46   C28.36,124.86,28.05,124.6,27.72,124.29z M30.3,121.39l-1.33-1.27l-1.76,1.84l1.37,1.31c0.87,0.82,1.59,0.92,2.19,0.3   c0.3-0.32,0.41-0.66,0.32-1.01C31.01,122.21,30.74,121.82,30.3,121.39z M31.39,117.57l-1.55,1.63l1.17,1.12   c0.32,0.3,0.59,0.51,0.83,0.61c0.23,0.11,0.47,0.12,0.73,0.04c0.19-0.05,0.35-0.15,0.49-0.3c0.3-0.32,0.39-0.64,0.26-0.96   c-0.13-0.32-0.42-0.7-0.89-1.15L31.39,117.57z" />
	<path
   id="path976"
   d="M37.97,131.1l0.28-1.14l-2.92-2.01l-0.98,0.68c-0.38,0.27-0.66,0.43-0.84,0.49c-0.18,0.06-0.38,0.02-0.6-0.13   c-0.18-0.13-0.3-0.3-0.35-0.54c-0.05-0.23-0.01-0.43,0.1-0.6c0.07-0.1,0.15-0.19,0.26-0.27c0.11-0.08,0.26-0.19,0.46-0.32   l5.05-3.39c0.14-0.1,0.32-0.21,0.52-0.35c0.2-0.14,0.39-0.24,0.56-0.3c0.17-0.07,0.35-0.09,0.54-0.08s0.38,0.09,0.58,0.23   c0.2,0.14,0.34,0.29,0.43,0.46c0.08,0.17,0.12,0.34,0.12,0.52c0,0.18-0.02,0.36-0.06,0.53c-0.04,0.18-0.09,0.41-0.17,0.71   l-1.32,5.93c-0.1,0.45-0.2,0.76-0.31,0.92c-0.12,0.17-0.29,0.27-0.52,0.31s-0.45,0-0.65-0.14c-0.11-0.08-0.2-0.17-0.25-0.26   c-0.05-0.1-0.08-0.2-0.09-0.31c-0.01-0.11,0.01-0.26,0.04-0.45C37.9,131.41,37.94,131.24,37.97,131.1z M36.47,127.12l2.14,1.48   l0.96-3.71L36.47,127.12z" />
	<path
   id="path978"
   d="M43.17,131.23l1.79-3.79c0.15-0.32,0.34-0.53,0.56-0.62s0.45-0.08,0.69,0.03c0.25,0.12,0.41,0.29,0.47,0.52   c0.07,0.23,0.03,0.51-0.13,0.83l-1.83,3.88c-0.21,0.44-0.33,0.83-0.38,1.17c-0.04,0.34,0.02,0.65,0.2,0.94s0.49,0.53,0.94,0.74   c0.62,0.29,1.14,0.34,1.56,0.13c0.42-0.21,0.78-0.65,1.1-1.32l1.85-3.91c0.16-0.33,0.34-0.54,0.56-0.63   c0.22-0.09,0.45-0.08,0.69,0.03c0.24,0.11,0.4,0.29,0.47,0.51c0.07,0.23,0.03,0.51-0.12,0.83l-1.79,3.79   c-0.29,0.62-0.6,1.1-0.91,1.46s-0.71,0.61-1.19,0.76c-0.41,0.13-0.84,0.17-1.27,0.11c-0.44-0.06-0.91-0.21-1.42-0.45   c-0.61-0.29-1.1-0.6-1.47-0.94c-0.38-0.34-0.64-0.71-0.78-1.11c-0.15-0.4-0.18-0.85-0.11-1.34   C42.71,132.37,42.89,131.83,43.17,131.23z" />
	<path
   id="path980"
   d="M59.71,133.54l-3.83-1.09l-0.58,2.06l3.52,1c0.26,0.07,0.44,0.19,0.53,0.34c0.09,0.15,0.12,0.32,0.06,0.51   c-0.05,0.19-0.16,0.33-0.32,0.41c-0.16,0.08-0.37,0.09-0.63,0.01l-3.52-1l-0.68,2.39l3.96,1.12c0.27,0.08,0.45,0.2,0.55,0.36   c0.1,0.16,0.12,0.35,0.06,0.55c-0.06,0.2-0.17,0.34-0.34,0.43c-0.17,0.09-0.39,0.09-0.66,0.01l-4.62-1.31   c-0.37-0.1-0.61-0.26-0.73-0.47s-0.12-0.5-0.02-0.86l1.79-6.31c0.07-0.24,0.16-0.43,0.28-0.57s0.26-0.21,0.44-0.24   c0.17-0.03,0.38-0.01,0.62,0.06l4.49,1.27c0.27,0.08,0.46,0.19,0.55,0.35c0.1,0.16,0.12,0.33,0.06,0.53   c-0.06,0.2-0.17,0.34-0.33,0.42C60.2,133.61,59.98,133.62,59.71,133.54z" />
	<path
   id="path982"
   d="M64.99,138.15l-0.62-0.07l-0.32,2.78c-0.04,0.37-0.16,0.63-0.34,0.78c-0.18,0.16-0.4,0.22-0.66,0.19   c-0.28-0.03-0.49-0.15-0.62-0.35c-0.13-0.2-0.18-0.47-0.14-0.83l0.78-6.67c0.04-0.38,0.16-0.64,0.35-0.79   c0.19-0.15,0.47-0.2,0.85-0.16l2.85,0.33c0.39,0.05,0.73,0.1,1,0.17c0.28,0.07,0.52,0.16,0.73,0.29c0.26,0.15,0.48,0.34,0.66,0.57   c0.18,0.24,0.31,0.5,0.39,0.8c0.08,0.29,0.09,0.6,0.06,0.91c-0.08,0.65-0.32,1.14-0.73,1.48c-0.41,0.34-0.99,0.55-1.75,0.63   c0.29,0.2,0.56,0.48,0.81,0.84c0.25,0.36,0.46,0.73,0.64,1.12c0.18,0.39,0.31,0.74,0.4,1.05c0.09,0.31,0.13,0.52,0.12,0.63   c-0.01,0.11-0.06,0.22-0.15,0.33c-0.09,0.1-0.2,0.18-0.33,0.23c-0.13,0.05-0.28,0.07-0.45,0.05c-0.2-0.02-0.36-0.09-0.48-0.2   s-0.22-0.24-0.3-0.39s-0.19-0.38-0.32-0.67l-0.57-1.25c-0.2-0.46-0.39-0.81-0.56-1.06s-0.36-0.42-0.55-0.53   C65.56,138.25,65.3,138.18,64.99,138.15z M66.42,134.62l-1.62-0.19l-0.28,2.38L66.1,137c0.42,0.05,0.78,0.05,1.08,0.01   c0.3-0.04,0.53-0.14,0.7-0.3s0.28-0.39,0.31-0.7c0.03-0.24-0.01-0.46-0.11-0.66c-0.1-0.2-0.25-0.35-0.46-0.47   C67.42,134.78,67.02,134.69,66.42,134.62z" />
	<path
   id="path984"
   d="M75.08,134.6l3.66,4.96l-0.27-5.18c-0.02-0.34,0.04-0.59,0.18-0.77s0.33-0.27,0.57-0.28c0.25-0.01,0.46,0.06,0.61,0.22   c0.16,0.16,0.24,0.41,0.26,0.75l0.35,6.85c0.04,0.76-0.26,1.16-0.89,1.2c-0.16,0.01-0.3-0.01-0.43-0.05s-0.25-0.1-0.37-0.2   c-0.12-0.09-0.22-0.2-0.33-0.33c-0.1-0.13-0.2-0.26-0.31-0.39l-3.57-4.9l0.26,5.1c0.02,0.33-0.05,0.59-0.19,0.77   c-0.15,0.18-0.34,0.27-0.58,0.29c-0.25,0.01-0.45-0.06-0.61-0.23c-0.16-0.16-0.25-0.41-0.26-0.74l-0.35-6.72   c-0.01-0.29,0.01-0.51,0.06-0.68c0.07-0.18,0.18-0.33,0.35-0.46c0.17-0.12,0.35-0.19,0.56-0.2c0.16-0.01,0.3,0.01,0.41,0.06   c0.12,0.04,0.22,0.11,0.31,0.19c0.09,0.08,0.18,0.19,0.28,0.33C74.88,134.32,74.98,134.46,75.08,134.6z" />
	<path
   id="path986"
   d="M98.78,136.37L98,135.5l-3.31,1.26l0.01,1.19c0,0.47-0.02,0.79-0.07,0.97c-0.05,0.18-0.2,0.32-0.45,0.42   c-0.21,0.08-0.42,0.07-0.64-0.02c-0.22-0.09-0.36-0.23-0.44-0.43c-0.04-0.11-0.07-0.23-0.08-0.37c-0.01-0.13-0.01-0.32,0-0.57   l0.06-6.09c0-0.17,0-0.38,0-0.63s0.02-0.46,0.06-0.63s0.12-0.34,0.24-0.48c0.12-0.15,0.29-0.26,0.52-0.35   c0.23-0.09,0.44-0.12,0.62-0.09c0.19,0.03,0.35,0.09,0.5,0.19c0.15,0.1,0.28,0.22,0.41,0.35c0.12,0.13,0.29,0.31,0.49,0.54   l4.14,4.44c0.32,0.34,0.51,0.6,0.58,0.78c0.07,0.19,0.06,0.39-0.04,0.61c-0.1,0.22-0.26,0.37-0.48,0.45   c-0.13,0.05-0.25,0.07-0.36,0.06s-0.21-0.04-0.31-0.1c-0.09-0.06-0.21-0.15-0.34-0.29C98.99,136.6,98.88,136.48,98.78,136.37z    M94.64,135.36l2.43-0.93l-2.51-2.89L94.64,135.36z" />
	<path
   id="path988"
   d="M101.64,127.41l3.15,5.51l3.11-1.78c0.25-0.14,0.47-0.19,0.67-0.15s0.35,0.16,0.46,0.34c0.11,0.19,0.13,0.37,0.06,0.56   c-0.06,0.19-0.22,0.36-0.47,0.5l-3.7,2.12c-0.33,0.19-0.62,0.25-0.85,0.19c-0.23-0.06-0.44-0.26-0.63-0.59l-3.33-5.83   c-0.18-0.31-0.24-0.58-0.19-0.82s0.19-0.42,0.42-0.55c0.23-0.13,0.46-0.16,0.69-0.09S101.46,127.09,101.64,127.41z" />
	<path
   id="path990"
   d="M112.66,125.33l-1.27,1l1.53,1.94c0.22,0.28,0.32,0.54,0.3,0.79c-0.02,0.25-0.13,0.45-0.33,0.6   c-0.21,0.17-0.43,0.23-0.67,0.19s-0.47-0.2-0.68-0.47l-4.16-5.28c-0.24-0.3-0.34-0.58-0.31-0.82s0.21-0.48,0.51-0.72l1.78-1.4   c0.53-0.42,0.96-0.69,1.31-0.84c0.34-0.14,0.69-0.21,1.03-0.19c0.35,0.02,0.68,0.12,0.99,0.3c0.31,0.18,0.6,0.43,0.85,0.76   c0.55,0.7,0.75,1.4,0.61,2.09S113.51,124.66,112.66,125.33z M109.85,122.46l-0.93,0.74l1.65,2.09l0.93-0.74   c0.33-0.26,0.57-0.51,0.74-0.75c0.17-0.24,0.24-0.49,0.24-0.73c-0.01-0.25-0.11-0.5-0.31-0.75c-0.24-0.3-0.52-0.48-0.85-0.53   C110.95,121.75,110.46,121.97,109.85,122.46z" />
	<path
   id="path992"
   d="M122.32,119.55l-1.08-0.45l-2.45,2.57l0.52,1.07c0.2,0.42,0.32,0.72,0.35,0.91s-0.04,0.38-0.22,0.57   c-0.15,0.16-0.35,0.25-0.58,0.26c-0.24,0.01-0.43-0.05-0.58-0.2c-0.09-0.08-0.16-0.18-0.23-0.3s-0.15-0.29-0.25-0.51l-2.56-5.52   c-0.07-0.16-0.16-0.35-0.27-0.57c-0.1-0.22-0.17-0.42-0.21-0.6c-0.04-0.18-0.04-0.36,0.01-0.54c0.05-0.18,0.15-0.36,0.32-0.54   c0.17-0.18,0.34-0.29,0.53-0.35c0.18-0.05,0.36-0.07,0.54-0.04c0.18,0.03,0.35,0.08,0.52,0.14s0.39,0.16,0.67,0.27l5.65,2.23   c0.43,0.17,0.72,0.32,0.86,0.45c0.15,0.14,0.22,0.33,0.23,0.57s-0.07,0.44-0.24,0.62c-0.1,0.1-0.2,0.17-0.3,0.21   c-0.1,0.04-0.21,0.05-0.32,0.04s-0.25-0.05-0.43-0.11C122.61,119.66,122.46,119.61,122.32,119.55z M118.15,120.41l1.8-1.89   l-3.51-1.53L118.15,120.41z" />
	<path
   id="path994"
   d="M121.08,110.23l2.53,1.71l-1.05-4.9c-0.05-0.24-0.08-0.43-0.08-0.57c0-0.14,0.05-0.3,0.16-0.46   c0.14-0.21,0.32-0.34,0.53-0.38c0.21-0.05,0.41-0.01,0.58,0.11c0.21,0.14,0.35,0.4,0.41,0.76l0.48,2.92l4.32-0.06   c0.3-0.01,0.55,0.01,0.75,0.04s0.38,0.1,0.52,0.19c0.16,0.11,0.26,0.27,0.29,0.47c0.03,0.21-0.02,0.42-0.17,0.63   c-0.14,0.2-0.29,0.34-0.47,0.41c-0.17,0.07-0.36,0.1-0.57,0.09c-0.2-0.01-0.39-0.02-0.55-0.03l-3.83-0.07l0.34,1.97l1.49,1.01   c0.3,0.2,0.48,0.42,0.53,0.66c0.05,0.24,0.01,0.46-0.14,0.68c-0.08,0.12-0.2,0.22-0.34,0.29c-0.14,0.07-0.29,0.1-0.45,0.09   c-0.12-0.02-0.25-0.06-0.38-0.13c-0.13-0.07-0.31-0.19-0.54-0.34l-5.37-3.63c-0.3-0.2-0.47-0.42-0.53-0.64   c-0.06-0.23-0.01-0.46,0.14-0.68c0.15-0.22,0.34-0.35,0.58-0.39C120.51,109.94,120.78,110.03,121.08,110.23z" />
	<path
   id="path996"
   d="M133.97,101.06l-1.17-0.07l-1.47,3.23l0.85,0.84c0.33,0.33,0.54,0.58,0.63,0.75c0.09,0.17,0.08,0.37-0.03,0.61   c-0.09,0.2-0.25,0.35-0.47,0.43s-0.42,0.09-0.61,0c-0.11-0.05-0.21-0.12-0.31-0.21c-0.1-0.09-0.23-0.22-0.4-0.4l-4.23-4.38   c-0.12-0.12-0.27-0.28-0.44-0.45c-0.17-0.18-0.3-0.34-0.4-0.5s-0.15-0.33-0.17-0.51s0.03-0.39,0.13-0.61   c0.1-0.22,0.23-0.39,0.38-0.5c0.15-0.11,0.32-0.18,0.49-0.21c0.17-0.03,0.35-0.04,0.54-0.04s0.42,0.02,0.72,0.04l6.07,0.26   c0.46,0.01,0.78,0.06,0.96,0.14c0.18,0.08,0.32,0.24,0.4,0.46c0.08,0.22,0.08,0.44-0.02,0.66c-0.06,0.13-0.13,0.22-0.22,0.29   c-0.09,0.07-0.18,0.12-0.29,0.14c-0.11,0.03-0.25,0.04-0.45,0.03C134.28,101.07,134.11,101.06,133.97,101.06z M130.31,103.24   l1.08-2.37l-3.82-0.29L130.31,103.24z" />
	<path
   id="path998"
   d="M135.99,89.32c0.51,0.14,0.93,0.39,1.26,0.77c0.33,0.37,0.55,0.84,0.64,1.41c0.09,0.57,0.04,1.2-0.15,1.89   c-0.23,0.83-0.57,1.47-1.03,1.93c-0.33,0.32-0.72,0.55-1.16,0.69c-0.44,0.14-0.84,0.16-1.2,0.06c-0.21-0.06-0.36-0.18-0.47-0.36   c-0.11-0.18-0.13-0.39-0.07-0.61c0.05-0.18,0.15-0.32,0.3-0.41c0.15-0.09,0.35-0.15,0.6-0.18c0.3-0.03,0.55-0.09,0.77-0.16   s0.41-0.21,0.59-0.4c0.18-0.19,0.32-0.47,0.42-0.84c0.14-0.5,0.13-0.95-0.02-1.33s-0.4-0.62-0.75-0.71   c-0.28-0.08-0.53-0.05-0.75,0.07c-0.22,0.12-0.41,0.31-0.58,0.55c-0.17,0.24-0.36,0.58-0.59,1c-0.31,0.57-0.61,1.03-0.91,1.38   c-0.3,0.36-0.65,0.61-1.04,0.76c-0.39,0.15-0.83,0.16-1.32,0.03c-0.46-0.13-0.84-0.36-1.13-0.71s-0.47-0.79-0.53-1.32   c-0.06-0.53-0.01-1.12,0.17-1.77c0.14-0.52,0.33-0.95,0.56-1.29c0.23-0.34,0.49-0.61,0.77-0.8c0.28-0.19,0.55-0.31,0.82-0.36   c0.26-0.05,0.51-0.05,0.73,0.01c0.2,0.06,0.37,0.18,0.49,0.36c0.12,0.19,0.16,0.39,0.1,0.6c-0.05,0.2-0.14,0.33-0.27,0.41   c-0.12,0.07-0.32,0.14-0.57,0.2c-0.36,0.07-0.66,0.18-0.89,0.35s-0.42,0.49-0.55,0.96c-0.12,0.44-0.12,0.82,0,1.14   c0.12,0.32,0.32,0.52,0.59,0.59c0.17,0.05,0.33,0.04,0.47-0.02s0.29-0.16,0.42-0.29s0.25-0.28,0.34-0.43s0.24-0.4,0.44-0.76   c0.24-0.44,0.48-0.84,0.72-1.19c0.24-0.35,0.49-0.63,0.75-0.85s0.56-0.36,0.9-0.43C135.19,89.19,135.57,89.21,135.99,89.32z" />
</g>
<path
   id="path1011"
   d="m 67.386754,127.27039 c -4.312274,-0.53359 -11.358868,-2.31247 -11.358868,-2.86749 0,-0.79721 1.107302,-6.44851 1.813193,-9.25392 0.439304,-1.74592 0.725766,-3.36456 0.63658,-3.59697 -0.08919,-0.23241 -0.405051,-0.42257 -0.701922,-0.42257 -0.325543,0 -0.493623,-0.12523 -0.4235,-0.31553 0.06395,-0.17353 0.50056,-1.88861 0.970252,-3.81128 l 0.853987,-3.49576 -0.599744,-0.48564 -0.599743,-0.48565 0.945352,-4.917016 c 0.519944,-2.704361 0.880081,-5.087114 0.800306,-5.295006 -0.07978,-0.207892 -0.326649,-0.377986 -0.548608,-0.377986 -0.267051,0 -0.358288,-0.149422 -0.269721,-0.441733 0.348676,-1.150794 0.645683,-2.799058 0.651267,-3.614266 0.01034,-1.509485 0.702271,-3.35426 1.691629,-4.510103 l 0.939574,-1.097681 0.446073,1.050322 c 0.24534,0.577676 0.624442,1.118768 0.842449,1.202425 0.500174,0.191935 1.387251,-0.590033 1.387251,-1.222876 0,-0.745615 0.69948,-1.91534 1.249794,-2.090003 0.768554,-0.24393 1.4695,0.278394 2.134384,1.590481 0.733491,1.447474 1.600381,2.015052 2.356484,1.542858 0.433745,-0.270879 0.61335,-0.236823 1.204864,0.228462 0.382324,0.300736 0.789341,0.546793 0.904483,0.546793 0.115141,0 0.421138,-0.709929 0.679994,-1.57762 l 0.470646,-1.577621 0.686178,1.340306 c 0.633587,1.237583 0.747668,1.334312 1.488493,1.262097 0.769678,-0.07503 0.828237,-0.162794 1.439505,-2.157452 0.611448,-1.99525 1.015817,-2.631379 1.015817,-1.598026 0,0.516607 1.214951,1.531704 1.833268,1.531704 0.201867,0 0.781834,-0.624738 1.288813,-1.388306 0.990458,-1.491737 1.180842,-1.603758 1.687698,-0.993033 0.180427,0.2174 0.644335,0.558832 1.030913,0.758737 0.644081,0.333068 0.72493,0.322231 0.966731,-0.129576 0.145128,-0.271173 0.411875,-1.071371 0.592768,-1.778217 l 0.3289,-1.285175 1.16593,1.713632 c 1.262561,1.85566 1.353846,2.116412 2.455772,7.014869 0.406052,1.805035 0.98286,3.834813 1.2818,4.510618 l 0.54353,1.228735 -0.541334,0.732194 -0.541333,0.732193 0.529018,5.179147 c 0.423706,4.148123 0.469984,5.342403 0.232476,5.999223 -0.257738,0.71276 -0.165143,1.35496 0.707533,4.90732 0.552246,2.24799 0.94495,4.14638 0.872679,4.21865 -0.07227,0.0723 -0.339647,0.1314 -0.594172,0.1314 -0.45492,0 -0.576483,0.26195 -0.467591,1.00761 0.06035,0.41328 2.129926,5.41703 2.531182,6.11981 0.340637,0.59661 0.31739,0.69758 -0.160637,0.69758 -0.336,0 -0.382299,0.1788 -0.254017,0.98102 l 0.156871,0.98103 -1.739351,0.64471 c -2.432966,0.90182 -6.158415,1.89052 -9.324694,2.47469 -3.112482,0.57426 -12.528029,0.84904 -15.689202,0.45789 z"
   style="fill:#ffffff;stroke-width:0.252419" /></svg>
